<svg xmlns="http://www.w3.org/2000/svg" viewBox="0 0 103.35 34.61"><defs><style>.cls-1,.cls-2,.cls-3{fill:gray;}.cls-2{opacity:0.3;}.cls-3{opacity:0.56;}</style></defs><title>Recurso 44-vector</title><g id="Capa_2" data-name="Capa 2"><g id="Capa_1-2" data-name="Capa 1"><path class="cls-1" d="M33.44,27.44a.45.45,0,0,0-.12-.35A.5.5,0,0,0,33,27a.77.77,0,0,0-.3.06.71.71,0,0,0-.23.15L32.29,27a.86.86,0,0,1,.29-.18,1.1,1.1,0,0,1,.41-.07.89.89,0,0,1,.27,0,.64.64,0,0,1,.22.12.54.54,0,0,1,.15.2.71.71,0,0,1,.05.29v.78q0,.1,0,.21a1.48,1.48,0,0,0,0,.19h-.23s0-.09,0-.14a1.48,1.48,0,0,1,0-.15h0a.75.75,0,0,1-.28.26.82.82,0,0,1-.37.08l-.21,0a.59.59,0,0,1-.2-.09.53.53,0,0,1-.15-.17.5.5,0,0,1-.06-.25.48.48,0,0,1,.11-.33.63.63,0,0,1,.28-.18,1.66,1.66,0,0,1,.4-.08l.47,0Zm-.08.26H33a1.41,1.41,0,0,0-.29.05.56.56,0,0,0-.22.12.26.26,0,0,0-.08.2.32.32,0,0,0,0,.16.3.3,0,0,0,.1.11l.14.06.15,0a.59.59,0,0,0,.24,0,.52.52,0,0,0,.18-.13.58.58,0,0,0,.11-.19.66.66,0,0,0,0-.23V27.7Z"/><path class="cls-1" d="M34.81,29a.86.86,0,0,0,.29.23.84.84,0,0,0,.39.1.85.85,0,0,0,.32-.06.56.56,0,0,0,.22-.15.6.6,0,0,0,.12-.22,1,1,0,0,0,0-.27v-.34h0a.68.68,0,0,1-.29.26.87.87,0,0,1-.38.09,1,1,0,0,1-.38-.07.86.86,0,0,1-.29-.19.84.84,0,0,1-.19-.29,1,1,0,0,1,0-.72.91.91,0,0,1,.19-.29.87.87,0,0,1,.29-.2,1,1,0,0,1,.38-.07.86.86,0,0,1,.38.09.7.7,0,0,1,.29.26h0v-.31h.26v1.77a1.3,1.3,0,0,1,0,.31.78.78,0,0,1-.15.3.84.84,0,0,1-.3.23,1.11,1.11,0,0,1-.49.09,1.2,1.2,0,0,1-.47-.1,1.15,1.15,0,0,1-.39-.26Zm0-1.28a.78.78,0,0,0,0,.27.67.67,0,0,0,.13.22.61.61,0,0,0,.21.15.71.71,0,0,0,.29.06.74.74,0,0,0,.28,0,.63.63,0,0,0,.22-.14.65.65,0,0,0,.14-.22.76.76,0,0,0,.05-.28.7.7,0,0,0-.41-.64.66.66,0,0,0-.28-.06.69.69,0,0,0-.29.06.64.64,0,0,0-.21.15.67.67,0,0,0-.13.22A.78.78,0,0,0,34.86,27.68Z"/><path class="cls-1" d="M39.12,27.65v.06a.62.62,0,0,1,0,.06H37.63a.7.7,0,0,0,.05.25.64.64,0,0,0,.14.21.66.66,0,0,0,.21.14.68.68,0,0,0,.61,0,.7.7,0,0,0,.22-.22l.19.15a1,1,0,0,1-.35.29,1,1,0,0,1-.41.09,1,1,0,0,1-.37-.07.86.86,0,0,1-.29-.2.93.93,0,0,1-.19-.3,1,1,0,0,1-.07-.37,1,1,0,0,1,.07-.37.91.91,0,0,1,.19-.3.88.88,0,0,1,.29-.2.89.89,0,0,1,.36-.07.91.91,0,0,1,.37.07.77.77,0,0,1,.27.19.82.82,0,0,1,.16.28A1.05,1.05,0,0,1,39.12,27.65Zm-.26-.08a.64.64,0,0,0-.16-.42.55.55,0,0,0-.43-.17A.6.6,0,0,0,38,27a.64.64,0,0,0-.19.13.65.65,0,0,0-.13.19.6.6,0,0,0-.06.22Z"/><path class="cls-1" d="M40.27,26.81s0,.1,0,.16,0,.11,0,.15h0a.59.59,0,0,1,.25-.25.73.73,0,0,1,.36-.1.63.63,0,0,1,.51.2.81.81,0,0,1,.17.54v1.1h-.26v-1a1.32,1.32,0,0,0,0-.26.54.54,0,0,0-.08-.2.38.38,0,0,0-.15-.13.53.53,0,0,0-.24,0,.5.5,0,0,0-.2,0,.49.49,0,0,0-.17.13.64.64,0,0,0-.12.22,1,1,0,0,0,0,.31v.92H40V27.2s0-.11,0-.19,0-.15,0-.21Z"/><path class="cls-1" d="M43.91,27.21a.49.49,0,0,0-.19-.17.56.56,0,0,0-.27-.07.7.7,0,0,0-.28.06.64.64,0,0,0-.22.15.67.67,0,0,0-.14.23.82.82,0,0,0,0,.28.81.81,0,0,0,0,.28.69.69,0,0,0,.14.23.62.62,0,0,0,.21.15.7.7,0,0,0,.28.06.57.57,0,0,0,.49-.23l.19.15a.85.85,0,0,1-.28.23.88.88,0,0,1-.4.08,1,1,0,0,1-.39-.07.87.87,0,0,1-.3-.2.89.89,0,0,1-.19-.3,1.06,1.06,0,0,1,0-.75.89.89,0,0,1,.19-.3.87.87,0,0,1,.3-.2,1,1,0,0,1,.39-.07.93.93,0,0,1,.37.08.72.72,0,0,1,.3.23Z"/><path class="cls-1" d="M45.21,26.12a.17.17,0,0,1-.06.13.18.18,0,0,1-.25,0,.18.18,0,0,1,0-.26.18.18,0,0,1,.25,0A.17.17,0,0,1,45.21,26.12Zm-.05,2.48h-.26V26.81h.26Z"/><path class="cls-1" d="M47.33,27.44a.45.45,0,0,0-.12-.35.5.5,0,0,0-.36-.11.77.77,0,0,0-.3.06.71.71,0,0,0-.23.15L46.18,27a.86.86,0,0,1,.29-.18,1.1,1.1,0,0,1,.41-.07.9.9,0,0,1,.27,0,.65.65,0,0,1,.22.12.55.55,0,0,1,.15.2.71.71,0,0,1,.05.29v.78q0,.1,0,.21a1.46,1.46,0,0,0,0,.19h-.23s0-.09,0-.14,0-.1,0-.15h0a.75.75,0,0,1-.28.26.82.82,0,0,1-.37.08l-.21,0a.59.59,0,0,1-.2-.09.53.53,0,0,1-.15-.17.5.5,0,0,1-.06-.25.48.48,0,0,1,.11-.33.63.63,0,0,1,.28-.18,1.66,1.66,0,0,1,.4-.08l.47,0Zm-.08.26h-.32a1.41,1.41,0,0,0-.29.05.56.56,0,0,0-.22.12.26.26,0,0,0-.08.2.32.32,0,0,0,0,.16.29.29,0,0,0,.1.11l.14.06.15,0a.59.59,0,0,0,.24,0,.52.52,0,0,0,.18-.13.58.58,0,0,0,.11-.19.66.66,0,0,0,0-.23V27.7Z"/><path class="cls-1" d="M51.39,28.29a.73.73,0,0,1-.3.26.87.87,0,0,1-.38.09,1,1,0,0,1-.38-.07.87.87,0,0,1-.29-.2.9.9,0,0,1-.19-.3,1.06,1.06,0,0,1,0-.74A.9.9,0,0,1,50,27a.87.87,0,0,1,.29-.2,1,1,0,0,1,.38-.07.85.85,0,0,1,.38.09.74.74,0,0,1,.3.27h0V25.7h.26v2.89H51.4v-.3Zm-1.33-.59a.85.85,0,0,0,0,.28.68.68,0,0,0,.13.23.6.6,0,0,0,.21.15.71.71,0,0,0,.29.06.67.67,0,0,0,.64-.43.81.81,0,0,0,0-.57.71.71,0,0,0-.14-.23A.66.66,0,0,0,51,27a.68.68,0,0,0-.28-.06.69.69,0,0,0-.29.06.62.62,0,0,0-.21.15.68.68,0,0,0-.13.23A.85.85,0,0,0,50.06,27.7Z"/><path class="cls-1" d="M54.34,27.65v.06a.61.61,0,0,1,0,.06H52.85a.7.7,0,0,0,.05.25.63.63,0,0,0,.14.21.66.66,0,0,0,.21.14.68.68,0,0,0,.61,0,.7.7,0,0,0,.22-.22l.19.15a1,1,0,0,1-.35.29,1,1,0,0,1-.41.09,1,1,0,0,1-.37-.07.86.86,0,0,1-.29-.2.93.93,0,0,1-.19-.3,1,1,0,0,1-.07-.37,1,1,0,0,1,.07-.37.91.91,0,0,1,.19-.3.88.88,0,0,1,.29-.2.89.89,0,0,1,.36-.07.91.91,0,0,1,.37.07.76.76,0,0,1,.27.19.82.82,0,0,1,.16.28A1,1,0,0,1,54.34,27.65Zm-.26-.08a.65.65,0,0,0-.16-.42.55.55,0,0,0-.43-.17.6.6,0,0,0-.24,0,.63.63,0,0,0-.19.13.64.64,0,0,0-.13.19.6.6,0,0,0-.06.22Z"/><path class="cls-1" d="M56.67,29a.86.86,0,0,0,.29.23.9.9,0,0,0,.72,0,.56.56,0,0,0,.22-.15.6.6,0,0,0,.12-.22,1,1,0,0,0,0-.27v-.34h0a.68.68,0,0,1-.29.26.87.87,0,0,1-.38.09,1,1,0,0,1-.38-.07.86.86,0,0,1-.29-.19.84.84,0,0,1-.19-.29,1,1,0,0,1,0-.72A.91.91,0,0,1,56.7,27a.86.86,0,0,1,.29-.2,1,1,0,0,1,.38-.07.86.86,0,0,1,.38.09.7.7,0,0,1,.29.26h0v-.31h.26v1.77a1.32,1.32,0,0,1,0,.31.78.78,0,0,1-.15.3.84.84,0,0,1-.3.23,1.11,1.11,0,0,1-.49.09,1.2,1.2,0,0,1-.47-.1,1.15,1.15,0,0,1-.39-.26Zm0-1.28a.78.78,0,0,0,0,.27.67.67,0,0,0,.13.22.61.61,0,0,0,.21.15.71.71,0,0,0,.29.06.74.74,0,0,0,.28,0,.63.63,0,0,0,.22-.14A.65.65,0,0,0,58,28a.76.76,0,0,0,.05-.28.7.7,0,0,0-.41-.64A.66.66,0,0,0,57.4,27a.69.69,0,0,0-.29.06.63.63,0,0,0-.21.15.67.67,0,0,0-.13.22A.78.78,0,0,0,56.72,27.68Z"/><path class="cls-1" d="M61.13,27.7a1,1,0,0,1-.07.37.88.88,0,0,1-.5.5,1,1,0,0,1-.39.07,1,1,0,0,1-.38-.07.88.88,0,0,1-.5-.5,1,1,0,0,1,0-.75.88.88,0,0,1,.5-.49,1,1,0,0,1,.38-.07,1,1,0,0,1,.39.07.88.88,0,0,1,.5.49A1,1,0,0,1,61.13,27.7Zm-.28,0a.82.82,0,0,0,0-.28.69.69,0,0,0-.14-.23.64.64,0,0,0-.21-.15.68.68,0,0,0-.28-.06.66.66,0,0,0-.28.06.65.65,0,0,0-.21.15.69.69,0,0,0-.14.23.85.85,0,0,0,0,.56.69.69,0,0,0,.14.23.62.62,0,0,0,.21.15.68.68,0,0,0,.28.06.7.7,0,0,0,.28-.06.62.62,0,0,0,.21-.15A.69.69,0,0,0,60.8,28,.82.82,0,0,0,60.85,27.7Z"/><path class="cls-1" d="M62.31,28.29v.3h-.26V25.7h.26v1.41h0a.74.74,0,0,1,.3-.27.85.85,0,0,1,.38-.09,1,1,0,0,1,.38.07.87.87,0,0,1,.29.2.9.9,0,0,1,.19.3,1.06,1.06,0,0,1,0,.74.9.9,0,0,1-.19.3.87.87,0,0,1-.29.2,1,1,0,0,1-.38.07.87.87,0,0,1-.38-.09.73.73,0,0,1-.3-.26Zm1.33-.59a.85.85,0,0,0,0-.28.68.68,0,0,0-.13-.23.62.62,0,0,0-.21-.15A.69.69,0,0,0,63,27a.68.68,0,0,0-.28.06.66.66,0,0,0-.22.15.71.71,0,0,0-.14.23.81.81,0,0,0,0,.57.69.69,0,0,0,.14.23.67.67,0,0,0,.49.21.71.71,0,0,0,.29-.06.6.6,0,0,0,.21-.15A.68.68,0,0,0,63.6,28,.85.85,0,0,0,63.65,27.7Z"/><path class="cls-1" d="M65.16,26.12a.17.17,0,0,1-.06.13.18.18,0,0,1-.25,0,.18.18,0,0,1,0-.26.18.18,0,0,1,.25,0A.17.17,0,0,1,65.16,26.12Zm-.05,2.48h-.26V26.81h.26Z"/><path class="cls-1" d="M67.78,27.65v.06a.61.61,0,0,1,0,.06H66.3a.7.7,0,0,0,.05.25.63.63,0,0,0,.14.21.66.66,0,0,0,.21.14.68.68,0,0,0,.61,0,.7.7,0,0,0,.22-.22l.19.15a1,1,0,0,1-.35.29,1,1,0,0,1-.41.09,1,1,0,0,1-.37-.07.86.86,0,0,1-.29-.2.93.93,0,0,1-.19-.3A1,1,0,0,1,66,27.7a1,1,0,0,1,.07-.37.91.91,0,0,1,.19-.3.88.88,0,0,1,.29-.2.89.89,0,0,1,.36-.07.91.91,0,0,1,.37.07.76.76,0,0,1,.27.19.82.82,0,0,1,.16.28A1.05,1.05,0,0,1,67.78,27.65Zm-.26-.08a.65.65,0,0,0-.16-.42.55.55,0,0,0-.43-.17.6.6,0,0,0-.24,0,.64.64,0,0,0-.2.13.65.65,0,0,0-.13.19.6.6,0,0,0-.06.22Z"/><path class="cls-1" d="M68.7,27q0-.11,0-.21h.25s0,.1,0,.16,0,.11,0,.15h0a.63.63,0,0,1,.57-.35h.09l.08,0,0,.25-.08,0h-.11a.53.53,0,0,0-.2,0,.43.43,0,0,0-.17.12.63.63,0,0,0-.11.21,1,1,0,0,0,0,.31v.92H68.7V27.2S68.7,27.09,68.7,27Z"/><path class="cls-1" d="M70.67,26.81s0,.1,0,.16,0,.11,0,.15h0a.59.59,0,0,1,.25-.25.72.72,0,0,1,.36-.1.63.63,0,0,1,.51.2.81.81,0,0,1,.17.54v1.1h-.26v-1a1.31,1.31,0,0,0,0-.26.54.54,0,0,0-.08-.2.37.37,0,0,0-.15-.13.53.53,0,0,0-.24,0,.5.5,0,0,0-.2,0,.49.49,0,0,0-.17.13.64.64,0,0,0-.12.22,1,1,0,0,0,0,.31v.92h-.26V27.2s0-.11,0-.19,0-.15,0-.21Z"/><path class="cls-1" d="M74.79,27.7a1,1,0,0,1-.07.37.9.9,0,0,1-.2.3.89.89,0,0,1-.3.2,1,1,0,0,1-.39.07,1,1,0,0,1-.38-.07.88.88,0,0,1-.5-.5,1,1,0,0,1,0-.75.88.88,0,0,1,.5-.49,1,1,0,0,1,.38-.07,1,1,0,0,1,.39.07.88.88,0,0,1,.5.49A1,1,0,0,1,74.79,27.7Zm-.28,0a.82.82,0,0,0,0-.28.69.69,0,0,0-.14-.23.64.64,0,0,0-.21-.15.68.68,0,0,0-.28-.06.66.66,0,0,0-.28.06.65.65,0,0,0-.21.15.69.69,0,0,0-.14.23.85.85,0,0,0,0,.56.69.69,0,0,0,.14.23.62.62,0,0,0,.21.15.68.68,0,0,0,.28.06.7.7,0,0,0,.28-.06.62.62,0,0,0,.21-.15.69.69,0,0,0,.14-.23A.82.82,0,0,0,74.52,27.7Z"/><path class="cls-1" d="M78.65,27.65v.06a.62.62,0,0,1,0,.06H77.17a.7.7,0,0,0,.05.25.63.63,0,0,0,.14.21.66.66,0,0,0,.21.14.68.68,0,0,0,.61,0,.7.7,0,0,0,.22-.22l.19.15a1,1,0,0,1-.35.29,1,1,0,0,1-.41.09,1,1,0,0,1-.37-.07.86.86,0,0,1-.29-.2.93.93,0,0,1-.19-.3,1,1,0,0,1-.07-.37,1,1,0,0,1,.07-.37.91.91,0,0,1,.19-.3.88.88,0,0,1,.29-.2.89.89,0,0,1,.36-.07.91.91,0,0,1,.37.07.76.76,0,0,1,.27.19.82.82,0,0,1,.16.28A1.05,1.05,0,0,1,78.65,27.65Zm-.26-.08a.65.65,0,0,0-.16-.42A.55.55,0,0,0,77.8,27a.6.6,0,0,0-.24,0,.64.64,0,0,0-.2.13.65.65,0,0,0-.13.19.6.6,0,0,0-.06.22Z"/><path class="cls-1" d="M79.84,28.59h-.26V25.7h.26Z"/><path class="cls-1" d="M82.52,27.65v.06a.61.61,0,0,1,0,.06H81a.7.7,0,0,0,.05.25.64.64,0,0,0,.14.21.66.66,0,0,0,.21.14.68.68,0,0,0,.61,0,.7.7,0,0,0,.22-.22l.19.15a1,1,0,0,1-.35.29,1,1,0,0,1-.41.09,1,1,0,0,1-.37-.07.86.86,0,0,1-.29-.2.93.93,0,0,1-.19-.3,1,1,0,0,1-.07-.37,1,1,0,0,1,.07-.37A.91.91,0,0,1,81,27a.88.88,0,0,1,.29-.2.89.89,0,0,1,.36-.07.91.91,0,0,1,.37.07.77.77,0,0,1,.27.19.82.82,0,0,1,.16.28A1.05,1.05,0,0,1,82.52,27.65Zm-.26-.08a.64.64,0,0,0-.16-.42.55.55,0,0,0-.43-.17.6.6,0,0,0-.24,0,.64.64,0,0,0-.19.13.65.65,0,0,0-.13.19.6.6,0,0,0-.06.22Z"/><path class="cls-1" d="M84.73,27.21a.49.49,0,0,0-.19-.17.56.56,0,0,0-.27-.07A.7.7,0,0,0,84,27a.64.64,0,0,0-.22.15.67.67,0,0,0-.14.23.83.83,0,0,0,0,.28.81.81,0,0,0,0,.28.69.69,0,0,0,.14.23.62.62,0,0,0,.21.15.7.7,0,0,0,.28.06.57.57,0,0,0,.49-.23l.19.15a.85.85,0,0,1-.28.23.88.88,0,0,1-.4.08,1,1,0,0,1-.39-.07.87.87,0,0,1-.3-.2.89.89,0,0,1-.19-.3,1.06,1.06,0,0,1,0-.75.89.89,0,0,1,.19-.3.87.87,0,0,1,.3-.2,1,1,0,0,1,.39-.07.93.93,0,0,1,.37.08.72.72,0,0,1,.3.23Z"/><path class="cls-1" d="M86.52,27H86v1a.59.59,0,0,0,0,.16.23.23,0,0,0,.06.1.19.19,0,0,0,.09,0h.11l.11,0,.11,0v.23l-.14,0h-.16l-.15,0a.39.39,0,0,1-.15-.07.4.4,0,0,1-.11-.15.56.56,0,0,1,0-.24V27h-.37v-.22h.37v-.5H86v.5h.5Z"/><path class="cls-1" d="M87.28,27c0-.08,0-.15,0-.21h.25s0,.1,0,.16,0,.11,0,.15h0a.62.62,0,0,1,.23-.25.63.63,0,0,1,.34-.1h.09l.08,0,0,.25-.08,0h-.11a.53.53,0,0,0-.2,0,.43.43,0,0,0-.17.12.63.63,0,0,0-.11.21,1,1,0,0,0,0,.31v.92h-.26V27.2S87.28,27.09,87.28,27Z"/><path class="cls-1" d="M90.8,27.7a1,1,0,0,1-.07.37.88.88,0,0,1-.5.5,1,1,0,0,1-.39.07,1,1,0,0,1-.38-.07.88.88,0,0,1-.5-.5,1,1,0,0,1,0-.75.88.88,0,0,1,.5-.49,1,1,0,0,1,.38-.07,1,1,0,0,1,.39.07.88.88,0,0,1,.5.49A1,1,0,0,1,90.8,27.7Zm-.28,0a.82.82,0,0,0,0-.28.69.69,0,0,0-.14-.23.64.64,0,0,0-.21-.15.68.68,0,0,0-.28-.06.66.66,0,0,0-.28.06.65.65,0,0,0-.21.15.69.69,0,0,0-.14.23.85.85,0,0,0,0,.56.69.69,0,0,0,.14.23.62.62,0,0,0,.21.15.68.68,0,0,0,.28.06.7.7,0,0,0,.28-.06.62.62,0,0,0,.21-.15.69.69,0,0,0,.14-.23A.82.82,0,0,0,90.52,27.7Zm-.61-1.26h-.23l.38-.55h.35Z"/><path class="cls-1" d="M91.95,26.81s0,.1,0,.16,0,.11,0,.15h0a.59.59,0,0,1,.25-.25.73.73,0,0,1,.36-.1.63.63,0,0,1,.51.2.81.81,0,0,1,.17.54v1.1H93v-1a1.32,1.32,0,0,0,0-.26.54.54,0,0,0-.08-.2.37.37,0,0,0-.15-.13.53.53,0,0,0-.24,0,.5.5,0,0,0-.2,0,.49.49,0,0,0-.17.13.64.64,0,0,0-.12.22,1,1,0,0,0,0,.31v.92h-.26V27.2s0-.11,0-.19,0-.15,0-.21Z"/><path class="cls-1" d="M94.61,26.12a.17.17,0,0,1-.06.13.18.18,0,0,1-.25,0,.18.18,0,0,1,0-.26.18.18,0,0,1,.25,0A.17.17,0,0,1,94.61,26.12Zm-.05,2.48H94.3V26.81h.26Z"/><path class="cls-1" d="M96.9,27.21a.5.5,0,0,0-.19-.17.56.56,0,0,0-.27-.07.7.7,0,0,0-.28.06.64.64,0,0,0-.22.15.67.67,0,0,0-.14.23.83.83,0,0,0,0,.28.81.81,0,0,0,0,.28.69.69,0,0,0,.14.23.62.62,0,0,0,.21.15.69.69,0,0,0,.28.06.57.57,0,0,0,.49-.23l.19.15a.85.85,0,0,1-.28.23.88.88,0,0,1-.4.08,1,1,0,0,1-.39-.07.87.87,0,0,1-.3-.2.89.89,0,0,1-.19-.3,1.05,1.05,0,0,1,0-.75.89.89,0,0,1,.19-.3.87.87,0,0,1,.3-.2,1,1,0,0,1,.39-.07.93.93,0,0,1,.36.08.72.72,0,0,1,.3.23Z"/><path class="cls-1" d="M99.66,27.7a1,1,0,0,1-.07.37.88.88,0,0,1-.5.5,1,1,0,0,1-.39.07,1,1,0,0,1-.38-.07.89.89,0,0,1-.3-.2.9.9,0,0,1-.2-.3,1,1,0,0,1,0-.75A.9.9,0,0,1,98,27a.89.89,0,0,1,.3-.2,1,1,0,0,1,.38-.07,1,1,0,0,1,.39.07.88.88,0,0,1,.5.49A1,1,0,0,1,99.66,27.7Zm-.28,0a.82.82,0,0,0,0-.28.69.69,0,0,0-.14-.23A.64.64,0,0,0,99,27,.68.68,0,0,0,98.7,27a.66.66,0,0,0-.28.06.65.65,0,0,0-.21.15.69.69,0,0,0-.14.23.85.85,0,0,0,0,.56.69.69,0,0,0,.14.23.62.62,0,0,0,.21.15.68.68,0,0,0,.28.06.7.7,0,0,0,.28-.06.62.62,0,0,0,.21-.15.69.69,0,0,0,.14-.23A.82.82,0,0,0,99.38,27.7Z"/><path class="cls-1" d="M102.51,28.32h0l.55-1.51h.28l-.89,2.25a.94.94,0,0,1-.2.33.48.48,0,0,1-.36.12l-.23,0,0-.24a.6.6,0,0,0,.19,0,.27.27,0,0,0,.21-.08.71.71,0,0,0,.13-.24l.15-.37-.76-1.79h.29Z"/><path class="cls-1" d="M15.72,32.12h-.5v1a.59.59,0,0,0,0,.16.23.23,0,0,0,.06.1.19.19,0,0,0,.09,0h.11l.11,0,.11,0v.23l-.14,0h-.16l-.15,0a.39.39,0,0,1-.15-.07.4.4,0,0,1-.11-.15.56.56,0,0,1,0-.24V32.12h-.37V31.9H15v-.5h.26v.5h.5Z"/><path class="cls-1" d="M18.08,32.74v.06a.61.61,0,0,1,0,.06H16.6a.7.7,0,0,0,.05.25.63.63,0,0,0,.14.21.66.66,0,0,0,.21.14.68.68,0,0,0,.61,0,.7.7,0,0,0,.22-.22l.19.15a1,1,0,0,1-.35.29,1,1,0,0,1-.41.09,1,1,0,0,1-.37-.07.87.87,0,0,1-.29-.2.93.93,0,0,1-.19-.3,1,1,0,0,1-.07-.37,1,1,0,0,1,.07-.37.91.91,0,0,1,.19-.3.88.88,0,0,1,.29-.2.89.89,0,0,1,.36-.07.91.91,0,0,1,.37.07.76.76,0,0,1,.27.19.82.82,0,0,1,.16.28A1,1,0,0,1,18.08,32.74Zm-.26-.08a.65.65,0,0,0-.16-.42.55.55,0,0,0-.43-.17.6.6,0,0,0-.24,0,.64.64,0,0,0-.2.13.65.65,0,0,0-.13.19.6.6,0,0,0-.06.22Z"/><path class="cls-1" d="M20.25,32.31a.49.49,0,0,0-.19-.17.56.56,0,0,0-.27-.07.7.7,0,0,0-.28.06.64.64,0,0,0-.22.15.67.67,0,0,0-.14.23.83.83,0,0,0,0,.28.81.81,0,0,0,0,.28.69.69,0,0,0,.14.23.62.62,0,0,0,.21.15.7.7,0,0,0,.28.06.57.57,0,0,0,.49-.23l.19.15a.85.85,0,0,1-.28.23.88.88,0,0,1-.4.08,1,1,0,0,1-.39-.07.87.87,0,0,1-.3-.2.89.89,0,0,1-.19-.3,1.06,1.06,0,0,1,0-.75.89.89,0,0,1,.19-.3.87.87,0,0,1,.3-.2,1,1,0,0,1,.39-.07.93.93,0,0,1,.37.08.71.71,0,0,1,.3.23Z"/><path class="cls-1" d="M21.43,31.9s0,.1,0,.16,0,.11,0,.15h0a.59.59,0,0,1,.25-.25.72.72,0,0,1,.36-.1.63.63,0,0,1,.51.2.8.8,0,0,1,.17.54v1.1h-.26v-1a1.31,1.31,0,0,0,0-.26.54.54,0,0,0-.08-.2.37.37,0,0,0-.15-.13.53.53,0,0,0-.24,0,.5.5,0,0,0-.2,0,.5.5,0,0,0-.17.13.64.64,0,0,0-.12.22,1,1,0,0,0,0,.31v.92H21.2V32.3s0-.11,0-.19,0-.15,0-.21Z"/><path class="cls-1" d="M25.53,32.8a1,1,0,0,1-.07.37.88.88,0,0,1-.5.5,1,1,0,0,1-.39.07,1,1,0,0,1-.38-.07.88.88,0,0,1-.5-.5,1,1,0,0,1,0-.75.88.88,0,0,1,.5-.49,1,1,0,0,1,.38-.07,1,1,0,0,1,.39.07.88.88,0,0,1,.5.49A1,1,0,0,1,25.53,32.8Zm-.28,0a.82.82,0,0,0,0-.28.69.69,0,0,0-.14-.23.64.64,0,0,0-.21-.15.68.68,0,0,0-.28-.06.66.66,0,0,0-.28.06.65.65,0,0,0-.21.15.69.69,0,0,0-.14.23.85.85,0,0,0,0,.56.69.69,0,0,0,.14.23.62.62,0,0,0,.21.15.68.68,0,0,0,.28.06.7.7,0,0,0,.28-.06.62.62,0,0,0,.21-.15.69.69,0,0,0,.14-.23A.82.82,0,0,0,25.25,32.8Z"/><path class="cls-1" d="M26.68,33.69h-.26V30.8h.26Z"/><path class="cls-1" d="M29.47,32.8a1,1,0,0,1-.07.37.88.88,0,0,1-.5.5,1,1,0,0,1-.39.07,1,1,0,0,1-.38-.07.88.88,0,0,1-.5-.5,1,1,0,0,1,0-.75.88.88,0,0,1,.5-.49,1,1,0,0,1,.38-.07,1,1,0,0,1,.39.07.88.88,0,0,1,.5.49A1,1,0,0,1,29.47,32.8Zm-.28,0a.82.82,0,0,0,0-.28.69.69,0,0,0-.14-.23.64.64,0,0,0-.21-.15.68.68,0,0,0-.28-.06.66.66,0,0,0-.28.06.65.65,0,0,0-.21.15.69.69,0,0,0-.14.23.85.85,0,0,0,0,.56.69.69,0,0,0,.14.23.62.62,0,0,0,.21.15.68.68,0,0,0,.28.06.7.7,0,0,0,.28-.06.62.62,0,0,0,.21-.15.69.69,0,0,0,.14-.23A.82.82,0,0,0,29.2,32.8Z"/><path class="cls-1" d="M30.45,34.05a.86.86,0,0,0,.29.23.84.84,0,0,0,.39.1.85.85,0,0,0,.32-.06.56.56,0,0,0,.22-.15.6.6,0,0,0,.12-.22,1,1,0,0,0,0-.27v-.34h0a.68.68,0,0,1-.29.26.87.87,0,0,1-.38.09,1,1,0,0,1-.38-.07.86.86,0,0,1-.29-.19.84.84,0,0,1-.19-.29,1,1,0,0,1,0-.72.91.91,0,0,1,.19-.29.87.87,0,0,1,.29-.2,1,1,0,0,1,.38-.07.86.86,0,0,1,.38.09.7.7,0,0,1,.29.26h0V31.9h.26v1.77a1.3,1.3,0,0,1,0,.31.78.78,0,0,1-.15.3.84.84,0,0,1-.3.23,1.11,1.11,0,0,1-.49.09,1.2,1.2,0,0,1-.47-.1,1.15,1.15,0,0,1-.39-.26Zm0-1.28a.78.78,0,0,0,0,.27.67.67,0,0,0,.13.22.61.61,0,0,0,.21.15.71.71,0,0,0,.29.06.74.74,0,0,0,.28,0,.63.63,0,0,0,.22-.14.65.65,0,0,0,.14-.22.76.76,0,0,0,.05-.28.7.7,0,0,0-.41-.64.66.66,0,0,0-.28-.06.69.69,0,0,0-.29.06.64.64,0,0,0-.21.15.67.67,0,0,0-.13.22A.78.78,0,0,0,30.5,32.77Z"/><path class="cls-1" d="M33.33,31.54H33.1l.38-.55h.35Zm0,2.16H33.1V31.9h.26Z"/><path class="cls-1" d="M35.51,32.53a.45.45,0,0,0-.12-.35.5.5,0,0,0-.36-.11.77.77,0,0,0-.3.06.71.71,0,0,0-.23.15l-.15-.17a.86.86,0,0,1,.29-.18,1.1,1.1,0,0,1,.41-.07.9.9,0,0,1,.27,0,.65.65,0,0,1,.22.12.55.55,0,0,1,.15.2.71.71,0,0,1,.05.29v.78q0,.1,0,.21a1.46,1.46,0,0,0,0,.19h-.23s0-.09,0-.14,0-.1,0-.15h0a.75.75,0,0,1-.28.26.82.82,0,0,1-.37.08l-.21,0a.59.59,0,0,1-.2-.09.53.53,0,0,1-.15-.17.5.5,0,0,1-.06-.25.48.48,0,0,1,.11-.33.63.63,0,0,1,.28-.18,1.66,1.66,0,0,1,.4-.08l.47,0Zm-.08.26h-.32a1.41,1.41,0,0,0-.29.05.56.56,0,0,0-.22.12.26.26,0,0,0-.08.2.32.32,0,0,0,0,.16.29.29,0,0,0,.1.11l.14.06.15,0a.59.59,0,0,0,.24,0,.52.52,0,0,0,.18-.13.58.58,0,0,0,.11-.19.66.66,0,0,0,0-.23V32.8Z"/><path class="cls-1" d="M37.7,32.33a.46.46,0,0,0-.17-.18.5.5,0,0,0-.27-.07l-.14,0-.12,0a.27.27,0,0,0-.09.09.24.24,0,0,0,0,.13.22.22,0,0,0,.1.19,1,1,0,0,0,.32.11,1.08,1.08,0,0,1,.47.19.41.41,0,0,1,.15.33.5.5,0,0,1-.21.43.63.63,0,0,1-.22.1l-.24,0a1,1,0,0,1-.39-.08.73.73,0,0,1-.31-.26l.21-.15a.58.58,0,0,0,.5.28l.16,0a.37.37,0,0,0,.13-.05.27.27,0,0,0,.13-.24.23.23,0,0,0-.14-.21,1.77,1.77,0,0,0-.39-.13l-.17,0a.58.58,0,0,1-.17-.08.46.46,0,0,1-.13-.14.41.41,0,0,1,0-.21.48.48,0,0,1,.05-.24.47.47,0,0,1,.14-.16.64.64,0,0,1,.2-.09.92.92,0,0,1,.24,0,.83.83,0,0,1,.36.08.59.59,0,0,1,.26.24Z"/><path class="cls-1" d="M41.52,33.39a.73.73,0,0,1-.3.26.87.87,0,0,1-.38.09,1,1,0,0,1-.38-.07.86.86,0,0,1-.29-.2.9.9,0,0,1-.19-.3,1.06,1.06,0,0,1,0-.74.89.89,0,0,1,.19-.3.86.86,0,0,1,.29-.2,1,1,0,0,1,.38-.07.85.85,0,0,1,.38.09.74.74,0,0,1,.3.27h0V30.8h.26v2.89h-.26v-.3Zm-1.33-.59a.85.85,0,0,0,0,.28.68.68,0,0,0,.13.23.6.6,0,0,0,.21.15.71.71,0,0,0,.29.06.67.67,0,0,0,.49-.21.69.69,0,0,0,.14-.23.81.81,0,0,0,0-.57.71.71,0,0,0-.14-.23.66.66,0,0,0-.22-.15.68.68,0,0,0-.28-.06.69.69,0,0,0-.29.06.62.62,0,0,0-.21.15.68.68,0,0,0-.13.23A.85.85,0,0,0,40.19,32.8Z"/><path class="cls-1" d="M44.44,32.74v.06a.61.61,0,0,1,0,.06H42.95a.69.69,0,0,0,.05.25.63.63,0,0,0,.14.21.66.66,0,0,0,.21.14.68.68,0,0,0,.61,0,.7.7,0,0,0,.22-.22l.19.15a1,1,0,0,1-.35.29,1,1,0,0,1-.41.09,1,1,0,0,1-.37-.07.87.87,0,0,1-.29-.2.93.93,0,0,1-.19-.3,1,1,0,0,1-.07-.37,1,1,0,0,1,.07-.37.91.91,0,0,1,.19-.3.88.88,0,0,1,.29-.2.89.89,0,0,1,.36-.07.91.91,0,0,1,.37.07.76.76,0,0,1,.27.19.82.82,0,0,1,.16.28A1.05,1.05,0,0,1,44.44,32.74Zm-.26-.08a.65.65,0,0,0-.16-.42.55.55,0,0,0-.43-.17.6.6,0,0,0-.24,0,.64.64,0,0,0-.2.13.65.65,0,0,0-.13.19.6.6,0,0,0-.06.22Z"/><path class="cls-1" d="M46.92,31.21a.17.17,0,0,1-.06.13.18.18,0,0,1-.25,0,.18.18,0,0,1,0-.26.18.18,0,0,1,.25,0A.17.17,0,0,1,46.92,31.21Zm-.05,2.48H46.6V31.9h.26Z"/><path class="cls-1" d="M48.11,31.9s0,.1,0,.16,0,.11,0,.15h0a.59.59,0,0,1,.25-.25.72.72,0,0,1,.36-.1.63.63,0,0,1,.51.2.81.81,0,0,1,.17.54v1.1h-.26v-1a1.31,1.31,0,0,0,0-.26.54.54,0,0,0-.08-.2.37.37,0,0,0-.15-.13.53.53,0,0,0-.24,0,.5.5,0,0,0-.2,0,.5.5,0,0,0-.17.13.64.64,0,0,0-.12.22,1,1,0,0,0,0,.31v.92h-.26V32.3s0-.11,0-.19,0-.15,0-.21Z"/><path class="cls-1" d="M51.18,32.12h-.42v1.57H50.5V32.12h-.37V31.9h.37v-.49a.72.72,0,0,1,.15-.48.57.57,0,0,1,.46-.18h.11l.11,0,0,.23-.08,0h-.1a.37.37,0,0,0-.17,0,.25.25,0,0,0-.1.1.43.43,0,0,0,0,.15,1.14,1.14,0,0,0,0,.18v.46h.42Z"/><path class="cls-1" d="M53.66,32.8a1,1,0,0,1-.07.37.88.88,0,0,1-.5.5,1,1,0,0,1-.39.07,1,1,0,0,1-.38-.07.88.88,0,0,1-.5-.5,1,1,0,0,1,0-.75.88.88,0,0,1,.5-.49,1,1,0,0,1,.38-.07,1,1,0,0,1,.39.07.88.88,0,0,1,.5.49A1,1,0,0,1,53.66,32.8Zm-.28,0a.82.82,0,0,0,0-.28.69.69,0,0,0-.14-.23.64.64,0,0,0-.21-.15.68.68,0,0,0-.28-.06.66.66,0,0,0-.28.06.65.65,0,0,0-.21.15.69.69,0,0,0-.14.23.85.85,0,0,0,0,.56.69.69,0,0,0,.14.23.62.62,0,0,0,.21.15.68.68,0,0,0,.28.06.7.7,0,0,0,.28-.06.62.62,0,0,0,.21-.15.69.69,0,0,0,.14-.23A.82.82,0,0,0,53.38,32.8Z"/><path class="cls-1" d="M54.54,32.11q0-.11,0-.21h.25s0,.1,0,.16,0,.11,0,.15h0a.63.63,0,0,1,.57-.35h.09l.08,0,0,.25-.08,0h-.11a.53.53,0,0,0-.2,0,.43.43,0,0,0-.17.12.63.63,0,0,0-.11.21,1,1,0,0,0,0,.31v.92h-.26V32.3S54.54,32.19,54.54,32.11Z"/><path class="cls-1" d="M56.73,32a.66.66,0,0,1,.35-.1l.15,0a.48.48,0,0,1,.15.06.56.56,0,0,1,.14.12.65.65,0,0,1,.11.19.67.67,0,0,1,.25-.28.7.7,0,0,1,.38-.1.63.63,0,0,1,.51.2.81.81,0,0,1,.17.54v1.1h-.26v-1a.86.86,0,0,0-.11-.45.39.39,0,0,0-.36-.17.46.46,0,0,0-.24.06.46.46,0,0,0-.16.15.67.67,0,0,0-.09.21,1.1,1.1,0,0,0,0,.24v1h-.26v-1a1.35,1.35,0,0,0,0-.24.5.5,0,0,0-.07-.18.31.31,0,0,0-.13-.11.5.5,0,0,0-.21,0,.45.45,0,0,0-.19,0,.49.49,0,0,0-.17.13.66.66,0,0,0-.12.22,1,1,0,0,0,0,.31v.92h-.26V32.3s0-.11,0-.19,0-.15,0-.21h.25s0,.1,0,.16,0,.11,0,.15h0A.61.61,0,0,1,56.73,32Z"/><path class="cls-1" d="M61.07,32.53a.45.45,0,0,0-.12-.35.5.5,0,0,0-.36-.11.77.77,0,0,0-.3.06.71.71,0,0,0-.23.15l-.15-.17a.86.86,0,0,1,.29-.18,1.1,1.1,0,0,1,.41-.07.89.89,0,0,1,.27,0,.64.64,0,0,1,.22.12.54.54,0,0,1,.15.2.71.71,0,0,1,.05.29v.78q0,.1,0,.21a1.48,1.48,0,0,0,0,.19h-.23s0-.09,0-.14a1.47,1.47,0,0,1,0-.15h0a.75.75,0,0,1-.28.26.82.82,0,0,1-.37.08l-.21,0a.59.59,0,0,1-.2-.09.53.53,0,0,1-.15-.17.5.5,0,0,1-.06-.25.48.48,0,0,1,.11-.33.63.63,0,0,1,.28-.18,1.66,1.66,0,0,1,.4-.08l.47,0ZM61,32.8h-.32a1.41,1.41,0,0,0-.29.05.56.56,0,0,0-.22.12.26.26,0,0,0-.08.2.32.32,0,0,0,0,.16.3.3,0,0,0,.1.11l.14.06.15,0a.59.59,0,0,0,.24,0,.52.52,0,0,0,.18-.13.58.58,0,0,0,.11-.19.66.66,0,0,0,0-.23V32.8Z"/><path class="cls-1" d="M63.6,32.31a.5.5,0,0,0-.19-.17.56.56,0,0,0-.27-.07.69.69,0,0,0-.28.06.64.64,0,0,0-.22.15.67.67,0,0,0-.14.23.83.83,0,0,0,0,.28.81.81,0,0,0,0,.28.69.69,0,0,0,.14.23.62.62,0,0,0,.21.15.7.7,0,0,0,.28.06.57.57,0,0,0,.49-.23l.19.15a.85.85,0,0,1-.28.23.88.88,0,0,1-.4.08,1,1,0,0,1-.39-.07.87.87,0,0,1-.3-.2.89.89,0,0,1-.19-.3,1.05,1.05,0,0,1,0-.75.89.89,0,0,1,.19-.3.87.87,0,0,1,.3-.2,1,1,0,0,1,.39-.07.93.93,0,0,1,.36.08.72.72,0,0,1,.3.23Z"/><path class="cls-1" d="M64.86,31.21a.17.17,0,0,1-.06.13.18.18,0,0,1-.25,0,.18.18,0,0,1,0-.26.18.18,0,0,1,.25,0A.17.17,0,0,1,64.86,31.21Zm-.05,2.48h-.26V31.9h.26Z"/><path class="cls-1" d="M67.6,32.8a1,1,0,0,1-.07.37.9.9,0,0,1-.2.3.89.89,0,0,1-.3.2,1,1,0,0,1-.39.07,1,1,0,0,1-.38-.07.89.89,0,0,1-.3-.2.9.9,0,0,1-.2-.3,1,1,0,0,1,0-.75.88.88,0,0,1,.5-.49,1,1,0,0,1,.38-.07,1,1,0,0,1,.39.07.89.89,0,0,1,.3.2.9.9,0,0,1,.2.3A1,1,0,0,1,67.6,32.8Zm-.28,0a.82.82,0,0,0,0-.28.69.69,0,0,0-.14-.23.64.64,0,0,0-.21-.15.68.68,0,0,0-.28-.06.66.66,0,0,0-.28.06.65.65,0,0,0-.21.15.69.69,0,0,0-.14.23.85.85,0,0,0,0,.56.69.69,0,0,0,.14.23.62.62,0,0,0,.21.15.68.68,0,0,0,.28.06.7.7,0,0,0,.28-.06.62.62,0,0,0,.21-.15.69.69,0,0,0,.14-.23A.82.82,0,0,0,67.33,32.8Zm-.61-1.26h-.23l.38-.55h.35Z"/><path class="cls-1" d="M68.72,31.9s0,.1,0,.16,0,.11,0,.15h0A.59.59,0,0,1,69,32a.72.72,0,0,1,.36-.1.63.63,0,0,1,.51.2.81.81,0,0,1,.17.54v1.1h-.26v-1a1.31,1.31,0,0,0,0-.26.54.54,0,0,0-.08-.2.37.37,0,0,0-.15-.13.53.53,0,0,0-.24,0,.5.5,0,0,0-.2,0,.49.49,0,0,0-.17.13.64.64,0,0,0-.12.22,1,1,0,0,0,0,.31v.92h-.26V32.3s0-.11,0-.19,0-.15,0-.21Z"/><path class="cls-1" d="M72.93,33.41h0l.55-1.51h.28l-.89,2.25a.94.94,0,0,1-.2.33.48.48,0,0,1-.36.12l-.23,0,0-.24a.6.6,0,0,0,.19,0,.27.27,0,0,0,.21-.08.71.71,0,0,0,.13-.24l.15-.37L72,31.9h.29Z"/><path class="cls-1" d="M77.07,32.31a.5.5,0,0,0-.19-.17.56.56,0,0,0-.27-.07.7.7,0,0,0-.28.06.64.64,0,0,0-.22.15.67.67,0,0,0-.14.23.83.83,0,0,0,0,.28.82.82,0,0,0,0,.28.69.69,0,0,0,.14.23.62.62,0,0,0,.21.15.7.7,0,0,0,.28.06.57.57,0,0,0,.49-.23l.2.15a.85.85,0,0,1-.28.23.88.88,0,0,1-.4.08,1,1,0,0,1-.39-.07.87.87,0,0,1-.3-.2.89.89,0,0,1-.19-.3,1.05,1.05,0,0,1,0-.75.89.89,0,0,1,.19-.3.87.87,0,0,1,.3-.2,1,1,0,0,1,.39-.07.93.93,0,0,1,.37.08.72.72,0,0,1,.3.23Z"/><path class="cls-1" d="M79.8,32.8a1,1,0,0,1-.07.37.88.88,0,0,1-.5.5,1,1,0,0,1-.39.07,1,1,0,0,1-.38-.07.88.88,0,0,1-.5-.5,1,1,0,0,1,0-.75.88.88,0,0,1,.5-.49,1,1,0,0,1,.38-.07,1,1,0,0,1,.39.07.88.88,0,0,1,.5.49A1,1,0,0,1,79.8,32.8Zm-.28,0a.82.82,0,0,0,0-.28.69.69,0,0,0-.14-.23.64.64,0,0,0-.21-.15.68.68,0,0,0-.28-.06.66.66,0,0,0-.28.06.65.65,0,0,0-.21.15.69.69,0,0,0-.14.23.85.85,0,0,0,0,.56.69.69,0,0,0,.14.23.62.62,0,0,0,.21.15.68.68,0,0,0,.28.06.7.7,0,0,0,.28-.06.62.62,0,0,0,.21-.15.69.69,0,0,0,.14-.23A.82.82,0,0,0,79.52,32.8Z"/><path class="cls-1" d="M81.17,32a.66.66,0,0,1,.35-.1l.15,0a.48.48,0,0,1,.15.06A.56.56,0,0,1,82,32a.66.66,0,0,1,.11.19.67.67,0,0,1,.25-.28.7.7,0,0,1,.38-.1.63.63,0,0,1,.51.2.81.81,0,0,1,.17.54v1.1h-.26v-1a.87.87,0,0,0-.11-.45.39.39,0,0,0-.36-.17.46.46,0,0,0-.24.06.46.46,0,0,0-.16.15.67.67,0,0,0-.09.21,1.11,1.11,0,0,0,0,.24v1h-.26v-1a1.35,1.35,0,0,0,0-.24.5.5,0,0,0-.07-.18.31.31,0,0,0-.13-.11.5.5,0,0,0-.21,0,.45.45,0,0,0-.19,0,.49.49,0,0,0-.17.13.66.66,0,0,0-.12.22,1,1,0,0,0,0,.31v.92h-.26V32.3s0-.11,0-.19,0-.15,0-.21h.25s0,.1,0,.16,0,.11,0,.15h0A.61.61,0,0,1,81.17,32Z"/><path class="cls-1" d="M85.68,33.69s0-.1,0-.16,0-.11,0-.15h0a.59.59,0,0,1-.25.25.73.73,0,0,1-.36.1.63.63,0,0,1-.51-.2.8.8,0,0,1-.17-.54V31.9h.26v1a1.31,1.31,0,0,0,0,.26.53.53,0,0,0,.08.2.37.37,0,0,0,.15.13.53.53,0,0,0,.24,0,.5.5,0,0,0,.2,0,.49.49,0,0,0,.17-.13.64.64,0,0,0,.12-.22,1,1,0,0,0,0-.31V31.9h.26v1.4s0,.11,0,.19,0,.15,0,.21Z"/><path class="cls-1" d="M87.16,31.9s0,.1,0,.16,0,.11,0,.15h0a.59.59,0,0,1,.25-.25.72.72,0,0,1,.36-.1.63.63,0,0,1,.51.2.8.8,0,0,1,.17.54v1.1h-.26v-1a1.31,1.31,0,0,0,0-.26.54.54,0,0,0-.08-.2.37.37,0,0,0-.15-.13.53.53,0,0,0-.24,0,.5.5,0,0,0-.2,0,.49.49,0,0,0-.17.13.64.64,0,0,0-.12.22,1,1,0,0,0,0,.31v.92h-.26V32.3s0-.11,0-.19,0-.15,0-.21Z"/><path class="cls-1" d="M89.79,31.21a.17.17,0,0,1-.06.13.18.18,0,0,1-.25,0,.18.18,0,0,1,0-.26.18.18,0,0,1,.25,0A.17.17,0,0,1,89.79,31.21Zm-.05,2.48h-.26V31.9h.26Z"/><path class="cls-1" d="M92,32.31a.49.49,0,0,0-.19-.17.56.56,0,0,0-.27-.07.7.7,0,0,0-.28.06.64.64,0,0,0-.22.15.67.67,0,0,0-.14.23.83.83,0,0,0,0,.28.81.81,0,0,0,0,.28.69.69,0,0,0,.14.23.62.62,0,0,0,.21.15.7.7,0,0,0,.28.06.57.57,0,0,0,.49-.23l.19.15a.85.85,0,0,1-.28.23.88.88,0,0,1-.4.08,1,1,0,0,1-.39-.07.87.87,0,0,1-.3-.2.89.89,0,0,1-.19-.3,1.06,1.06,0,0,1,0-.75.89.89,0,0,1,.19-.3.87.87,0,0,1,.3-.2,1,1,0,0,1,.39-.07.93.93,0,0,1,.37.08.71.71,0,0,1,.3.23Z"/><path class="cls-1" d="M94.12,32.53a.45.45,0,0,0-.12-.35.5.5,0,0,0-.36-.11.77.77,0,0,0-.3.06.71.71,0,0,0-.23.15L93,32.11a.86.86,0,0,1,.29-.18,1.1,1.1,0,0,1,.41-.07.89.89,0,0,1,.27,0,.64.64,0,0,1,.22.12.54.54,0,0,1,.15.2.71.71,0,0,1,.05.29v.78q0,.1,0,.21a1.48,1.48,0,0,0,0,.19h-.23s0-.09,0-.14a1.48,1.48,0,0,1,0-.15h0a.75.75,0,0,1-.28.26.82.82,0,0,1-.37.08l-.21,0a.59.59,0,0,1-.2-.09.53.53,0,0,1-.15-.17.5.5,0,0,1-.06-.25.48.48,0,0,1,.11-.33.63.63,0,0,1,.28-.18,1.66,1.66,0,0,1,.4-.08l.47,0ZM94,32.8h-.32a1.41,1.41,0,0,0-.29.05.56.56,0,0,0-.22.12.26.26,0,0,0-.08.2.32.32,0,0,0,0,.16.3.3,0,0,0,.1.11l.14.06.15,0a.59.59,0,0,0,.24,0,.52.52,0,0,0,.18-.13.58.58,0,0,0,.11-.19.66.66,0,0,0,0-.23V32.8Z"/><path class="cls-1" d="M96.64,32.31a.5.5,0,0,0-.19-.17.56.56,0,0,0-.27-.07.69.69,0,0,0-.28.06.64.64,0,0,0-.22.15.67.67,0,0,0-.14.23.83.83,0,0,0,0,.28.81.81,0,0,0,0,.28.69.69,0,0,0,.14.23.62.62,0,0,0,.21.15.7.7,0,0,0,.28.06.57.57,0,0,0,.49-.23l.19.15a.85.85,0,0,1-.28.23.88.88,0,0,1-.4.08,1,1,0,0,1-.39-.07.87.87,0,0,1-.3-.2.89.89,0,0,1-.19-.3,1.05,1.05,0,0,1,0-.75.89.89,0,0,1,.19-.3.87.87,0,0,1,.3-.2,1,1,0,0,1,.39-.07.93.93,0,0,1,.36.08.72.72,0,0,1,.3.23Z"/><path class="cls-1" d="M97.91,31.21a.17.17,0,0,1-.06.13.18.18,0,0,1-.25,0,.18.18,0,0,1,0-.26.18.18,0,0,1,.25,0A.17.17,0,0,1,97.91,31.21Zm-.05,2.48H97.6V31.9h.26Z"/><path class="cls-1" d="M100.65,32.8a1,1,0,0,1-.07.37.9.9,0,0,1-.2.3.89.89,0,0,1-.3.2,1.08,1.08,0,0,1-.77,0,.89.89,0,0,1-.3-.2.9.9,0,0,1-.2-.3,1,1,0,0,1,0-.75.88.88,0,0,1,.5-.49,1.08,1.08,0,0,1,.77,0,.89.89,0,0,1,.3.2.9.9,0,0,1,.2.3A1,1,0,0,1,100.65,32.8Zm-.28,0a.82.82,0,0,0,0-.28.69.69,0,0,0-.14-.23.64.64,0,0,0-.21-.15.68.68,0,0,0-.28-.06.66.66,0,0,0-.28.06.65.65,0,0,0-.21.15.69.69,0,0,0-.14.23.85.85,0,0,0,0,.56.69.69,0,0,0,.14.23.62.62,0,0,0,.21.15.68.68,0,0,0,.28.06.7.7,0,0,0,.28-.06.62.62,0,0,0,.21-.15.69.69,0,0,0,.14-.23A.82.82,0,0,0,100.38,32.8Zm-.61-1.26h-.23l.38-.55h.35Z"/><path class="cls-1" d="M101.77,31.9s0,.1,0,.16,0,.11,0,.15h0A.59.59,0,0,1,102,32a.72.72,0,0,1,.36-.1.63.63,0,0,1,.51.2.8.8,0,0,1,.17.54v1.1h-.26v-1a1.31,1.31,0,0,0,0-.26.54.54,0,0,0-.08-.2.37.37,0,0,0-.15-.13.53.53,0,0,0-.24,0,.5.5,0,0,0-.2,0,.49.49,0,0,0-.17.13.64.64,0,0,0-.12.22,1,1,0,0,0,0,.31v.92h-.26V32.3s0-.11,0-.19,0-.15,0-.21Z"/><path class="cls-1" d="M42.62,16.71,41.14,13H35.4l-1.49,3.75H32.12L37.5,3.16h1.9l5.29,13.55Zm-2-5.18L38.28,5.68,36,11.53Z"/><path class="cls-1" d="M57.71,16.34a15.92,15.92,0,0,1-4.29.7,6.47,6.47,0,0,1-5-1.84,7.42,7.42,0,0,1-1.73-5.27,7.38,7.38,0,0,1,1.75-5.24,6.39,6.39,0,0,1,4.91-1.87,16.24,16.24,0,0,1,4.3.61V5.21a14.63,14.63,0,0,0-4.29-1A4.15,4.15,0,0,0,50,5.75,6.5,6.5,0,0,0,48.78,10a6.13,6.13,0,0,0,1.3,4.17,4.58,4.58,0,0,0,3.64,1.49,7.19,7.19,0,0,0,2.08-.34V10.86h1.91Z"/><path class="cls-1" d="M62,16.71V3.16h7.57V4.6H63.89V8.94h4.73v1.42H63.89v4.91h6v1.44Z"/><path class="cls-1" d="M76.23,16.71V4.6H71.42V3.16H83V4.6H78.15V16.71Z"/><path class="cls-1" d="M85.74,16.71V3.16h1.92V16.71Z"/><path class="cls-1" d="M97.83,17A6.33,6.33,0,0,1,93,15.19a7.43,7.43,0,0,1-1.72-5.25A7.38,7.38,0,0,1,93,4.69a6.44,6.44,0,0,1,4.94-1.87,18.38,18.38,0,0,1,4.27.6v1.8a14.36,14.36,0,0,0-4.29-1,4.14,4.14,0,0,0-3.42,1.49A6.53,6.53,0,0,0,93.27,10,6.05,6.05,0,0,0,94.56,14a4.41,4.41,0,0,0,3.52,1.5,8.76,8.76,0,0,0,4.12-1.18V16A9.4,9.4,0,0,1,97.83,17Z"/><ellipse class="cls-1" cx="8.91" cy="16.41" rx="0.53" ry="0.52" transform="translate(-9.31 20.48) rotate(-74.08)"/><ellipse class="cls-1" cx="7.6" cy="16.03" rx="0.53" ry="0.52" transform="translate(-9.9 18.96) rotate(-74.12)"/><ellipse class="cls-1" cx="10.33" cy="16.42" rx="0.53" ry="0.52" transform="translate(-8.3 21.84) rotate(-74.05)"/><ellipse class="cls-1" cx="11.61" cy="16.11" rx="0.42" ry="0.44" transform="translate(-7.07 22.85) rotate(-74.07)"/><ellipse class="cls-1" cx="6.59" cy="15.37" rx="0.42" ry="0.44" transform="translate(-10 17.48) rotate(-74.04)"/><ellipse class="cls-1" cx="5.84" cy="14.69" rx="0.34" ry="0.36" transform="translate(-9.89 16.25) rotate(-74.01)"/><ellipse class="cls-1" cx="12.47" cy="15.62" rx="0.34" ry="0.36" transform="translate(-5.96 23.35) rotate(-74.15)"/><ellipse class="cls-1" cx="5.36" cy="13.97" rx="0.28" ry="0.27" transform="translate(-9.55 15.29) rotate(-74.07)"/><ellipse class="cls-1" cx="13.28" cy="14.91" rx="0.28" ry="0.27" transform="translate(-4.7 23.6) rotate(-74.11)"/><ellipse class="cls-1" cx="5.13" cy="13.29" rx="0.23" ry="0.24" transform="translate(-9.06 14.6) rotate(-74.17)"/><ellipse class="cls-1" cx="4.95" cy="12.68" rx="0.19" ry="0.2" transform="translate(-8.6 14) rotate(-74.2)"/><ellipse class="cls-1" cx="13.6" cy="14.13" rx="0.19" ry="0.2" transform="translate(-3.72 23.33) rotate(-74.06)"/><ellipse class="cls-2" cx="1.02" cy="14.36" rx="0.71" ry="0.72"/><ellipse class="cls-2" cx="0.71" cy="12.24" rx="0.71" ry="0.72"/><ellipse class="cls-2" cx="1.93" cy="16.18" rx="0.71" ry="0.72"/><ellipse class="cls-2" cx="3.04" cy="17.59" rx="0.61" ry="0.61"/><ellipse class="cls-2" cx="1.28" cy="10.31" rx="0.61" ry="0.61"/><ellipse class="cls-2" cx="4.2" cy="18.75" rx="0.55" ry="0.56"/><ellipse class="cls-2" cx="1.83" cy="8.74" rx="0.55" ry="0.56"/><ellipse class="cls-2" cx="5.78" cy="19.38" rx="0.5" ry="0.51"/><ellipse class="cls-2" cx="2.69" cy="7.65" rx="0.5" ry="0.51"/><ellipse class="cls-2" cx="7.32" cy="19.73" rx="0.35" ry="0.37"/><ellipse class="cls-2" cx="3.38" cy="6.54" rx="0.35" ry="0.37"/><ellipse class="cls-2" cx="8.55" cy="19.78" rx="0.3" ry="0.32"/><ellipse class="cls-2" cx="4.18" cy="5.95" rx="0.26" ry="0.28"/><ellipse class="cls-2" cx="4.91" cy="5.46" rx="0.26" ry="0.28"/><ellipse class="cls-3" cx="5.14" cy="16.46" rx="0.59" ry="0.6" transform="translate(-7.86 5.13) rotate(-31.6)"/><ellipse class="cls-3" cx="4" cy="15.09" rx="0.59" ry="0.6" transform="translate(-7.3 4.32) rotate(-31.53)"/><ellipse class="cls-3" cx="6.57" cy="17.35" rx="0.59" ry="0.6" transform="translate(-8.11 6) rotate(-31.57)"/><ellipse class="cls-3" cx="7.96" cy="17.86" rx="0.5" ry="0.51" transform="matrix(0.85, -0.52, 0.52, 0.85, -8.17, 6.8)"/><ellipse class="cls-3" cx="3.49" cy="13.83" rx="0.5" ry="0.51" transform="translate(-6.71 3.87) rotate(-31.5)"/><ellipse class="cls-3" cx="9.28" cy="18.17" rx="0.46" ry="0.46" transform="translate(-8.16 7.57) rotate(-31.65)"/><ellipse class="cls-3" cx="3.2" cy="12.49" rx="0.46" ry="0.46" transform="translate(-6.07 3.53) rotate(-31.59)"/><ellipse class="cls-3" cx="10.89" cy="18.01" rx="0.41" ry="0.42" transform="translate(-7.83 8.39) rotate(-31.63)"/><ellipse class="cls-3" cx="3.26" cy="11.22" rx="0.41" ry="0.42" transform="translate(-5.4 3.37) rotate(-31.58)"/><ellipse class="cls-3" cx="11.92" cy="17.54" rx="0.29" ry="0.31" transform="translate(-7.43 8.85) rotate(-31.62)"/><ellipse class="cls-3" cx="3.68" cy="10.24" rx="0.29" ry="0.31" transform="translate(-4.81 3.44) rotate(-31.52)"/><ellipse class="cls-3" cx="4.07" cy="9.61" rx="0.21" ry="0.23" transform="translate(-4.44 3.57) rotate(-31.7)"/><ellipse class="cls-3" cx="4.58" cy="9" rx="0.21" ry="0.23" transform="translate(-4.04 3.74) rotate(-31.65)"/><ellipse class="cls-1" cx="21.84" cy="13.83" rx="1.28" ry="1.29" transform="translate(5.87 34.15) rotate(-84.2)"/><ellipse class="cls-1" cx="21.5" cy="17.15" rx="1.28" ry="1.29" transform="translate(2.27 36.81) rotate(-84.21)"/><ellipse class="cls-1" cx="21.3" cy="10.11" rx="1.28" ry="1.29" transform="translate(9.08 30.27) rotate(-84.17)"/><ellipse class="cls-1" cx="19.69" cy="6.52" rx="1.2" ry="1.15" transform="translate(11.22 25.45) rotate(-84.23)"/><ellipse class="cls-1" cx="20.9" cy="19.89" rx="1.08" ry="1.03" transform="translate(-1 38.66) rotate(-84.19)"/><ellipse class="cls-1" cx="20.3" cy="22" rx="0.88" ry="0.83" transform="translate(-3.64 39.97) rotate(-84.19)"/><ellipse class="cls-1" cx="15.24" cy="2.08" rx="0.88" ry="0.83" transform="translate(11.63 17.04) rotate(-84.23)"/><ellipse class="cls-1" cx="19.46" cy="23.67" rx="0.67" ry="0.68" transform="translate(-6.04 40.66) rotate(-84.25)"/><ellipse class="cls-1" cx="11.25" cy="0.85" rx="0.67" ry="0.68" transform="translate(9.26 11.96) rotate(-84.19)"/><ellipse class="cls-1" cx="18.76" cy="25.21" rx="0.58" ry="0.57" transform="translate(-8.22 41.32) rotate(-84.19)"/><ellipse class="cls-1" cx="17.91" cy="26.45" rx="0.5" ry="0.47" transform="translate(-10.21 41.59) rotate(-84.19)"/><ellipse class="cls-1" cx="4.22" cy="1.79" rx="0.5" ry="0.47" transform="translate(2.01 5.81) rotate(-84.2)"/><ellipse class="cls-3" cx="18.7" cy="15.05" rx="0.71" ry="0.72"/><ellipse class="cls-3" cx="18.42" cy="16.89" rx="0.55" ry="0.56"/><ellipse class="cls-1" cx="7.58" cy="0.77" rx="0.66" ry="0.65" transform="translate(4.79 7.86) rotate(-74.31)"/><ellipse class="cls-1" cx="17.05" cy="27.57" rx="0.5" ry="0.47" transform="translate(-12.11 41.73) rotate(-84.18)"/><ellipse class="cls-1" cx="16.04" cy="28.65" rx="0.37" ry="0.35" transform="translate(-14.09 41.69) rotate(-84.16)"/><ellipse class="cls-1" cx="15.07" cy="29.45" rx="0.28" ry="0.26" transform="translate(-15.73 41.52) rotate(-84.29)"/><ellipse class="cls-1" cx="17.21" cy="3.82" rx="1.2" ry="1.15" transform="matrix(0.1, -0.99, 0.99, 0.1, 11.66, 20.56)"/><ellipse class="cls-1" cx="13.19" cy="1.27" rx="0.88" ry="0.83" transform="translate(10.6 14.26) rotate(-84.23)"/><ellipse class="cls-1" cx="9.44" cy="0.67" rx="0.67" ry="0.68" transform="translate(7.82 9.99) rotate(-84.19)"/><ellipse class="cls-1" cx="5.71" cy="1.19" rx="0.66" ry="0.65" transform="translate(3.02 6.36) rotate(-74.34)"/><ellipse class="cls-3" cx="18.37" cy="10.91" rx="0.88" ry="0.94"/><ellipse class="cls-3" cx="18.63" cy="13.09" rx="0.83" ry="0.88"/><ellipse class="cls-3" cx="14.18" cy="4.66" rx="0.71" ry="0.72"/><ellipse class="cls-3" cx="18.18" cy="18.41" rx="0.55" ry="0.56"/><ellipse class="cls-3" cx="17.77" cy="19.76" rx="0.5" ry="0.51"/><circle class="cls-3" cx="17.27" cy="21.08" r="0.37"/><ellipse class="cls-3" cx="15.6" cy="6.23" rx="0.88" ry="0.94"/><ellipse class="cls-3" cx="17.21" cy="8.32" rx="1.15" ry="1.2"/><ellipse class="cls-3" cx="12.68" cy="3.7" rx="0.55" ry="0.56"/><ellipse class="cls-3" cx="11.34" cy="3.17" rx="0.5" ry="0.51"/><ellipse class="cls-3" cx="10.13" cy="2.91" rx="0.37" ry="0.37"/><ellipse class="cls-3" cx="8.84" cy="2.87" rx="0.31" ry="0.33"/><ellipse class="cls-1" cx="2.7" cy="2.56" rx="0.5" ry="0.47" transform="translate(-0.12 4.98) rotate(-84.14)"/><ellipse class="cls-1" cx="1.51" cy="3.45" rx="0.37" ry="0.35" transform="translate(-2.08 4.61) rotate(-84.18)"/><ellipse class="cls-1" cx="0.55" cy="4.62" rx="0.28" ry="0.26" transform="translate(-4.11 4.69) rotate(-84.09)"/><circle class="cls-3" cx="16.72" cy="22" r="0.23"/><circle class="cls-3" cx="7.75" cy="3.15" r="0.23"/><ellipse class="cls-2" cx="9.63" cy="19.66" rx="0.28" ry="0.29" transform="translate(-11.92 23.53) rotate(-74.07)"/><ellipse class="cls-2" cx="10.53" cy="19.42" rx="0.22" ry="0.23" transform="translate(-11.04 24.21) rotate(-74.05)"/><ellipse class="cls-2" cx="15.93" cy="14.04" rx="0.6" ry="0.6" transform="translate(-2.59 3.66) rotate(-12.13)"/><ellipse class="cls-2" cx="15.75" cy="12.12" rx="0.78" ry="0.73" transform="translate(3.43 27.71) rotate(-89.26)"/><ellipse class="cls-2" cx="12.66" cy="6.94" rx="0.63" ry="0.62" transform="translate(5.56 19.52) rotate(-89.26)"/><ellipse class="cls-2" cx="15.91" cy="15.67" rx="0.52" ry="0.52" transform="translate(-2.93 3.69) rotate(-12.11)"/><ellipse class="cls-2" cx="15.63" cy="17.14" rx="0.38" ry="0.38" transform="translate(-3.25 3.66) rotate(-12.12)"/><circle class="cls-2" cx="15.21" cy="18.19" r="0.28" transform="translate(-3.48 3.6) rotate(-12.13)"/><ellipse class="cls-2" cx="13.89" cy="8.39" rx="0.74" ry="0.75" transform="translate(5.32 22.17) rotate(-89.26)"/><ellipse class="cls-2" cx="15.05" cy="10.03" rx="0.86" ry="0.82" transform="matrix(0.01, -1, 1, 0.01, 4.83, 24.94)"/><ellipse class="cls-2" cx="11.26" cy="6.23" rx="0.45" ry="0.45" transform="translate(4.88 17.41) rotate(-89.27)"/><ellipse class="cls-2" cx="9.92" cy="5.83" rx="0.38" ry="0.38" transform="translate(3.96 15.67) rotate(-89.26)"/><ellipse class="cls-2" cx="8.68" cy="5.75" rx="0.28" ry="0.26" transform="translate(2.82 14.36) rotate(-89.27)"/></g></g></svg>