<svg xmlns="http://www.w3.org/2000/svg" viewBox="0 0 2227.59 1598.03"><defs><style>.cls-1{fill:#075da7;}.cls-2{fill:#01509a;}.cls-3{fill:#0970b4;}</style></defs><title>Recurso 50-vector</title><g id="Capa_2" data-name="Capa 2"><g id="Capa_1-2" data-name="Capa 1"><polygon class="cls-1" points="2.51 0 0 4.7 5.45 4.7 2.51 0"/><polygon class="cls-1" points="564.9 4.7 564.9 4.7 564.91 4.7 564.9 4.7"/><polygon class="cls-1" points="1859.34 4.69 1859.33 4.7 1859.34 4.7 1859.34 4.69"/><path class="cls-1" d="M398.12,1598l.08,0h-.06Z"/><polygon class="cls-1" points="2003.86 819.14 2003.87 819.14 2003.86 819.14 2003.86 819.14"/><polygon class="cls-1" points="1263.27 772.57 1263.27 772.58 1263.29 772.58 1263.27 772.57"/><path class="cls-2" d="M1485.3,450.19l518.56,368.94c-18.14-62.69-37.73-125.78-56.69-188.86h0Z"/><polygon class="cls-1" points="2003.87 819.14 2003.86 819.13 2003.86 819.14 2003.87 819.14"/><path class="cls-3" d="M1485.26,450.21c70.17,154.34,118.22,321.59,124.29,495.43h0l394.3-126.51h0L1485.3,450.19Z"/><path class="cls-2" d="M1609.55,945.66l-370.64,196.94,364.72-43.15A1040.52,1040.52,0,0,0,1609.55,945.66Z"/><path class="cls-2" d="M1263.27,772.58,541.64,1001.66l697.27,140.93C1307.93,973.62,1306.22,859.65,1263.27,772.58Z"/><polygon class="cls-1" points="1263.27 772.58 1263.27 772.58 1263.29 772.58 1263.27 772.58"/><path class="cls-1" d="M1609.55,945.64,1263.29,772.58h0c42.95,87.07,44.66,201-24.36,370h0l370.64-196.94Z"/><path class="cls-1" d="M1609.56,945.65h0a1040.52,1040.52,0,0,1-5.92,153.79h0l400.22-280.3h0Z"/><path class="cls-2" d="M1098.81,602.83c-150.73-104.16-352.27-194.91-465.45-405h0L333.79,477Z"/><path class="cls-1" d="M633.36,197.82,194.84,307.57h0c49.42,53,96.38,109.56,138.93,169.38h0Z"/><path class="cls-1" d="M1098.81,602.83h0l300.51-318.37-766-86.64C746.54,407.92,948.08,498.67,1098.81,602.83Z"/><path class="cls-2" d="M1263.27,772.58h0L333.79,477h0c88.65,124.63,158.16,263.58,191,415.12l0,0Z"/><path class="cls-1" d="M1947.16,630.26h0c-50-166.43-95.51-332.81-97.54-491.73h0L1485.3,450.19Z"/><polygon class="cls-1" points="1947.16 630.26 1947.16 630.26 1947.16 630.26 1947.16 630.26"/><polygon class="cls-1" points="1947.17 630.27 1947.16 630.26 1947.16 630.26 1947.17 630.27"/><path class="cls-3" d="M1485.26,450.21a1857.39,1857.39,0,0,0-85.94-165.74h0L1098.82,602.83Z"/><path class="cls-2" d="M1485.3,450.19l364.3-311.67L1399.33,284.46a1857.39,1857.39,0,0,1,85.94,165.74Z"/><path class="cls-1" d="M544.16,1128.39l1.23-.35-1.21-.16Z"/><polygon class="cls-1" points="1137.47 1344.38 1137.48 1344.38 1137.47 1344.38 1137.47 1344.38"/><path class="cls-1" d="M544.13,1129.13l1.27-1.09-1.23.35C544.16,1128.64,544.15,1128.88,544.13,1129.13Z"/><polygon class="cls-1" points="524.73 892.09 524.73 892.11 524.77 892.12 524.73 892.09"/><path class="cls-2" d="M1609.55,945.64h0L1098.82,602.83h0c70.91,49,130.54,101,164.46,169.74h0Z"/><path class="cls-1" d="M2051.83,1437.25h.05l0,0Z"/><polygon class="cls-2" points="2227.59 1115.09 2227.59 932.73 2079.73 1228.51 2227.59 1115.09"/><polygon class="cls-1" points="2227.59 1598 2227.59 1343.45 1970.74 1598 2227.59 1598"/><path class="cls-2" d="M0,467.78,333.76,477c-42.55-59.83-89.52-116.35-138.93-169.38Z"/><polygon class="cls-1" points="2051.89 1437.24 2051.84 1437.21 2051.84 1437.23 2051.89 1437.24"/><path class="cls-1" d="M1570.25,1266.11l.09-.05h-.08A.06.06,0,0,0,1570.25,1266.11Z"/><path class="cls-1" d="M1485.26,450.21,1098.82,602.83l510.74,342.81C1603.48,771.8,1555.43,604.55,1485.26,450.21Z"/><path class="cls-1" d="M1609.55,945.66h0Z"/><polygon class="cls-1" points="1609.56 945.65 1609.55 945.64 1609.55 945.64 1609.56 945.65"/><path class="cls-1" d="M1098.81,602.83,333.79,477l929.48,295.6C1229.35,703.81,1169.71,651.83,1098.81,602.83Z"/><path class="cls-1" d="M1137.47,1344.38c43.58-75,77-141.86,101.44-201.78L541.64,1001.66Z"/><polygon class="cls-1" points="194.82 307.57 194.83 307.58 194.84 307.57 194.82 307.57"/><path class="cls-3" d="M564.91,4.7c15,74.25,38.66,137.83,68.45,193.12l766,86.64Z"/><polygon class="cls-2" points="6.73 6.75 194.84 307.57 633.36 197.82 6.73 6.75"/><path class="cls-1" d="M1570.26,1266a1011.81,1011.81,0,0,0,33.37-166.59l-364.72,43.15Z"/><path class="cls-3" d="M0,1598H398.14c94-164.94,138.43-321.65,146-468.87Z"/><path class="cls-1" d="M333.76,477,0,467.78H0L524.73,892.09C491.93,740.54,422.42,601.59,333.76,477Z"/><path class="cls-3" d="M544.19,1127.88,0,1054.8v229.78l544.16-156.18Z"/><polygon class="cls-2" points="524.73 892.09 0 467.78 0 794.86 524.73 892.11 524.73 892.09"/><path class="cls-2" d="M524.74,892.13,0,1054.8l541.58-53.13A912.34,912.34,0,0,0,524.74,892.13Z"/><polygon class="cls-1" points="5.45 4.7 0 4.7 6.73 6.75 5.45 4.7"/><path class="cls-1" d="M524.73,892.11,0,794.86V1054.8L524.74,892.13Z"/><path class="cls-1" d="M0,123.93V285.75l194.82,21.82C132.48,240.68,66.24,179.33,0,123.93Z"/><path class="cls-1" d="M194.84,307.57,6.73,6.75,0,4.7V123.93c66.24,55.4,132.48,116.75,194.82,183.64Z"/><polygon class="cls-1" points="194.83 307.58 194.82 307.57 0 285.75 0 467.78 0 467.78 194.83 307.58"/><polygon class="cls-1" points="0 467.78 0 467.78 0 467.78 0 467.78"/><path class="cls-1" d="M541.58,1001.67,0,1054.8l544.19,73.08A892,892,0,0,0,541.58,1001.67Z"/><path class="cls-3" d="M1409.44,1598h561.22a552.29,552.29,0,0,0,81.18-160.75Z"/><path class="cls-1" d="M2051.84,1437.23l-481.51-171.16-.09.05c-31.79,110.09-83.83,221.2-160.83,331.89h0l642.4-160.75Z"/><path class="cls-2" d="M2051.83,1437.25A552.29,552.29,0,0,1,1970.66,1598h.09l256.85-254.55-175.71,93.79Z"/><path class="cls-1" d="M2079.69,1228.5c1.21,71.75-6.81,141.56-27.85,208.71l0,0,175.71-93.79-147.87-114.94Z"/><polygon class="cls-3" points="2079.73 1228.51 2227.59 1343.45 2227.59 1115.09 2079.73 1228.51"/><path class="cls-1" d="M544.16,1128.39,0,1284.57V1598l544.13-468.87C544.15,1128.88,544.16,1128.64,544.16,1128.39Z"/><path class="cls-1" d="M1137.47,1344.38,545.4,1128l-1.27,1.09c-7.56,147.23-52,303.93-146,468.87h.06l739.26-253.62Z"/><path class="cls-3" d="M398.2,1598H972.79c66.18-93.71,120.67-177.86,164.68-253.62Z"/><path class="cls-1" d="M1570.26,1266.08l-432.77,78.3h0c-44,75.76-98.49,159.9-164.68,253.62h0l597.42-331.89A.06.06,0,0,1,1570.26,1266.08Z"/><path class="cls-3" d="M972.82,1598h436.6c77-110.68,129-221.8,160.83-331.89Z"/><path class="cls-1" d="M1399.33,284.46h0C1340.13,182.83,1273.58,88.85,1206.65,4.7H564.91Z"/><path class="cls-1" d="M2051.84,1437.21c21-67.15,29.06-137,27.85-208.71l-476.05-129.05Z"/><path class="cls-2" d="M1603.63,1099.45A1011.81,1011.81,0,0,1,1570.26,1266l.07,0,481.51,171.16h0l-448.2-337.77Z"/><path class="cls-1" d="M2003.86,819.14c40.49,139.94,73.61,277.89,75.83,409.36h0l147.87-295.78L2003.87,819.14Z"/><path class="cls-3" d="M1603.64,1099.45l476.05,129.05c-2.23-131.47-35.34-269.42-75.83-409.36Z"/><path class="cls-1" d="M1570.26,1266.08h.08l-.07,0S1570.26,1266.06,1570.26,1266.08Z"/><path class="cls-1" d="M2003.86,819.13h0l223.73,113.59L1947.17,630.27C1966.12,693.35,1985.72,756.44,2003.86,819.13Z"/><path class="cls-1" d="M1263.27,772.58h0L524.77,892.12h0a912.34,912.34,0,0,1,16.84,109.54h.06Z"/><path class="cls-2" d="M541.64,1001.66h-.06a892,892,0,0,1,2.61,126.21l1.21.16,592.08,216.34h0Z"/><path class="cls-2" d="M1238.91,1142.59h0c-24.48,59.93-57.86,126.78-101.44,201.78h0l432.77-78.3s0,0,0,0Z"/><polygon class="cls-1" points="1137.47 1344.38 1137.48 1344.38 1137.47 1344.38 1137.47 1344.38"/><polygon class="cls-1" points="2227.59 343.92 2227.59 4.7 1859.34 4.7 1859.34 4.71 2227.59 343.92"/><path class="cls-2" d="M1849.62,138.53C1849,93.26,1852,48.6,1859.34,4.71H1206.67L1849.6,138.52Z"/><path class="cls-3" d="M1849.6,138.52,1206.67,4.7h0c66.93,84.15,133.48,178.13,192.67,279.76Z"/><polygon class="cls-1" points="524.73 892.11 524.74 892.13 524.77 892.12 524.73 892.11"/><polygon class="cls-2" points="1947.17 630.27 2227.59 932.73 2227.59 570.83 1947.16 630.26 1947.17 630.27"/><polygon class="cls-1" points="564.91 4.7 564.9 4.7 564.91 4.7 564.91 4.7"/><polygon class="cls-1" points="1859.34 4.7 1859.33 4.7 1859.34 4.71 1859.34 4.7"/><path class="cls-2" d="M1947.16,630.26l280.43-286.33-378-205.39C1851.65,297.44,1897.13,463.82,1947.16,630.26Z"/><polygon class="cls-1" points="1947.16 630.26 2227.59 570.83 2227.59 343.92 1947.16 630.26 1947.16 630.26"/><path class="cls-1" d="M1849.62,138.53l378,205.39L1859.34,4.71C1852,48.6,1849,93.26,1849.62,138.53Z"/><path class="cls-1" d="M633.36,197.82h0C603.57,142.53,579.91,79,564.91,4.7H5.45L6.73,6.75Z"/></g></g></svg>