<svg xmlns="http://www.w3.org/2000/svg" viewBox="0 0 1682.48 510.89"><defs><style>.cls-1{fill:none;}.cls-2{fill:#075da7;}.cls-3{fill:#01509a;}.cls-4{fill:#0970b4;}</style></defs><title>Recurso 56-vector</title><g id="Capa_2" data-name="Capa 2"><g id="Capa_1-2" data-name="Capa 1"><polygon class="cls-1" points="386.65 476.24 386.65 476.24 115.35 320.19 386.65 476.24"/><polygon class="cls-2" points="1577.57 137.68 1577.57 137.67 1577.57 137.68 1577.57 137.68"/><polygon class="cls-2" points="836.98 91.11 837 91.11 836.97 91.1 836.98 91.11"/><path class="cls-3" d="M1536.36,0H1384.07l193.49,137.66C1564.34,91.94,1550.33,46,1536.36,0Z"/><polygon class="cls-2" points="1577.57 137.67 1577.57 137.66 1577.57 137.68 1577.57 137.67"/><path class="cls-4" d="M1183.27,264.18l394.3-126.51h0L1384.07,0H1142.73c22.95,85.7,37.38,174,40.52,264.17Z"/><path class="cls-3" d="M1183.26,264.19,864.81,433.4l313.89-28.12A1042.94,1042.94,0,0,0,1183.26,264.19Z"/><path class="cls-3" d="M837,91.12,115.35,320.19l618.25,125L822,437.23C881.38,281.3,877.87,174,837,91.12Z"/><polygon class="cls-2" points="836.98 91.12 837 91.11 836.98 91.11 836.98 91.12"/><path class="cls-2" d="M1183.26,264.18,837,91.11h0C877.87,174,881.38,281.3,822,437.23l42.76-3.83,318.45-169.21Z"/><path class="cls-2" d="M1577.57,137.67l-394.3,126.51h0a1042.94,1042.94,0,0,1-4.57,141.08l19.26-1.73,379.61-265.87Z"/><path class="cls-3" d="M98.48,210.65,837,91.11h0L550.52,0H27.15c31,67.14,55.44,137.41,71.29,210.62Z"/><path class="cls-2" d="M119.1,446.57l-1.21-.16,0,.51Z"/><path class="cls-2" d="M117.84,447.66l1.27-1.09-1.23.35C117.86,447.17,117.85,447.42,117.84,447.66Z"/><polygon class="cls-2" points="98.44 210.62 98.44 210.65 98.48 210.65 98.44 210.62"/><path class="cls-3" d="M837,91.11l346.26,173.06h0L789.68,0H769.79C797.27,27.39,820.25,57.21,837,91.1Z"/><path class="cls-2" d="M1142.73,0H789.68l393.58,264.17C1180.11,174,1165.68,85.7,1142.73,0Z"/><polygon class="cls-2" points="1183.26 264.19 1183.27 264.18 1183.26 264.18 1183.26 264.19"/><polygon class="cls-2" points="1183.26 264.18 1183.27 264.18 1183.26 264.17 1183.26 264.18"/><path class="cls-2" d="M769.79,0H550.52L837,91.1C820.25,57.21,797.27,27.39,769.79,0Z"/><polygon class="cls-2" points="386.65 476.24 733.59 445.15 115.35 320.19 386.65 476.24"/><path class="cls-4" d="M49.62,506.44l63.91-5.73q3-26.72,4.3-53.05Z"/><path class="cls-2" d="M27.15,0H0V131l98.44,79.6C82.59,137.41,58.15,67.14,27.15,0Z"/><path class="cls-4" d="M117.9,446.41,0,430.58v50.18l117.87-33.83Z"/><polygon class="cls-3" points="98.44 210.62 0 131.02 0 192.4 98.44 210.65 98.44 210.62"/><path class="cls-3" d="M98.45,210.66,0,241.18v90.33L115.29,320.2A912.39,912.39,0,0,0,98.45,210.66Z"/><path class="cls-2" d="M98.44,210.65,0,192.4v48.78l98.45-30.52Z"/><path class="cls-2" d="M115.29,320.2,0,331.51v99.07l117.9,15.83A892,892,0,0,0,115.29,320.2Z"/><path class="cls-2" d="M117.87,446.93,0,480.76v30.13l49.62-4.45,68.21-58.78C117.85,447.42,117.86,447.17,117.87,446.93Z"/><path class="cls-2" d="M117.84,447.66q-1.35,26.32-4.3,53.05L237,489.65,119.1,446.57Z"/><path class="cls-2" d="M1577.57,137.68c22.12,76.45,42,152.31,55.91,226.84l49-4.39V190.94l-104.91-53.26Z"/><path class="cls-4" d="M1198,403.55l435.52-39c-13.88-74.53-33.79-150.39-55.91-226.84Z"/><path class="cls-2" d="M1536.36,0c14,46,28,91.94,41.2,137.66h0l104.91,53.26V123.11L1568.34,0Z"/><path class="cls-2" d="M98.48,210.65h0A912.39,912.39,0,0,1,115.29,320.2h.06L837,91.12h0Z"/><path class="cls-3" d="M115.29,320.2a892,892,0,0,1,2.61,126.21l1.21.16L237,489.65l149.65-13.41-271.3-156Z"/><path class="cls-2" d="M98.44,210.65v0h0Z"/><polygon class="cls-3" points="1682.48 123.11 1682.48 0 1568.34 0 1682.48 123.11"/></g></g></svg>