<svg xmlns="http://www.w3.org/2000/svg" viewBox="0 0 1682.48 396.69"><defs><style>.cls-1{fill:none;}.cls-2{fill:#3a9142;}.cls-3{fill:#469835;}.cls-4{fill:#00865b;}.cls-5{fill:#399143;}</style></defs><title>Recurso 57-vector</title><g id="Capa_2" data-name="Capa 2"><g id="Capa_1-2" data-name="Capa 1"><polygon class="cls-1" points="742.03 342.98 742.03 342.98 396.13 118.65 742.03 342.98"/><path class="cls-2" d="M1235.2,69,1426,0H1230.85q3.23,34.29,4.35,69Z"/><path class="cls-2" d="M1235.19,69,944,243.5l286.56-38.22A1038.51,1038.51,0,0,0,1235.19,69Z"/><path class="cls-2" d="M944,243.5C980.46,142.81,991.79,64.17,985,0H727.63L396.13,118.65Z"/><path class="cls-3" d="M944,243.5h0L1235.19,69h0L1112.71,0H985C991.79,64.17,980.46,142.81,944,243.5Z"/><path class="cls-3" d="M1235.19,69a1038.51,1038.51,0,0,1-4.65,136.24h0L1490.5,0H1426L1235.2,69Z"/><path class="cls-2" d="M382.87,21.61,501.27,0H378.41q2.33,10.74,4.43,21.58Z"/><path class="cls-3" d="M399.08,230.61l-.95-.14,0,.46Z"/><path class="cls-3" d="M398.08,231.57l1-1-1,.31C398.1,231.14,398.1,231.35,398.08,231.57Z"/><polygon class="cls-3" points="382.84 21.58 382.84 21.6 382.87 21.61 382.84 21.58"/><polygon class="cls-3" points="1235.19 69.02 1143.99 0 1112.71 0 1235.19 69.02 1235.19 69.02"/><polygon class="cls-3" points="1653.92 276.97 1682.48 252.26 1682.48 143.99 1622.51 279.24 1653.92 276.97"/><path class="cls-3" d="M1230.85,0H1144l91.2,69Q1234.12,34.3,1230.85,0Z"/><polygon class="cls-3" points="1235.19 69.02 1235.19 69.04 1235.2 69.03 1235.19 69.02"/><polygon class="cls-3" points="1235.19 69.02 1235.19 69.02 1235.2 69.03 1235.19 69.02"/><path class="cls-3" d="M396.13,118.65,742,343l166.34-12q20.74-46.32,35.6-87.44Z"/><path class="cls-3" d="M944,243.5l172.33,72.38,98.25-7.11a995.6,995.6,0,0,0,16-103.49Z"/><path class="cls-2" d="M246.5,378.84l134.77-9.76a919.23,919.23,0,0,0,16.81-137.52Z"/><path class="cls-3" d="M378.41,0H359.17l23.67,21.58Q380.76,10.74,378.41,0Z"/><path class="cls-2" d="M398.13,230.46,0,170.18V359.75L398.11,230.92Z"/><polygon class="cls-4" points="382.84 21.58 359.17 0 279.46 0 382.84 21.6 382.84 21.58"/><path class="cls-5" d="M382.85,21.62,0,155.43v7l396.08-43.81A904.38,904.38,0,0,0,382.85,21.62Z"/><path class="cls-3" d="M382.84,21.6,279.46,0H0V155.43L382.85,21.62Z"/><path class="cls-3" d="M396.08,118.65,0,162.46v7.72l398.13,60.28A890.59,890.59,0,0,0,396.08,118.65Z"/><polygon class="cls-2" points="1682.48 274.9 1682.48 252.26 1653.92 276.97 1682.48 274.9"/><path class="cls-3" d="M398.11,230.92,0,359.75v36.94l246.5-17.84L398.08,231.57C398.1,231.35,398.1,231.14,398.11,230.92Z"/><path class="cls-3" d="M398.08,231.57a919.23,919.23,0,0,1-16.81,137.52L682.33,347.3,399.08,230.61Z"/><polygon class="cls-3" points="1341.54 299.58 1501.25 288.02 1230.55 205.28 1341.54 299.58"/><path class="cls-2" d="M1230.54,205.28a995.6,995.6,0,0,1-16,103.49l127-9.19-111-94.3Z"/><path class="cls-3" d="M1555.8,0c23.37,95.49,42,189.65,47.32,280.65l19.4-1.4,60-135.25V35.65L1620.2,0Z"/><path class="cls-2" d="M1490.5,0l-260,205.28L1501.25,288l101.87-7.37c-5.34-91-23.95-185.15-47.32-280.65Z"/><polygon class="cls-2" points="1620.2 0 1682.48 35.65 1682.48 10.99 1673.44 0 1620.2 0"/><path class="cls-3" d="M382.85,21.62a904.38,904.38,0,0,1,13.23,97h0L727.63,0H501.27L382.87,21.61Z"/><path class="cls-5" d="M396.08,118.65a890.59,890.59,0,0,1,2.05,111.81l.95.14L682.33,347.3,742,343,396.13,118.65Z"/><path class="cls-5" d="M944,243.5q-14.92,41.17-35.6,87.44l207.93-15.05L944,243.5Z"/><path class="cls-3" d="M382.84,21.6h0Z"/><polygon class="cls-3" points="1682.48 10.99 1682.48 0 1673.44 0 1682.48 10.99"/></g></g></svg>