<svg xmlns="http://www.w3.org/2000/svg" viewBox="0 0 1750.24 1415.66"><defs><style>.cls-1{fill:#469835;}.cls-2{fill:#3a9142;}.cls-3{fill:#00865b;}.cls-4{fill:#399143;}</style></defs><title>Recurso 52-vector</title><g id="Capa_2" data-name="Capa 2"><g id="Capa_1-2" data-name="Capa 1"><polygon class="cls-1" points="1.97 0 0 4.16 4.28 4.16 1.97 0"/><polygon class="cls-1" points="443.85 4.16 443.85 4.16 443.86 4.16 443.85 4.16"/><polygon class="cls-1" points="1460.9 4.16 1460.89 4.16 1460.9 4.16 1460.9 4.16"/><path class="cls-1" d="M312.81,1415.66l.06,0h0Z"/><polygon class="cls-1" points="1574.45 725.66 1574.46 725.66 1574.45 725.66 1574.45 725.66"/><polygon class="cls-1" points="992.56 684.4 992.57 684.41 992.58 684.41 992.56 684.4"/><path class="cls-1" d="M1167,398.82l407.44,326.84c-14.25-55.54-29.65-111.43-44.54-167.31h0Z"/><polygon class="cls-1" points="1574.46 725.66 1574.45 725.65 1574.45 725.66 1574.46 725.66"/><path class="cls-2" d="M1167,398.83c55.13,136.73,92.89,284.89,97.66,438.9h0l309.8-112.07h0L1167,398.82Z"/><path class="cls-2" d="M1264.64,837.74,973.42,1012.2,1260,974A1038.51,1038.51,0,0,0,1264.64,837.74Z"/><path class="cls-2" d="M992.57,684.42l-567,202.94L973.42,1012.2C1027.65,862.51,1026.31,761.55,992.57,684.42Z"/><polygon class="cls-1" points="992.57 684.41 992.57 684.42 992.58 684.41 992.57 684.41"/><path class="cls-1" d="M1264.64,837.73,992.58,684.41h0c33.74,77.13,35.09,178.1-19.14,327.78h0l291.22-174.46Z"/><path class="cls-1" d="M1264.65,837.73h0A1038.51,1038.51,0,0,1,1260,974h0l314.45-248.31h0Z"/><path class="cls-2" d="M863.34,534C744.91,441.76,586.56,361.36,497.63,175.25h0L262.26,422.53Z"/><path class="cls-1" d="M497.63,175.25,153.09,272.47h0A1454,1454,0,0,1,262.24,422.53h0Z"/><path class="cls-1" d="M863.34,534h0l236.11-282L497.63,175.25C586.56,361.36,744.91,441.76,863.34,534Z"/><path class="cls-2" d="M992.57,684.41h0L262.26,422.53h0c69.65,110.4,124.27,233.5,150,367.75l0,0Z"/><path class="cls-2" d="M1529.9,558.34h0c-39.31-147.44-75-294.83-76.64-435.61h0L1167,398.82Z"/><polygon class="cls-1" points="1529.9 558.34 1529.9 558.33 1529.9 558.34 1529.9 558.34"/><polygon class="cls-1" points="1529.91 558.34 1529.9 558.34 1529.9 558.34 1529.91 558.34"/><path class="cls-2" d="M1167,398.83c-20.4-50.6-43.16-99.65-67.52-146.83h0L863.35,534Z"/><path class="cls-1" d="M1167,398.82l286.23-276.1L1099.46,252c24.36,47.18,47.12,96.23,67.52,146.83Z"/><path class="cls-1" d="M427.55,999.62l1-.31-.95-.14Z"/><polygon class="cls-1" points="893.72 1190.97 893.73 1190.96 893.72 1190.96 893.72 1190.97"/><path class="cls-1" d="M427.53,1000.27l1-1-1,.31C427.55,999.84,427.54,1000.06,427.53,1000.27Z"/><polygon class="cls-1" points="412.29 790.28 412.29 790.31 412.32 790.31 412.29 790.28"/><path class="cls-1" d="M1264.64,837.73h0L863.35,534h0c55.71,43.41,102.57,89.46,129.22,150.37h0Z"/><path class="cls-1" d="M1612.14,1273.24h0Z"/><polygon class="cls-1" points="1750.24 987.83 1750.24 826.28 1634.06 1088.31 1750.24 987.83"/><polygon class="cls-1" points="1750.24 1415.64 1750.24 1190.14 1548.43 1415.64 1750.24 1415.64"/><path class="cls-1" d="M0,414.4l262.24,8.13A1454,1454,0,0,0,153.08,272.48Z"/><polygon class="cls-1" points="1612.19 1273.23 1612.15 1273.2 1612.15 1273.21 1612.19 1273.23"/><path class="cls-1" d="M1233.76,1121.63l.07,0h-.06A.05.05,0,0,0,1233.76,1121.63Z"/><path class="cls-1" d="M1167,398.83,863.35,534l401.29,303.69C1259.87,683.72,1222.11,535.56,1167,398.83Z"/><path class="cls-1" d="M1264.64,837.74h0Z"/><polygon class="cls-1" points="1264.65 837.73 1264.64 837.72 1264.64 837.73 1264.65 837.73"/><path class="cls-1" d="M863.34,534,262.26,422.53,992.56,684.4C965.91,623.49,919.06,577.44,863.34,534Z"/><path class="cls-1" d="M893.72,1191c34.24-66.45,60.47-125.67,79.7-178.76L425.57,887.35Z"/><polygon class="cls-1" points="153.07 272.47 153.08 272.48 153.09 272.47 153.07 272.47"/><path class="cls-3" d="M443.86,4.17c11.79,65.78,30.37,122.1,53.78,171.08L1099.46,252Z"/><polygon class="cls-2" points="5.29 5.98 153.09 272.47 497.63 175.25 5.29 5.98"/><path class="cls-1" d="M1233.77,1121.56A997.86,997.86,0,0,0,1260,974L973.42,1012.2Z"/><path class="cls-2" d="M0,1415.64H312.82c73.87-146.12,108.76-284.94,114.71-415.37Z"/><path class="cls-1" d="M262.24,422.53,0,414.4H0L412.29,790.28C386.51,656,331.9,532.94,262.24,422.53Z"/><path class="cls-2" d="M427.58,999.17,0,934.42V1138L427.55,999.62Z"/><polygon class="cls-3" points="412.29 790.28 0 414.4 0 704.15 412.29 790.31 412.29 790.28"/><path class="cls-4" d="M412.3,790.32,0,934.42l425.52-47.07A904.37,904.37,0,0,0,412.3,790.32Z"/><polygon class="cls-1" points="4.28 4.16 0 4.16 5.29 5.98 4.28 4.16"/><path class="cls-1" d="M412.29,790.31,0,704.15V934.42l412.3-144.1Z"/><path class="cls-1" d="M0,109.79V253.14l153.07,19.33C104.09,213.21,52,158.87,0,109.79Z"/><path class="cls-1" d="M153.09,272.47,5.29,6,0,4.16V109.79c52,49.08,104.09,103.42,153.07,162.68Z"/><polygon class="cls-3" points="153.08 272.48 153.07 272.47 0 253.14 0 414.4 0 414.4 153.08 272.48"/><polygon class="cls-1" points="0 414.4 0 414.4 0 414.4 0 414.4"/><path class="cls-1" d="M425.52,887.36,0,934.42l427.58,64.74A890.59,890.59,0,0,0,425.52,887.36Z"/><path class="cls-3" d="M1107.41,1415.64h441a515.81,515.81,0,0,0,63.78-142.4Z"/><path class="cls-1" d="M1612.15,1273.21l-378.33-151.63-.07,0c-25,97.53-65.87,196-126.36,294h0l504.74-142.4Z"/><path class="cls-2" d="M1612.14,1273.24a515.81,515.81,0,0,1-63.78,142.4h.07l201.81-225.5-138.05,83.08Z"/><path class="cls-1" d="M1634,1088.31c1,63.56-5.35,125.4-21.88,184.89l0,0,138.05-83.08-116.18-101.83Z"/><polygon class="cls-2" points="1634.06 1088.31 1750.24 1190.14 1750.24 987.83 1634.06 1088.31"/><path class="cls-1" d="M427.55,999.62,0,1138v277.66l427.53-415.37C427.54,1000.06,427.55,999.84,427.55,999.62Z"/><path class="cls-1" d="M893.72,1191,428.52,999.31l-1,1c-5.94,130.43-40.83,269.25-114.71,415.37h0L893.72,1191Z"/><path class="cls-2" d="M312.87,1415.64H764.33c52-83,94.81-157.56,129.39-224.67Z"/><path class="cls-1" d="M1233.76,1121.6l-340,69.37h0c-34.57,67.11-77.39,141.66-129.39,224.67h0l469.4-294A.05.05,0,0,1,1233.76,1121.6Z"/><path class="cls-3" d="M764.36,1415.64h343c60.5-98.05,101.38-196.49,126.36-294Z"/><path class="cls-2" d="M1099.46,252h0C1053,162,1000.66,78.71,948.08,4.16H443.86Z"/><path class="cls-1" d="M1612.15,1273.2c16.53-59.49,22.83-121.33,21.88-184.89L1260,974Z"/><path class="cls-2" d="M1260,974a997.86,997.86,0,0,1-26.22,147.58l.05,0,378.33,151.63h0L1260,974Z"/><path class="cls-1" d="M1574.45,725.66c31.82,124,57.83,246.17,59.58,362.64h0l116.18-262L1574.46,725.66Z"/><path class="cls-2" d="M1260,974l374,114.33c-1.75-116.47-27.77-238.67-59.58-362.64Z"/><path class="cls-1" d="M1233.76,1121.6h.06l-.05,0S1233.76,1121.58,1233.76,1121.6Z"/><path class="cls-2" d="M1574.45,725.65h0l175.78,100.63L1529.91,558.34C1544.8,614.23,1560.2,670.11,1574.45,725.65Z"/><path class="cls-1" d="M992.57,684.42h0L412.32,790.31h0a904.37,904.37,0,0,1,13.23,97h0Z"/><path class="cls-4" d="M425.57,887.35h0a890.59,890.59,0,0,1,2.05,111.81l.95.14L893.72,1191h0Z"/><path class="cls-4" d="M973.42,1012.2h0c-19.23,53.09-45.46,112.31-79.7,178.76h0l340-69.37s0,0,0,0Z"/><polygon class="cls-1" points="893.72 1190.96 893.73 1190.96 893.72 1190.96 893.72 1190.96"/><polygon class="cls-1" points="1750.24 304.67 1750.24 4.16 1460.9 4.16 1460.9 4.17 1750.24 304.67"/><path class="cls-1" d="M1453.26,122.72A745.06,745.06,0,0,1,1460.9,4.17H948.09l505.15,118.55Z"/><path class="cls-2" d="M1453.25,122.71,948.09,4.16h0C1000.66,78.71,1053,162,1099.46,252Z"/><polygon class="cls-1" points="412.29 790.31 412.3 790.32 412.32 790.31 412.29 790.31"/><polygon class="cls-1" points="1529.91 558.34 1750.24 826.28 1750.24 505.68 1529.9 558.34 1529.91 558.34"/><polygon class="cls-1" points="443.86 4.16 443.85 4.16 443.86 4.17 443.86 4.16"/><polygon class="cls-1" points="1460.9 4.16 1460.89 4.16 1460.9 4.17 1460.9 4.16"/><path class="cls-1" d="M1529.9,558.33l220.34-253.66-297-182C1454.86,263.5,1490.59,410.89,1529.9,558.33Z"/><polygon class="cls-2" points="1529.9 558.34 1750.24 505.68 1750.24 304.67 1529.9 558.33 1529.9 558.34"/><path class="cls-2" d="M1453.26,122.72l297,182L1460.9,4.17A745.06,745.06,0,0,0,1453.26,122.72Z"/><path class="cls-1" d="M497.63,175.25h0c-23.4-49-42-105.3-53.78-171.08H4.28L5.29,6Z"/></g></g></svg>