<svg xmlns="http://www.w3.org/2000/svg" viewBox="0 0 1682.48 511.47"><defs><style>.cls-1{fill:none;}.cls-2{fill:#e12b1a;}.cls-3{fill:#e20613;}.cls-4{fill:#d4141a;}.cls-5{fill:#e00817;}.cls-6{fill:#e4131f;}.cls-7{fill:#e10824;}.cls-8{fill:#bf1e20;}</style></defs><title>Recurso 55-vector</title><g id="Capa_2" data-name="Capa 2"><g id="Capa_1-2" data-name="Capa 1"><polygon class="cls-1" points="387.95 238.71 387.95 238.72 387.98 238.73 387.95 238.71"/><polygon class="cls-1" points="949.06 111.75 949.06 111.74 697.76 0 697.75 0 949.06 111.74 949.06 111.75"/><polygon class="cls-1" points="1681.71 0 1681.71 281.86 1681.71 475.57 1681.71 511.4 1682.48 511.47 1682.48 0 1681.71 0"/><polygon class="cls-2" points="1511.73 161.21 1511.74 161.21 1511.73 161.21 1511.73 161.21"/><polygon class="cls-2" points="949.06 111.75 949.08 111.75 949.06 111.74 949.06 111.75"/><path class="cls-2" d="M1477.18,0h-127.5l162.06,161.2C1500.65,107.66,1488.86,53.86,1477.18,0Z"/><polygon class="cls-2" points="1511.73 161.21 1511.74 161.21 1511.73 161.2 1511.73 161.21"/><path class="cls-3" d="M1212.16,295.59l299.57-134.38h0L1349.67,0H1178.42c19.13,95.7,31.21,194.59,33.73,295.58Z"/><path class="cls-4" d="M1212.15,295.6l-208.7,155,165.1,14.79,39.1-6.47A1542.53,1542.53,0,0,0,1212.15,295.6Z"/><path class="cls-4" d="M949.06,111.75,400.79,355.08l215.28,60.84,330.37,29.6C982.28,298,978,193.67,949.06,111.75Z"/><polygon class="cls-2" points="949.06 111.75 949.08 111.75 949.06 111.75 949.06 111.75"/><path class="cls-5" d="M1212.15,295.58,949.08,111.75h0C978,193.67,982.28,298,946.45,445.52l57,5.11,208.7-155Z"/><path class="cls-6" d="M1212.16,295.59h0a1542.53,1542.53,0,0,1-4.5,163.36h0l304.07-297.74h0Z"/><path class="cls-4" d="M388,238.73l561.09-127h0L697.75,0h-369a1396.36,1396.36,0,0,1,59.2,238.69Z"/><path class="cls-2" d="M387.95,238.69v0l0,0Z"/><path class="cls-2" d="M949.08,111.75l263.07,183.83h0L897.17,0H886.8c25.88,33.17,47.34,69.47,62.26,111.74Z"/><polygon class="cls-5" points="1681.71 281.86 1602.19 504.28 1650.88 508.64 1681.71 475.57 1681.71 281.86"/><path class="cls-4" d="M1178.42,0H897.17l315,295.58C1209.63,194.59,1197.55,95.7,1178.42,0Z"/><polygon class="cls-2" points="1212.15 295.58 1212.15 295.6 1212.16 295.59 1212.15 295.58"/><polygon class="cls-2" points="1212.15 295.58 1212.15 295.58 1212.16 295.59 1212.15 295.58"/><path class="cls-5" d="M886.8,0h-189l251.3,111.74C934.14,69.47,912.67,33.17,886.8,0Z"/><polygon class="cls-7" points="458.94 401.84 616.08 415.92 400.79 355.08 458.94 401.84"/><path class="cls-2" d="M1168.55,465.42l38.26,3.43q.44-4.95.84-9.9Z"/><path class="cls-7" d="M328.75,0H176.81L387.95,238.69A1396.36,1396.36,0,0,0,328.75,0Z"/><path class="cls-2" d="M387.95,238.71v0L176.81,0H0V138.2L387.95,238.72Z"/><path class="cls-2" d="M388,238.74,88.26,368.63l129.32,11.59,183.17-25.12Q396.86,295.82,388,238.74Z"/><polygon class="cls-5" points="387.95 238.72 0 138.2 0 360.72 88.26 368.63 387.96 238.74 387.95 238.72"/><path class="cls-5" d="M217.58,380.21l185.22,16.6q-.71-21-2-41.72Z"/><polygon class="cls-2" points="1650.88 508.64 1681.71 511.4 1681.71 475.57 1650.88 508.64"/><polygon class="cls-4" points="1218.01 469.85 1242.12 472.01 1207.66 458.95 1218.01 469.85"/><path class="cls-8" d="M1207.65,459q-.4,4.95-.84,9.9l11.19,1L1207.66,459Z"/><path class="cls-2" d="M1511.74,161.21h0c23.85,115.25,44.33,229.23,53.12,339.72l37.34,3.35,79.53-222.42Z"/><path class="cls-3" d="M1207.66,459,1242.12,472l322.73,28.92c-8.79-110.49-29.26-224.47-53.12-339.72Z"/><path class="cls-5" d="M1511.74,161.21l170,120.66L1494.8,0h-17.62c11.68,53.86,23.47,107.66,34.55,161.2Z"/><path class="cls-7" d="M388,238.73h0q8.83,57.06,12.79,116.35h0L949.06,111.75h0Z"/><path class="cls-2" d="M400.75,355.09q1.36,20.72,2,41.72l56.14,5-58.14-46.76Z"/><polygon class="cls-2" points="387.95 238.72 387.96 238.74 387.98 238.73 387.95 238.72"/><polygon class="cls-2" points="1681.71 0 1494.8 0 1681.71 281.86 1681.71 0"/></g></g></svg>