<svg xmlns="http://www.w3.org/2000/svg" viewBox="0 0 382.6 383.74"><defs><style>.cls-1{fill:#005ca8;}.cls-2{fill:#ededed;}.cls-3{fill:#eee;}.cls-4{fill:#e8e8e8;}.cls-5{fill:#f2f2f2;}.cls-6{fill:#f3f3f3;}.cls-7{fill:#fff;}.cls-8{fill:#dedede;}.cls-9{fill:#f6f6f6;}</style></defs><title>Recurso 59-vector</title><g id="Capa_2" data-name="Capa 2"><g id="Capa_1-2" data-name="Capa 1"><polygon class="cls-1" points="0.43 0 0 1.13 0.94 1.13 0.43 0"/><polygon class="cls-1" points="97.03 1.13 97.03 1.13 97.03 1.13 97.03 1.13"/><polygon class="cls-1" points="319.35 1.13 319.35 1.13 319.35 1.13 319.35 1.13"/><polygon class="cls-1" points="68.38 383.74 68.39 383.73 68.38 383.73 68.38 383.74"/><polygon class="cls-1" points="344.18 196.7 344.18 196.7 344.18 196.7 344.18 196.7"/><polygon class="cls-1" points="216.97 185.52 216.97 185.52 216.98 185.52 216.97 185.52"/><path class="cls-2" d="M255.11,108.11l89.07,88.59c-3.12-15.05-6.48-30.2-9.74-45.35h0Z"/><polygon class="cls-1" points="344.18 196.7 344.18 196.7 344.18 196.7 344.18 196.7"/><path class="cls-3" d="M255.1,108.11c12.05,37.06,20.31,77.22,21.35,119h0l67.72-30.38h0l-89.07-88.59Z"/><path class="cls-3" d="M276.45,227.08l-63.66,47.29L275.43,264A348.72,348.72,0,0,0,276.45,227.08Z"/><path class="cls-2" d="M217,185.52,93,240.53l119.76,33.84C224.65,233.8,224.35,206.43,217,185.52Z"/><polygon class="cls-1" points="216.97 185.52 216.97 185.52 216.98 185.52 216.97 185.52"/><path class="cls-4" d="M276.45,227.08,217,185.52h0c7.38,20.91,7.67,48.28-4.18,88.85h0l63.66-47.29Z"/><path class="cls-2" d="M276.45,227.08h0a348.72,348.72,0,0,1-1,36.93h0l68.74-67.31h0Z"/><path class="cls-2" d="M188.73,144.76c-25.89-25-60.5-46.8-79.94-97.25h0l-51.45,67Z"/><path class="cls-2" d="M108.78,47.5,33.46,73.86h0a402.65,402.65,0,0,1,23.86,40.67h0Z"/><path class="cls-4" d="M188.73,144.76h0l51.61-76.45L108.78,47.5C128.22,98,162.84,119.75,188.73,144.76Z"/><path class="cls-2" d="M217,185.52h0l-159.64-71h0c15.23,29.93,27.17,63.29,32.8,99.68h0Z"/><path class="cls-5" d="M334.44,151.35h0c-8.59-40-16.4-79.92-16.75-118.08h0l-62.57,74.84Z"/><polygon class="cls-1" points="334.44 151.34 334.44 151.34 334.44 151.34 334.44 151.34"/><polygon class="cls-1" points="334.44 151.35 334.44 151.34 334.44 151.34 334.44 151.35"/><path class="cls-6" d="M255.1,108.11c-4.46-13.72-9.43-27-14.76-39.8h0l-51.61,76.45Z"/><path class="cls-4" d="M255.11,108.11l62.57-74.84-77.34,35c5.33,12.79,10.3,26.08,14.76,39.8Z"/><path class="cls-1" d="M93.46,271l.21-.08-.21,0Z"/><polygon class="cls-1" points="195.37 322.83 195.37 322.83 195.37 322.83 195.37 322.83"/><path class="cls-1" d="M93.46,271.14l.22-.26-.21.08C93.46,271,93.46,271.08,93.46,271.14Z"/><polygon class="cls-1" points="90.13 214.22 90.13 214.22 90.13 214.23 90.13 214.22"/><path class="cls-4" d="M276.45,227.08h0l-87.72-82.32h0C200.91,156.52,211.15,169,217,185.52h0Z"/><polygon class="cls-1" points="352.42 345.13 352.42 345.13 352.42 345.12 352.42 345.13"/><polygon class="cls-4" points="382.6 267.77 382.6 223.98 357.2 295 382.6 267.77"/><polygon class="cls-7" points="382.6 383.73 382.6 322.61 338.49 383.73 382.6 383.73"/><path class="cls-8" d="M0,112.33l57.33,2.2A402.65,402.65,0,0,0,33.46,73.86Z"/><polygon class="cls-1" points="352.42 345.13 352.42 345.12 352.42 345.12 352.42 345.13"/><polygon class="cls-1" points="269.7 304.03 269.71 304.02 269.7 304.02 269.7 304.03"/><path class="cls-4" d="M255.1,108.11l-66.37,36.65,87.72,82.32C275.41,185.33,267.15,145.17,255.1,108.11Z"/><polygon class="cls-1" points="276.45 227.08 276.45 227.08 276.45 227.08 276.45 227.08"/><polygon class="cls-1" points="276.45 227.08 276.45 227.08 276.45 227.08 276.45 227.08"/><path class="cls-4" d="M188.73,144.76,57.33,114.53l159.64,71C211.15,169,200.91,156.52,188.73,144.76Z"/><path class="cls-4" d="M195.37,322.83a473.11,473.11,0,0,0,17.42-48.45L93,240.53Z"/><polygon class="cls-1" points="33.46 73.86 33.46 73.86 33.47 73.86 33.46 73.86"/><path class="cls-4" d="M97,1.13A213,213,0,0,0,108.78,47.5L240.34,68.31Z"/><polygon class="cls-4" points="1.16 1.62 33.47 73.86 108.78 47.5 1.16 1.62"/><path class="cls-4" d="M269.7,304a329.89,329.89,0,0,0,5.73-40l-62.64,10.36Z"/><path class="cls-7" d="M0,383.73H68.38c16.15-39.61,23.78-77.24,25.07-112.59Z"/><path class="cls-2" d="M57.33,114.53,0,112.33H0L90.13,214.22C84.49,177.83,72.55,144.46,57.33,114.53Z"/><path class="cls-7" d="M93.47,270.84,0,253.29v55.18L93.46,271Z"/><polygon class="cls-8" points="90.13 214.22 0 112.33 0 190.87 90.13 214.22 90.13 214.22"/><path class="cls-4" d="M90.13,214.23,0,253.29l93-12.76Q92.14,227.13,90.13,214.23Z"/><polygon class="cls-1" points="0.94 1.13 0 1.13 1.16 1.62 0.94 1.13"/><polygon class="cls-2" points="90.13 214.22 0 190.87 0 253.29 90.13 214.23 90.13 214.22"/><path class="cls-7" d="M0,29.76V68.62l33.46,5.24A463.83,463.83,0,0,0,0,29.76Z"/><path class="cls-4" d="M33.46,73.86,1.16,1.62,0,1.13V29.76a463.83,463.83,0,0,1,33.46,44.1Z"/><polygon class="cls-7" points="33.46 73.86 33.46 73.86 0 68.62 0 112.33 0 112.33 33.46 73.86"/><polygon class="cls-1" points="0 112.33 0 112.33 0 112.33 0 112.33"/><path class="cls-2" d="M93,240.53,0,253.29l93.47,17.55A299.19,299.19,0,0,0,93,240.53Z"/><path class="cls-7" d="M242.08,383.73h96.39a158.2,158.2,0,0,0,13.94-38.6Z"/><path class="cls-4" d="M352.42,345.12,269.71,304h0a326.57,326.57,0,0,1-27.62,79.7h0l110.34-38.6Z"/><path class="cls-4" d="M352.41,345.13a158.2,158.2,0,0,1-13.94,38.6h0l44.12-61.12-30.18,22.52Z"/><path class="cls-7" d="M357.2,295a216.84,216.84,0,0,1-4.78,50.12h0l30.18-22.52L357.21,295Z"/><polygon class="cls-4" points="357.2 295 382.6 322.61 382.6 267.77 357.2 295"/><path class="cls-4" d="M93.46,271,0,308.47v75.26L93.46,271.14C93.46,271.08,93.46,271,93.46,271Z"/><path class="cls-4" d="M195.37,322.83,93.67,270.88l-.22.26c-1.3,35.35-8.93,73-25.07,112.59h0l127-60.9Z"/><path class="cls-7" d="M68.39,383.73h98.69c11.37-22.5,20.73-42.71,28.28-60.9Z"/><path class="cls-4" d="M269.7,304l-74.33,18.8h0c-7.56,18.19-16.92,38.4-28.28,60.9h0L269.7,304Z"/><path class="cls-3" d="M167.09,383.73h75A326.57,326.57,0,0,0,269.7,304Z"/><path class="cls-2" d="M240.34,68.31h0A613.74,613.74,0,0,0,207.25,1.13H97Z"/><path class="cls-4" d="M352.42,345.12A216.84,216.84,0,0,0,357.2,295l-81.76-31Z"/><path class="cls-8" d="M275.43,264a329.89,329.89,0,0,1-5.73,40h0l82.7,41.1h0l-77-81.11Z"/><path class="cls-2" d="M344.17,196.7c7,33.6,12.64,66.73,13,98.3h0l25.4-71L344.18,196.7Z"/><path class="cls-7" d="M275.43,264l81.76,31c-.38-31.57-6.07-64.7-13-98.3Z"/><polygon class="cls-1" points="269.7 304.02 269.71 304.02 269.7 304.02 269.7 304.02"/><path class="cls-2" d="M344.17,196.7h0L382.6,224l-48.16-72.63C337.69,166.5,341.06,181.64,344.17,196.7Z"/><path class="cls-7" d="M217,185.52h0L90.13,214.23h0q2,12.9,2.89,26.3h0Z"/><path class="cls-2" d="M93,240.53h0a299.19,299.19,0,0,1,.45,30.31l.21,0,101.69,51.95h0Z"/><path class="cls-8" d="M212.79,274.37h0a473.11,473.11,0,0,1-17.42,48.45h0L269.7,304h0Z"/><polygon class="cls-1" points="195.37 322.83 195.37 322.83 195.37 322.83 195.37 322.83"/><polygon class="cls-2" points="382.6 82.59 382.6 1.13 319.35 1.13 319.35 1.13 382.6 82.59"/><path class="cls-4" d="M317.68,33.27a249.75,249.75,0,0,1,1.67-32.13H207.25L317.68,33.26Z"/><path class="cls-9" d="M317.68,33.26,207.25,1.13h0a613.74,613.74,0,0,1,33.09,67.18Z"/><polygon class="cls-1" points="90.13 214.22 90.13 214.23 90.13 214.23 90.13 214.22"/><polygon class="cls-4" points="334.44 151.35 382.6 223.98 382.6 137.07 334.44 151.34 334.44 151.35"/><polygon class="cls-1" points="97.03 1.13 97.03 1.13 97.03 1.13 97.03 1.13"/><polygon class="cls-1" points="319.35 1.13 319.35 1.13 319.35 1.13 319.35 1.13"/><path class="cls-4" d="M334.44,151.34,382.6,82.59,317.68,33.27C318,71.42,325.84,111.38,334.44,151.34Z"/><polygon class="cls-2" points="334.44 151.34 382.6 137.07 382.6 82.59 334.44 151.34 334.44 151.34"/><path class="cls-2" d="M317.68,33.27,382.6,82.59,319.35,1.13A249.75,249.75,0,0,0,317.68,33.27Z"/><path class="cls-7" d="M108.78,47.5h0A213,213,0,0,1,97,1.13H.94l.22.49Z"/></g></g></svg>