<svg xmlns="http://www.w3.org/2000/svg" viewBox="0 0 1682.48 397.91"><defs><style>.cls-1{fill:none;}.cls-2{fill:#f09204;}.cls-3{fill:#f49e07;}.cls-4{fill:#ffea17;}.cls-5{fill:#f5ac07;}.cls-6{fill:#f3970b;}.cls-7{fill:#ef8c11;}.cls-8{fill:#ffde0c;}</style></defs><title>Recurso 58-vector</title><g id="Capa_2" data-name="Capa 2"><g id="Capa_1-2" data-name="Capa 1"><polygon class="cls-1" points="559.49 176.56 540.5 315.25 540.5 315.25 559.5 176.55 559.49 176.56"/><path class="cls-2" d="M1081.46,0h-4.09l.44.95Z"/><polygon class="cls-2" points="1599.89 391.93 1682.48 126.2 1682.48 0 1597.38 0 1594.19 391.52 1599.89 391.93"/><polygon class="cls-3" points="1594.19 391.52 1597.38 0 1088.07 0 1567.96 389.62 1594.19 391.52"/><path class="cls-4" d="M304.69,298.18,540.5,315.25l19-138.69Q429.65,231.88,304.69,298.18Z"/><polygon class="cls-2" points="559.52 176.54 559.5 176.5 559.49 176.56 559.5 176.55 559.52 176.54"/><path class="cls-2" d="M839.3,63.12l-1.07,8.47L846.17,69Z"/><path class="cls-5" d="M559.53,176.54l95,147,100.65,7.29L724.34,111.48C668.81,131.86,613.81,153.41,559.53,176.54Z"/><path class="cls-6" d="M724.34,111.48l30.79,219.31,50,3.62L838.23,71.59C800,84.24,762,97.63,724.34,111.48Z"/><path class="cls-3" d="M846.17,69l344.5,293.35,58.59,4.24L1077.82.95Q960.41,31.59,846.17,69Z"/><polygon class="cls-3" points="796.34 0 668.15 0 724.3 111.25 796.34 0"/><polygon class="cls-5" points="668.15 0 565.15 0 724.3 111.25 668.15 0"/><path class="cls-2" d="M304.69,298.18q124.94-66.38,254.8-121.62v-.06l0,0c54.29-23.13,109.28-44.68,164.81-65.06l0-.23L565.15,0H95.25L252.17,294.38Z"/><path class="cls-2" d="M724.34,111.48C762,97.63,800,84.24,838.23,71.59l1.07-8.47L846.17,69q114.22-37.46,231.65-68l-.44-.95h-281l-72,111.25Z"/><polygon class="cls-5" points="95.25 0 0 0 0 276.13 252.17 294.38 95.25 0"/><path class="cls-7" d="M838.23,71.59,805.17,334.41l385.5,27.9L846.17,69Z"/><path class="cls-7" d="M1249.25,366.55,1568,389.62,1088.07,0h-6.61l-3.64.95Z"/><polygon class="cls-8" points="559.5 176.55 540.5 315.25 654.48 323.5 559.52 176.54 559.5 176.55"/><polygon class="cls-2" points="1682.48 397.91 1682.48 126.2 1599.89 391.93 1682.48 397.91"/></g></g></svg>