<svg xmlns="http://www.w3.org/2000/svg" viewBox="0 0 1962.51 1139.81"><defs><style>.cls-1{fill:none;}.cls-2{fill:#f09204;}.cls-3{fill:#f49e07;}.cls-4{fill:#ffea17;}.cls-5{fill:#f5ac07;}.cls-6{fill:#f3970b;}.cls-7{fill:#f6a913;}.cls-8{fill:#ffde23;}.cls-9{fill:#ffd103;}.cls-10{fill:#f8c100;}.cls-11{fill:#ef8c11;}.cls-12{fill:#ffde0c;}</style></defs><title>Recurso 48-vector</title><g id="Capa_2" data-name="Capa 2"><g id="Capa_1-2" data-name="Capa 1"><polygon class="cls-1" points="670.13 601.92 670.12 601.93 614.84 1005.68 670.13 601.92"/><path class="cls-1" d="M229.61,1112.87c-4.45,1.42-8.88,2.89-13.32,4.32-22.83,7.35-45.54,15-68.23,22.62H282.54Q257.18,1126.94,229.61,1112.87Z"/><path class="cls-2" d="M220.2,1108.06C153.46,1074,78.38,1035.3,0,994.75v145.06H148.05c22.69-7.66,45.4-15.27,68.23-22.62Z"/><path class="cls-2" d="M216.29,1117.19c4.44-1.43,8.87-2.9,13.32-4.32l-9.41-4.81Z"/><path class="cls-2" d="M1181.43,411.34l7,15,8.65-2.25Z"/><path class="cls-2" d="M1962.51,419.72V293.39c-30.79,2.93-61.51,6-92.06,9.39Z"/><path class="cls-2" d="M376.07,744.63l-.06.14.12-.07Z"/><path class="cls-2" d="M1870.45,302.77q-81.4,9.06-161.6,20.47l-4.18,512.91Z"/><path class="cls-3" d="M1708.84,323.25C1533.9,348,1363.17,381.11,1197.1,424.07l507.56,412.09Z"/><path class="cls-4" d="M670.12,601.93q-150.27,64-294,142.78l238.7,261Z"/><polygon class="cls-2" points="670.13 601.92 670.16 601.91 670.13 601.87 670.12 601.93 670.13 601.92 670.13 601.92"/><path class="cls-2" d="M949.93,488.49,948.87,497l7.93-2.63Z"/><path class="cls-5" d="M835,536.85c-55.53,20.38-110.52,41.93-164.81,65.06L892.39,945.85Z"/><path class="cls-6" d="M948.87,497c-38.27,12.65-76.19,26-113.9,39.89l57.42,409Z"/><path class="cls-3" d="M1188.45,426.32Q1071,457,956.8,494.34l438.71,373.57Z"/><path class="cls-7" d="M376,744.77l.06-.14H0V987.51A3143.81,3143.81,0,0,1,376,744.77Z"/><polygon class="cls-2" points="1962.51 78.75 1962.51 0 1760.74 0 1708.84 323.23 1962.51 78.75"/><polygon class="cls-2" points="1760.74 0 1501.95 0 1708.84 323.23 1760.74 0"/><polygon class="cls-3" points="1182.42 0 564.1 0 834.94 536.62 1182.42 0"/><polygon class="cls-5" points="564.1 0 67.27 0 834.94 536.62 564.1 0"/><path class="cls-2" d="M376.14,744.71q143.69-78.89,294-142.78v-.06l0,0c54.29-23.13,109.28-44.68,164.81-65.06l0-.23L67.27,0H0V39.14L376.07,744.63Z"/><path class="cls-2" d="M835,536.85C872.68,523,910.6,509.61,948.87,497l1.07-8.47,6.86,5.85q114.22-37.46,231.65-68l-7-15,15.68,12.73c166.06-43,336.79-76.06,511.74-100.82h0L1502,0H1182.42L834.94,536.62Z"/><path class="cls-2" d="M1708.84,323.25q80.23-11.36,161.6-20.47h0c30.55-3.4,61.27-6.46,92.06-9.39V78.75L1708.84,323.23Z"/><polygon class="cls-5" points="0 39.14 0 744.63 376.07 744.63 0 39.14"/><path class="cls-8" d="M376,744.77A3143.81,3143.81,0,0,0,0,987.51v7.24c78.38,40.55,153.46,79.21,220.2,113.31Z"/><path class="cls-9" d="M229.61,1112.87q27.52,14,52.93,26.94H785.3L892.32,946C666,989.48,444.79,1044.25,229.61,1112.87Z"/><path class="cls-2" d="M1574.77,1139.81h387.74V817.68q-129.66,7.77-257.87,18.54Z"/><path class="cls-10" d="M892.32,946l-107,193.84h789.46l129.87-303.59C1427.8,859.84,1156.57,895.18,892.32,946Z"/><path class="cls-11" d="M892.32,946c264.25-50.79,535.48-86.13,812.32-109.76l0-.06L1197.1,424.07l-8.65,2.25,207.06,441.59L956.8,494.34,948.87,497,892.39,945.85Z"/><path class="cls-12" d="M892.39,945.85,670.16,601.91h0l-55.3,403.76-238.7-261-.12.07L220.2,1108.06l9.41,4.81C444.79,1044.25,666,989.48,892.32,946Z"/><polygon class="cls-12" points="670.13 601.92 670.16 601.91 670.13 601.92 670.13 601.92"/><path class="cls-2" d="M1704.66,836.16l0,.06q128.13-10.93,257.87-18.54v-398l-92.06-116.95Z"/></g></g></svg>