<svg xmlns="http://www.w3.org/2000/svg" viewBox="0 0 87.39 87.4"><defs><style>.cls-1{fill:#606060;}</style></defs><title>Recurso 32-vector</title><g id="Capa_2" data-name="Capa 2"><g id="Capa_1-2" data-name="Capa 1"><path class="cls-1" d="M0,82.93V6.84c.09-.31.2-.61.28-.92A7.26,7.26,0,0,1,4.24,1a25.92,25.92,0,0,1,3-1H71.07V5.47H65.61V11H71v1q0,13.47,0,26.94c0,.42,0,.78.51,1a24.3,24.3,0,0,1,11.63,9.18,23.73,23.73,0,0,1,4.18,12.18A24.55,24.55,0,0,1,69.08,86.54c-1.54.41-3.14.58-4.72.87H4.61c-.21-.08-.42-.18-.63-.24a5,5,0,0,1-3-2A14.55,14.55,0,0,1,0,82.93Zm47.33-1a24.88,24.88,0,0,1-9-21.89H16.47V54.64h.93q10.79,0,21.57,0a.86.86,0,0,0,1-.65,27.49,27.49,0,0,1,1.17-2.6c.37-.74.79-1.45,1.25-2.28H16.46V43.7h.85q14.69,0,29.39,0a2.22,2.22,0,0,0,1.09-.3c1.29-.78,2.5-1.7,3.83-2.4a23.31,23.31,0,0,1,12.74-2.65c.38,0,.77,0,1.18,0V16.4H10.94V81.92ZM81.94,62.83A19.12,19.12,0,1,0,62.79,81.94,19.18,19.18,0,0,0,81.94,62.83ZM60.09,5.47l-.56,0H8.59a4.88,4.88,0,0,0-1.5.25A2,2,0,0,0,5.63,7.07c-.5,2.23.11,3.54,2.51,3.84a6.23,6.23,0,0,0,.77,0H60.09Z"/><path class="cls-1" d="M60,32.85v5.33H16.47V32.85Z"/><path class="cls-1" d="M60.19,60.17h5.27V76.41H60.19Z"/><path class="cls-1" d="M65.44,54.56H60.17V49.22h5.27Z"/></g></g></svg>