<svg xmlns="http://www.w3.org/2000/svg" viewBox="0 0 79.72 83.98"><defs><style>.cls-1{fill:#606060;}</style></defs><title>Recurso 27-vector</title><g id="Capa_2" data-name="Capa 2"><g id="Capa_1-2" data-name="Capa 1"><path class="cls-1" d="M6.53,0c.86.46,1.71.94,2.58,1.37L22.24,7.8l14.41,7c.88.43,1.75.91,2.65,1.29a1.44,1.44,0,0,0,1.05,0c3.81-1.83,7.6-3.69,11.39-5.55L63,5.08,72.76.31A2.76,2.76,0,0,0,73.18,0h.13c.38.73.76,1.47,1.15,2.2.17.32,0,.48-.25.63L64.87,7.39l-8.56,4.17-9.57,4.69c-2.13,1-4.25,2.09-6.4,3.09a1.29,1.29,0,0,1-1,0c-3.81-1.83-7.6-3.68-11.4-5.53L14.71,7.33,5.55,2.85c-.3-.15-.5-.29-.31-.66C5.64,1.47,6,.73,6.4,0Z"/><path class="cls-1" d="M79.71,4.8v.9q0,29,0,58a1.23,1.23,0,0,1-.83,1.31C73.47,67.67,68.08,70.32,62.67,73l-15.79,7.7c-2.21,1.08-4.41,2.18-6.63,3.24a1,1,0,0,1-.78,0Q29,78.83,18.54,73.71,9.5,69.29.46,64.88C0,64.66,0,64.34,0,64q0-7.89,0-15.79Q0,26.94,0,5.71c0-.26,0-.52,0-.91L2.48,6,18.2,13.69,35.62,22.2c1.23.6,2.45,1.19,3.67,1.82a1.12,1.12,0,0,0,1.13,0q8.94-4.39,17.9-8.76L77,6.08Z"/></g></g></svg>