<svg xmlns="http://www.w3.org/2000/svg" viewBox="0 0 18.27 14.36"><defs><style>.cls-1{fill:#fff;}</style></defs><title>Recurso 14-vector</title><g id="Capa_2" data-name="Capa 2"><g id="Capa_1-2" data-name="Capa 1"><path class="cls-1" d="M9.13,14.36H2A2,2,0,0,1,0,12.81a1.92,1.92,0,0,1,0-.42Q0,7.83,0,3.27a2,2,0,0,1,1.77-2H5.1a.19.19,0,0,0,.21-.14A1.85,1.85,0,0,1,5.79.46,1.62,1.62,0,0,1,6.92,0h4.44a1.64,1.64,0,0,1,1.32.67,1.77,1.77,0,0,1,.28.5.19.19,0,0,0,.21.14h3.16a2,2,0,0,1,1.92,1.77c0,.08,0,.15,0,.23q0,4.53,0,9.05A2,2,0,0,1,17,14.22a1.87,1.87,0,0,1-.71.13H9.13Zm0-1.31h7.15a.77.77,0,0,0,.3-.06.63.63,0,0,0,.39-.63q0-4.53,0-9.06s0,0,0-.07a.64.64,0,0,0-.12-.36.66.66,0,0,0-.57-.27h-4a.1.1,0,0,1-.1-.07l-.41-.9a1,1,0,0,0-.12-.2.35.35,0,0,0-.29-.13H6.94a.35.35,0,0,0-.29.14.89.89,0,0,0-.11.18l-.41.91A.11.11,0,0,1,6,2.61H2a.64.64,0,0,0-.68.66q0,4.56,0,9.12a.74.74,0,0,0,0,.22.64.64,0,0,0,.64.44Z"/><path class="cls-1" d="M5.22,7.83a3.92,3.92,0,1,1,3.91,3.92A3.92,3.92,0,0,1,5.22,7.83Zm1.31,0A2.61,2.61,0,1,0,9.14,5.22,2.6,2.6,0,0,0,6.53,7.83Z"/><path class="cls-1" d="M3.91,5.22H2.61V3.92h1.3Z"/></g></g></svg>