<svg xmlns="http://www.w3.org/2000/svg" viewBox="0 0 25.98 20.41"><defs><style>.cls-1{fill:#383838;}</style></defs><title>Recurso 23-vector</title><g id="Capa_2" data-name="Capa 2"><g id="Capa_1-2" data-name="Capa 1"><path class="cls-1" d="M13,20.41H2.83a2.79,2.79,0,0,1-2.76-2.2,2.73,2.73,0,0,1-.06-.6q0-6.48,0-13A2.79,2.79,0,0,1,2.52,1.87H7.25a.27.27,0,0,0,.3-.2,2.63,2.63,0,0,1,.68-1A2.3,2.3,0,0,1,9.83,0h6.31A2.34,2.34,0,0,1,18,1a2.52,2.52,0,0,1,.4.71.27.27,0,0,0,.3.2h4.5A2.79,2.79,0,0,1,26,4.37c0,.11,0,.22,0,.32q0,6.43,0,12.87a2.79,2.79,0,0,1-1.79,2.66,2.65,2.65,0,0,1-1,.19H13Zm0-1.86H23.14a1.09,1.09,0,0,0,.42-.08.89.89,0,0,0,.55-.89q0-6.44,0-12.88s0-.06,0-.09a.91.91,0,0,0-.17-.51.93.93,0,0,0-.8-.38H17.42a.14.14,0,0,1-.15-.1Q17,3,16.69,2.33A1.47,1.47,0,0,0,16.52,2a.49.49,0,0,0-.41-.19H9.87a.5.5,0,0,0-.42.2,1.26,1.26,0,0,0-.15.25Q9,2.95,8.71,3.6a.16.16,0,0,1-.17.12H2.83a.91.91,0,0,0-1,.94q0,6.48,0,13a1,1,0,0,0,0,.31.91.91,0,0,0,.92.63Z"/><path class="cls-1" d="M7.42,11.13A5.57,5.57,0,1,1,13,16.7,5.58,5.58,0,0,1,7.42,11.13Zm1.86,0A3.71,3.71,0,1,0,13,7.42,3.7,3.7,0,0,0,9.28,11.13Z"/><path class="cls-1" d="M5.56,7.42H3.72V5.57H5.56Z"/></g></g></svg>