<svg xmlns="http://www.w3.org/2000/svg" viewBox="0 0 26.28 27.83"><defs><style>.cls-1,.cls-3{fill:#fff;}.cls-1{opacity:0.05;}.cls-2{fill:none;stroke:#fff;stroke-miterlimit:10;stroke-width:0.17px;}.cls-4{fill:red;}</style></defs><title>Recurso 5-vector</title><g id="Capa_2" data-name="Capa 2"><g id="Capa_1-2" data-name="Capa 1"><rect class="cls-1" x="0.08" y="0.08" width="26.11" height="27.66"/><rect class="cls-2" x="0.08" y="0.08" width="26.11" height="27.66"/><path class="cls-3" d="M13.37,22.26H6.23a2,2,0,0,1-1.94-1.54,1.92,1.92,0,0,1,0-.42q0-4.56,0-9.12A2,2,0,0,1,6,9.22H9.34a.19.19,0,0,0,.21-.14A1.85,1.85,0,0,1,10,8.36a1.62,1.62,0,0,1,1.13-.45h4.44a1.64,1.64,0,0,1,1.32.67,1.77,1.77,0,0,1,.28.5.19.19,0,0,0,.21.14h3.16A2,2,0,0,1,22.5,11c0,.08,0,.15,0,.23q0,4.53,0,9.05a2,2,0,0,1-1.26,1.87,1.87,1.87,0,0,1-.71.13H13.37Zm0-1.31h7.15a.77.77,0,0,0,.3-.06.63.63,0,0,0,.39-.63q0-4.53,0-9.06s0,0,0-.07a.64.64,0,0,0-.12-.36.66.66,0,0,0-.57-.27h-4a.1.1,0,0,1-.1-.07L16,9.54a1,1,0,0,0-.12-.2.35.35,0,0,0-.29-.13H11.18a.35.35,0,0,0-.29.14.89.89,0,0,0-.11.18l-.41.91a.11.11,0,0,1-.12.08h-4a.64.64,0,0,0-.68.66q0,4.56,0,9.12a.74.74,0,0,0,0,.22.64.64,0,0,0,.64.44Z"/><path class="cls-3" d="M9.46,15.73a3.92,3.92,0,1,1,3.91,3.92A3.92,3.92,0,0,1,9.46,15.73Zm1.31,0a2.61,2.61,0,1,0,2.62-2.61A2.6,2.6,0,0,0,10.76,15.73Z"/><path class="cls-3" d="M8.15,13.12H6.85v-1.3h1.3Z"/><circle class="cls-4" cx="21.43" cy="4.15" r="1.99"/></g></g></svg>