<svg xmlns="http://www.w3.org/2000/svg" viewBox="0 0 34.33 36.32"><defs><style>.cls-1{fill:none;stroke:#6f6f6e;stroke-miterlimit:10;stroke-width:0.87px;}.cls-2{fill:#6f6f6e;}.cls-3{fill:red;}</style></defs><title>Recurso 39-vector</title><g id="Capa_2" data-name="Capa 2"><g id="Capa_1-2" data-name="Capa 1"><rect class="cls-1" x="0.43" y="0.43" width="33.47" height="35.46"/><rect class="cls-1" x="0.43" y="0.43" width="33.47" height="35.46"/><path class="cls-2" d="M17.47,28.86H8.31a2.51,2.51,0,0,1-2.49-2,2.46,2.46,0,0,1-.06-.54q0-5.85,0-11.69A2.51,2.51,0,0,1,8,12.14H12.3a.24.24,0,0,0,.27-.18,2.37,2.37,0,0,1,.61-.92,2.07,2.07,0,0,1,1.44-.58h5.69a2.11,2.11,0,0,1,1.7.86,2.27,2.27,0,0,1,.36.64.24.24,0,0,0,.27.18H26.7a2.51,2.51,0,0,1,2.47,2.27c0,.1,0,.19,0,.29q0,5.8,0,11.6a2.51,2.51,0,0,1-1.61,2.39,2.39,2.39,0,0,1-.91.17H17.47Zm0-1.67h9.17a1,1,0,0,0,.38-.07.81.81,0,0,0,.5-.81q0-5.81,0-11.62s0-.06,0-.08a.82.82,0,0,0-.16-.46.84.84,0,0,0-.72-.34H21.46a.12.12,0,0,1-.13-.09l-.52-1.16a1.32,1.32,0,0,0-.15-.26.44.44,0,0,0-.37-.17H14.65a.45.45,0,0,0-.38.18,1.14,1.14,0,0,0-.14.23q-.27.58-.52,1.17a.14.14,0,0,1-.16.1H8.31a.82.82,0,0,0-.87.85q0,5.84,0,11.68a.94.94,0,0,0,0,.28.82.82,0,0,0,.83.57Z"/><path class="cls-2" d="M12.45,20.49a5,5,0,1,1,5,5A5,5,0,0,1,12.45,20.49Zm1.67,0a3.35,3.35,0,1,0,3.35-3.34A3.34,3.34,0,0,0,14.12,20.49Z"/><path class="cls-2" d="M10.77,17.14H9.11V15.48h1.66Z"/><circle class="cls-3" cx="27.79" cy="5.64" r="2.55"/></g></g></svg>