<svg xmlns="http://www.w3.org/2000/svg" viewBox="0 0 64.58 99.78"><defs><style>.cls-1{fill:#606060;}</style></defs><title>Recurso 29-vector</title><g id="Capa_2" data-name="Capa 2"><g id="Capa_1-2" data-name="Capa 1"><path class="cls-1" d="M25.19,15.84c.4-4.37.81-8.55,1.16-12.74C26.54.82,27.34,0,29.6,0c1.92,0,3.84,0,5.76,0s2.77.89,2.94,2.84q.55,6.28,1.14,12.57a2.72,2.72,0,0,0,.14.43h1.27c5.57,0,11.15.08,16.72,0a6.72,6.72,0,0,1,7,7c-.08,23.33,0,46.66,0,70,0,4.31-2.67,7-7,7H6.75A6.48,6.48,0,0,1,0,93Q0,57.85,0,22.69a6.55,6.55,0,0,1,6.83-6.84c5.68,0,11.37,0,17.05,0ZM3.38,32V70.66H61.27V32Zm0,48.34h58V75.41h-58ZM52,86.83V83.76H3.4v3.07ZM3.35,93.25h30v-3h-30ZM24.92,19.07c-.58,0-1.08,0-1.59,0a3,3,0,0,0-3,3,3,3,0,0,0,2.95,3.22q9.19.07,18.37,0a3,3,0,0,0,2.9-3.15c0-2.3-2.07-3.63-4.57-3,.05.92.13,1.84.16,2.76A1.94,1.94,0,0,1,38,24.23q-5.59,0-11.18,0A1.91,1.91,0,0,1,24.76,22C24.78,21.09,24.86,20.14,24.92,19.07ZM35.72,6.8a3.38,3.38,0,1,0-6.76,0,3.38,3.38,0,1,0,6.76,0Z"/><path class="cls-1" d="M42,44.74a9.64,9.64,0,1,1-10-9.47A9.64,9.64,0,0,1,42,44.74Z"/><path class="cls-1" d="M16.26,67.39a9.49,9.49,0,0,1,9.14-9.51q7-.13,13.94,0c5,.08,9.38,4.78,9,9.52Z"/></g></g></svg>