<svg xmlns="http://www.w3.org/2000/svg" viewBox="0 0 34.33 36.32"><defs><style>.cls-1{fill:none;stroke:#6f6f6e;stroke-miterlimit:10;stroke-width:0.87px;}.cls-2{fill:#6f6f6e;}</style></defs><title>Recurso 36-vector</title><g id="Capa_2" data-name="Capa 2"><g id="Capa_1-2" data-name="Capa 1"><rect class="cls-1" x="0.43" y="0.43" width="33.47" height="35.46"/><rect class="cls-1" x="0.43" y="0.43" width="33.47" height="35.46"/><path class="cls-2" d="M24.11,20.53h3.66l.52-3.15H24.11s0-.06,0-.08q0-1.16,0-2.31a2,2,0,0,1,0-.26,1.83,1.83,0,0,1,1.72-1.54h1.4V10H23.81a5.27,5.27,0,0,0-1.7.28,2.94,2.94,0,0,0-1.85,1.75,5.34,5.34,0,0,0-.34,2c0,1.08,0,2.16,0,3.24,0,0,0,.06,0,.1H16.77v3.14h3.14V31H24.1V20.53Z"/></g></g></svg>