<svg xmlns="http://www.w3.org/2000/svg" viewBox="0 0 26.28 27.83"><defs><style>.cls-1,.cls-3{fill:#fff;}.cls-1{opacity:0.05;}.cls-2{fill:none;stroke:#fff;stroke-miterlimit:10;stroke-width:0.17px;}</style></defs><title>Recurso 1-vector</title><g id="Capa_2" data-name="Capa 2"><g id="Capa_1-2" data-name="Capa 1"><rect class="cls-1" x="0.08" y="0.08" width="26.11" height="27.66"/><rect class="cls-2" x="0.08" y="0.08" width="26.11" height="27.66"/><path class="cls-3" d="M18.56,15.76h2.86l.41-2.45H18.56s0,0,0-.06q0-.9,0-1.8a1.55,1.55,0,0,1,0-.2A1.43,1.43,0,0,1,19.91,10H21V7.59H18.32A4.11,4.11,0,0,0,17,7.81a2.3,2.3,0,0,0-1.45,1.36,4.17,4.17,0,0,0-.27,1.53c0,.84,0,1.68,0,2.53,0,0,0,0,0,.08H12.83v2.45h2.45v8.18h3.28Z"/></g></g></svg>