<svg xmlns="http://www.w3.org/2000/svg" viewBox="0 0 97.33 88.47"><defs><style>.cls-1{fill:#606060;}</style></defs><title>Recurso 28-vector</title><g id="Capa_2" data-name="Capa 2"><g id="Capa_1-2" data-name="Capa 1"><path class="cls-1" d="M0,62.58a10.27,10.27,0,0,1,2.68-5.32C3.92,56,5.18,54.78,6.42,53.54l8.88-8.89,9.93-9.92c2.41-2.41,4.81-4.84,7.23-7.24a4.9,4.9,0,0,1,1.47-1.1c1.21-.5,2,.25,2.84,1C40.19,30.87,43.62,34.3,47,37.67L72.31,12.31c-.56-.53-1.31-1.19-2-1.9-2.83-2.81-5.65-5.63-8.45-8.47A6.66,6.66,0,0,1,61,.53,5.91,5.91,0,0,1,62.63,0c9.95,0,19.89,0,29.84,0a4.76,4.76,0,0,1,4.87,4.86c-.1,9.94,0,19.89,0,29.84,0,.57.2,1.4-.49,1.54-.41.09-1.06-.4-1.45-.78-3.28-3.23-6.53-6.5-9.8-9.76-.2-.2-.41-.38-.71-.66-1.49,1.53-2.93,3-4.38,4.47q-6.19,6.21-12.4,12.41L55.61,54.39C53.39,56.6,51.19,58.83,49,61c-1.22,1.21-2.51,1.12-3.72-.11-3.49-3.53-7-7-10.57-10.61-1,1-2,1.92-2.9,2.87L20.1,64.87c-1.52,1.52-3.05,3-4.55,4.56a8.72,8.72,0,0,1-8.05,2.89A8.76,8.76,0,0,1,.6,66.59c-.26-.64-.4-1.33-.6-2Z"/><path class="cls-1" d="M76.39,88.45c0-.38,0-.66,0-.94q0-21.1,0-42.19a6.17,6.17,0,0,1,1.91-4.67c1.56-1.51,3.05-3.09,4.62-4.6a6.6,6.6,0,0,1,1.41-.81,5.74,5.74,0,0,1,.46,1.54q0,15.27,0,30.54,0,10.06,0,20.12c0,1,0,1-1,1H76.39Z"/><path class="cls-1" d="M72.14,88.41h-9c0-.29,0-.56,0-.84q0-14.49,0-29a6.14,6.14,0,0,1,1.77-4.5c1.81-1.85,3.65-3.67,5.48-5.49a4.89,4.89,0,0,1,.71-.6c.48-.32.85-.21,1,.37a4.87,4.87,0,0,1,.09,1.08q0,19.08,0,38.15C72.14,87.85,72.14,88.1,72.14,88.41Z"/><path class="cls-1" d="M58.85,88.4c-.27,0-.5.05-.73.05-2.49,0-5,0-7.46,0-.66,0-.83-.22-.83-.85,0-5.36.06-10.72,0-16.09,0-2.15,1-3.57,2.49-4.92C54,65,55.55,63.4,57.17,61.8a3.29,3.29,0,0,1,.53-.45c.6-.38,1-.23,1.13.45a3.7,3.7,0,0,1,.07.77q0,12.55,0,25.1C58.9,87.9,58.87,88.13,58.85,88.4Z"/><path class="cls-1" d="M36.55,88.39c0-.36,0-.65,0-.93q0-11.73,0-23.47a6.09,6.09,0,0,1,.09-1.08c.13-.7.53-.89,1.07-.44.79.67,1.53,1.4,2.27,2.12,1.24,1.22,2.44,2.47,3.69,3.67a6.19,6.19,0,0,1,1.94,4.66c0,4.9,0,9.79,0,14.69,0,.62-.15.86-.82.85-2.51,0-5,0-7.54,0C37.06,88.45,36.86,88.42,36.55,88.39Z"/><path class="cls-1" d="M32.33,75.78c0,4,0,7.92,0,11.88,0,.6-.15.81-.77.81q-3.76,0-7.53,0c-.63,0-.79-.22-.79-.81,0-4.84,0-9.68,0-14.52a6.76,6.76,0,0,1,2.47-5c1.63-1.55,3.2-3.16,4.79-4.75.07-.07.13-.18.21-.22.36-.17.85-.55,1.05-.43a1.44,1.44,0,0,1,.52,1.08c0,2.66,0,5.33,0,8Q32.33,73.8,32.33,75.78Z"/><path class="cls-1" d="M19,88.46H14.31c-1.58,0-3.15,0-4.73,0-.51,0-.65-.17-.68-.67a6.42,6.42,0,0,1,2.35-5.17c2-1.9,3.86-3.88,5.83-5.78A7.49,7.49,0,0,1,18.54,76,6.38,6.38,0,0,1,19,77.58c0,3.33,0,6.67,0,10C19,87.84,19,88.09,19,88.46Z"/></g></g></svg>