<svg xmlns="http://www.w3.org/2000/svg" viewBox="0 0 102.45 102.44"><defs><style>.cls-1{fill:#606060;}</style></defs><title>Recurso 34-vector</title><g id="Capa_2" data-name="Capa 2"><g id="Capa_1-2" data-name="Capa 1"><path class="cls-1" d="M0,85.84q0-1.9,0-3.8a5.89,5.89,0,0,0,.18-.67A18.26,18.26,0,0,1,11.72,66.59c1.21-.52,2.51-.81,3.83-1.23l-2-4c-1-1.9-2-3.78-2.88-5.7a2.31,2.31,0,0,1,2.43-3.45c.33,0,.66.1,1,.15l3.62.61C25.38,30,41,17.69,65.2,16.09c0-.27,0-.63,0-1,0-3.3,0-6.6,0-9.9a8.14,8.14,0,0,1,.18-1.78C65.82,1.58,67.23.69,68.83,0H98.64c2.41.79,3.8,2.35,3.8,5q0,13.65,0,27.31a4.64,4.64,0,0,1-5,4.94c-3.2,0-6.4,0-9.6,0H86.77c.3.43.47.7.67,1,1.62,2.16,3.22,4.33,4.86,6.48a2.6,2.6,0,0,1,.54,2.95,2.52,2.52,0,0,1-2.62,1.26c-1.32,0-2.65,0-4.07,0V50.1c0,4.7,0,9.4,0,14.1,0,1,.33,1.22,1.18,1.38a18.55,18.55,0,0,1,3,35.66c-1.49.54-3.08.81-4.62,1.2H82a4.78,4.78,0,0,0-.66-.18A18.66,18.66,0,0,1,65.68,88l-.31-1.39L58.15,92c-.29.22-.58.45-.89.65a2.29,2.29,0,0,1-3.67-1.85c-.07-1.52,0-3,0-4.64H52.22c-4.6,0-9.2,0-13.79,0-1,0-1.38.26-1.6,1.28a18.17,18.17,0,0,1-12.1,14,38.59,38.59,0,0,1-4.12,1.06h-4a3,3,0,0,0-.54-.19A18.55,18.55,0,0,1,.54,88.13C.34,87.37.18,86.6,0,85.84Zm37.16-4.43H53.59c0-1.58-.05-3.11,0-4.63a2.27,2.27,0,0,1,3.54-1.87,10.53,10.53,0,0,1,.89.64l7.37,5.52A18.83,18.83,0,0,1,70.85,70.5a18.61,18.61,0,0,1,10.57-5.15V48.87c-1.21,0-2.37,0-3.53,0s-2.45,0-3.11-1.27,0-2.28.8-3.26c1.54-2,3-4,4.56-6.08.21-.28.41-.58.72-1H79.73c-3,0-6-.12-9,0a5,5,0,0,1-5.56-5.51c.14-3.19,0-6.4,0-9.6V21.1c-19.08-.6-37.9,13.48-42.6,32.73l3.73.65a2.43,2.43,0,0,1,1.31,4.44c-2,1.85-4,3.73-6,5.6-.24.23-.45.48-.7.75C30,67.1,35.37,72.42,37.16,81.41Zm37.41-72a4,4,0,0,0-.07.48c0,5.76,0,11.53,0,17.29,0,.83.45.8,1,.79,5.53,0,11.06,0,16.59,0,.84,0,1.07-.24,1.06-1.07,0-5.53,0-11.06,0-16.59,0-.29,0-.58-.06-.92ZM18.64,93.1a9.29,9.29,0,1,0-9.29-9.27A9.33,9.33,0,0,0,18.64,93.1Zm65.05,0a9.29,9.29,0,1,0-9.16-9.41A9.28,9.28,0,0,0,83.69,93.09Z"/></g></g></svg>