<svg xmlns="http://www.w3.org/2000/svg" viewBox="0 0 89.35 90.8"><defs><style>.cls-1{fill:#606060;}</style></defs><title>Recurso 30-vector</title><g id="Capa_2" data-name="Capa 2"><g id="Capa_1-2" data-name="Capa 1"><path class="cls-1" d="M41,9.56V3.76C26.58,4.21,14.88,9.85,7.11,22-2.25,36.6-2.4,51.84,6.87,66.55,14.63,78.86,26.38,84.72,41,85.24V79.33c-12.28-.41-22.15-5.41-29-15.73A33.74,33.74,0,0,1,6.36,41,34.89,34.89,0,0,1,41,9.56Z"/><path class="cls-1" d="M26.54,60,24.4,46.54H9.62c.24,1.62.4,3.19.71,4.73a27.44,27.44,0,0,0,3,8.07,1.33,1.33,0,0,0,.92.63c4,0,8.06,0,12.1,0A.54.54,0,0,0,26.54,60Z"/><path class="cls-1" d="M9.78,42.44H24.53c.19-2.26.29-4.5.57-6.73s.73-4.44,1.12-6.75c-.21,0-.46-.06-.72-.06-3.7,0-7.4,0-11.11,0a1.24,1.24,0,0,0-.94.44A29.79,29.79,0,0,0,9.75,41.78,6.46,6.46,0,0,0,9.78,42.44Z"/><path class="cls-1" d="M28.23,42.44h12.7V29a4.55,4.55,0,0,0-.65-.09H30.53c-.44,0-.74.07-.84.57A64,64,0,0,0,28.23,42.44Z"/><path class="cls-1" d="M40.93,46.55H28.34c.14,1.34.2,2.66.44,3.94.54,2.92,1.18,5.83,1.76,8.74.12.61.4.8,1,.79,3.1,0,6.19,0,9.37,0Z"/><path class="cls-1" d="M31.25,24.79h9.69V13c-1.52.14-3,.26-4.54.42a.75.75,0,0,0-.46.36,56.82,56.82,0,0,0-4.71,10.78A.72.72,0,0,0,31.25,24.79Z"/><path class="cls-1" d="M16.47,64.17A31.45,31.45,0,0,0,32.26,74.62c-.52-1.14-1-2-1.35-3-.93-2.28-1.81-4.58-2.75-6.85-.11-.26-.45-.6-.69-.61C23.9,64.16,20.32,64.17,16.47,64.17Z"/><path class="cls-1" d="M41,75.95V64.23H32.08c.16.45.27.85.44,1.23,1.35,3.17,2.72,6.34,4.07,9.52a1.1,1.1,0,0,0,1.15.77C38.77,75.76,39.82,75.87,41,75.95Z"/><path class="cls-1" d="M31.72,14.4A32.49,32.49,0,0,0,16.47,24.82h2.72c2.53,0,5.06,0,7.58,0a1.13,1.13,0,0,0,.87-.47c1.36-3.17,2.67-6.37,4-9.56A2.91,2.91,0,0,0,31.72,14.4Z"/><path class="cls-1" d="M68.84,13.69C81.23,13.69,88,18.34,88,30c0,7.29-2.19,10.94-7.11,13.85,5.29,2.19,8.48,6,8.48,14.31,0,12.67-7.75,17.77-20,17.77H44.87V13.69ZM56,23.26V39.85H68.47c5.65,0,8.2-2.92,8.2-8.48s-2.83-8.11-8.39-8.11Zm0,26V66.38H68.84c5.83,0,9.21-1.82,9.21-8.75,0-6.29-4.38-8.39-9.3-8.39Z"/><rect class="cls-1" x="44.76" width="4.94" height="90.8"/></g></g></svg>