<svg xmlns="http://www.w3.org/2000/svg" viewBox="0 0 26.28 27.83">
  <defs>
    <style>
      .cls-1,.cls-3{fill:#fff;}.cls-1{opacity:0.05;}.cls-2{fill:none;stroke:#fff;stroke-miterlimit:10;stroke-width:0.17px;}
    </style>
  </defs>
  <title>Messenger</title>
  <g id="Capa_2" data-name="Capa 2">
    <g transform="matrix(0.7,0,0,0.7,4.3,5.4)" id="Capa_1-2" data-name="Capa 1">
      <path class="cls-3" d="M 11.7 0.8 c -6.6 0 -12 5 -12 11.1 c 0 3.5 1.7 6.6 4.5 8.7 v 4.2 l 4.1 -2.2 c 1.1 0.3 2.2 0.5 3.4 0.5 c 6.6 0 12 -5 12 -11.1 c 0 -6.1 -5.4 -11.1 -12 -11.1 z m 1.2 15 l -3.1 -3.3 l -6 3.3 l 6.6 -7 l 3.1 3.3 l 5.9 -3.3 l -6.6 7 z"/>
    </g>
  </g>
  <rect class="cls-1" x="0.08" y="0.08" width="26.11" height="27.66"/>
  <rect class="cls-2" x="0.08" y="0.08" width="26.11" height="27.66"/>
</svg>
