<svg xmlns="http://www.w3.org/2000/svg" viewBox="0 0 27.36 30.92"><defs><style>.cls-1{fill:#383838;}.cls-2{font-size:8.08px;fill:#fff;font-family:Sansation-Light, Sansation Light;}</style></defs><title>Recurso 21-vector</title><g id="Capa_2" data-name="Capa 2"><g id="Capa_1-2" data-name="Capa 1"><path class="cls-1" d="M24,30.92H3.41a1.47,1.47,0,0,1-.94-1.62c0-1.82,0-3.64,0-5.45,0-.09,0-.19,0-.31H1.8A1.72,1.72,0,0,1,0,21.75q0-4.45,0-8.91A2,2,0,0,1,.21,12a1.65,1.65,0,0,1,1.57-.92h.69c0-.14,0-.24,0-.34q0-4.68,0-9.35a1.25,1.25,0,0,1,.36-1A4,4,0,0,1,3.41,0H18.52a3.64,3.64,0,0,1,.33.29l1,1.16q2.35,2.69,4.71,5.38a1.13,1.13,0,0,1,.3.8c0,1,0,2.09,0,3.14v.3h.71a1.73,1.73,0,0,1,1.16.41,1.75,1.75,0,0,1,.6,1.4q0,4.42,0,8.84a2.22,2.22,0,0,1,0,.3,1.57,1.57,0,0,1-1.08,1.38,3.67,3.67,0,0,1-1.07.14c-.24,0-.32.05-.32.31,0,1.91,0,3.82,0,5.73a1.23,1.23,0,0,1-.36,1A4,4,0,0,1,24,30.92ZM3.67,11h20c0-.1,0-.18,0-.26,0-.82,0-1.65,0-2.47,0-.24-.06-.31-.3-.31H18.63c-.75,0-.9-.15-.9-.89q0-2.8,0-5.6c0-.09,0-.19,0-.3H4c-.25,0-.32.06-.32.32,0,3.07,0,6.14,0,9.21C3.67,10.83,3.67,10.93,3.67,11Zm0,12.51c0,.08,0,.14,0,.21,0,1.79,0,3.59,0,5.38,0,.24.11.24.29.24H23.41c.23,0,.29-.06.29-.29,0-1.75,0-3.51,0-5.26v-.28Z"/><text class="cls-2" transform="translate(5.97 20.08)">PDF</text></g></g></svg>