<svg xmlns="http://www.w3.org/2000/svg" viewBox="0 0 68.45 68.45"><defs><style>.cls-1{fill:#85bf3f;}.cls-2{fill:#fff;}</style></defs><title>Recurso 45-vector</title><g id="Capa_2" data-name="Capa 2"><g id="Capa_1-2" data-name="Capa 1"><rect class="cls-1" width="68.45" height="68.45" rx="34.23" ry="34.23"/><path class="cls-2" d="M18.2,20.32c0-.12.05-.24.06-.36a8,8,0,0,1,.85-3.1,7.28,7.28,0,0,1,2.48-2.72,11.06,11.06,0,0,1,4-1.59,11.81,11.81,0,0,1,1.79-.23h.17l.37,12.5-.24.13a3.85,3.85,0,0,0-1.51,1.31,3.48,3.48,0,0,0-.54,1.59,5.12,5.12,0,0,0,.26,2.1,2.05,2.05,0,0,0,.12.28c1.59,3.17,3.21,6.31,4.9,9.43.7,1.29,1.42,2.58,2.21,3.83a6.35,6.35,0,0,0,.75,1,2.92,2.92,0,0,0,2.47.92,4.84,4.84,0,0,0,1.92-.6l.1-.05,9.92,7.8-.14.1A18.49,18.49,0,0,1,45.47,54a27.64,27.64,0,0,1-4.13,1.36l-.09,0H38.63l-.07,0-.76-.15a12.44,12.44,0,0,1-3.34-1.37,21.41,21.41,0,0,1-3.92-3,38.94,38.94,0,0,1-3.91-4.33c-1.12-1.42-2.17-2.9-3.17-4.41-.39-.58-.78-1.17-1.13-1.77a21.75,21.75,0,0,1-1.76-4,37.72,37.72,0,0,1-1.2-4.48c-.23-1.09-.42-2.18-.57-3.28q-.16-1.19-.28-2.39c-.08-.82-.14-1.63-.19-2.45,0-.56,0-1.13-.08-1.7,0-.19,0-.37-.05-.56Z"/><path class="cls-2" d="M50.25,49.07c-.05.2-.1.39-.16.59l-.69,2.19,0,.07h0l-.06,0-10.11-8,.09-.07,2.53-1.34a.63.63,0,0,1,.39,0,2.94,2.94,0,0,1,1.35.54c.58.41,1.16.83,1.72,1.27l4.26,3.33a2,2,0,0,1,.65.89,3.14,3.14,0,0,1,.08.31Z"/><path class="cls-2" d="M29.21,12.26l.17,0a4.8,4.8,0,0,1,2.19,1.09,2.18,2.18,0,0,1,.28.29,1,1,0,0,1,.24.67c0,1.94,0,3.87.07,5.81,0,.8,0,1.61,0,2.41a.36.36,0,0,1-.09.26c-.25.28-.49.58-.75.85a3.16,3.16,0,0,1-1,.65,2.67,2.67,0,0,1-.89.27h-.08c-.28,0-.38-.08-.41-.36s-.07-.71-.09-1.06c0-.51,0-1-.06-1.52q-.06-2.35-.11-4.69c0-1.49,0-3-.07-4.46,0-.06,0-.13,0-.19l.14-.06Z"/></g></g></svg>