<svg xmlns="http://www.w3.org/2000/svg" viewBox="0 0 34.33 36.32"><defs><style>.cls-1{fill:none;stroke:#6f6f6e;stroke-miterlimit:10;stroke-width:0.87px;}.cls-2{fill:#6f6f6e;}</style></defs><title>Recurso 40-vector</title><g id="Capa_2" data-name="Capa 2"><g id="Capa_1-2" data-name="Capa 1"><rect class="cls-1" x="0.43" y="0.43" width="33.47" height="35.46"/><rect class="cls-1" x="0.43" y="0.43" width="33.47" height="35.46"/><path class="cls-2" d="M10.46,12.75c0-.06,0-.12,0-.19A4.1,4.1,0,0,1,10.93,11,3.72,3.72,0,0,1,12.2,9.59a5.65,5.65,0,0,1,2-.81,6,6,0,0,1,.92-.12h.08L15.43,15l-.12.06a2,2,0,0,0-.77.67,1.78,1.78,0,0,0-.28.81,2.62,2.62,0,0,0,.13,1.08,1,1,0,0,0,.06.15c.81,1.62,1.64,3.23,2.51,4.82.36.66.72,1.32,1.13,2a3.24,3.24,0,0,0,.38.52,1.49,1.49,0,0,0,1.26.47,2.48,2.48,0,0,0,1-.31l.05,0,5.07,4-.07,0A9.45,9.45,0,0,1,24.4,30a14.13,14.13,0,0,1-2.11.7l0,0H20.87l-.39-.08a6.36,6.36,0,0,1-1.71-.7,10.94,10.94,0,0,1-2-1.52,19.9,19.9,0,0,1-2-2.21c-.57-.73-1.11-1.48-1.62-2.25-.2-.3-.4-.6-.58-.91a11.12,11.12,0,0,1-.9-2,19.28,19.28,0,0,1-.61-2.29c-.12-.56-.21-1.11-.29-1.68q-.08-.61-.14-1.22c0-.42-.07-.83-.1-1.25s0-.58,0-.87c0-.1,0-.19,0-.29Z"/><path class="cls-2" d="M26.85,27.44c0,.1-.05.2-.08.3l-.35,1.12v0h0l0,0-5.17-4.1,0,0,1.29-.68a.32.32,0,0,1,.2,0,1.5,1.5,0,0,1,.69.28c.3.21.59.43.88.65l2.18,1.7a1,1,0,0,1,.33.45,1.61,1.61,0,0,1,0,.16Z"/><path class="cls-2" d="M16.09,8.63l.09,0a2.45,2.45,0,0,1,1.12.56,1.11,1.11,0,0,1,.14.15.53.53,0,0,1,.12.34c0,1,0,2,0,3,0,.41,0,.82,0,1.23a.18.18,0,0,1,0,.14c-.13.14-.25.29-.38.43a1.61,1.61,0,0,1-.51.33,1.36,1.36,0,0,1-.46.14h0c-.14,0-.2,0-.21-.18s0-.36,0-.54,0-.52,0-.78q0-1.2-.06-2.4c0-.76,0-1.52,0-2.28,0,0,0-.07,0-.1l.07,0Z"/></g></g></svg>