<svg xmlns="http://www.w3.org/2000/svg" viewBox="0 0 26.28 27.83"><defs><style>.cls-1,.cls-3{fill:#fff;}.cls-1{opacity:0.05;}.cls-2{fill:none;stroke:#fff;stroke-miterlimit:10;stroke-width:0.17px;}</style></defs><title>Recurso 6-vector</title><g id="Capa_2" data-name="Capa 2"><g id="Capa_1-2" data-name="Capa 1"><rect class="cls-1" x="0.08" y="0.08" width="26.11" height="27.66"/><rect class="cls-2" x="0.08" y="0.08" width="26.11" height="27.66"/><path class="cls-3" d="M7.91,9.69s0-.1,0-.15a3.2,3.2,0,0,1,.34-1.23,2.9,2.9,0,0,1,1-1.09,4.41,4.41,0,0,1,1.59-.63,4.71,4.71,0,0,1,.72-.09h.07l.15,5-.1.05a1.53,1.53,0,0,0-.6.52,1.39,1.39,0,0,0-.22.63,2,2,0,0,0,.1.84l0,.11c.63,1.26,1.28,2.52,2,3.76.28.52.57,1,.88,1.53a2.53,2.53,0,0,0,.3.4,1.16,1.16,0,0,0,1,.37,1.93,1.93,0,0,0,.76-.24l0,0,4,3.11-.05,0a7.37,7.37,0,0,1-1.05.54,11,11,0,0,1-1.65.54H16l-.3-.06a5,5,0,0,1-1.33-.55,8.54,8.54,0,0,1-1.56-1.19,15.53,15.53,0,0,1-1.56-1.73c-.45-.57-.86-1.16-1.27-1.76-.16-.23-.31-.47-.45-.71a8.67,8.67,0,0,1-.7-1.59,15,15,0,0,1-.48-1.79c-.09-.43-.17-.87-.23-1.31s-.08-.64-.11-1S8,11.4,8,11.07s0-.45,0-.68c0-.07,0-.15,0-.22Z"/><path class="cls-3" d="M20.69,21.16l-.07.23-.28.87v0h0l-4-3.2,0,0,1-.53a.25.25,0,0,1,.16,0,1.17,1.17,0,0,1,.54.22l.68.51,1.7,1.33a.81.81,0,0,1,.26.35,1.25,1.25,0,0,1,0,.12Z"/><path class="cls-3" d="M12.3,6.48l.07,0a1.91,1.91,0,0,1,.87.43l.11.12a.42.42,0,0,1,.1.27c0,.77,0,1.54,0,2.32,0,.32,0,.64,0,1a.14.14,0,0,1,0,.11l-.3.34a1.26,1.26,0,0,1-.4.26,1.06,1.06,0,0,1-.36.11h0c-.11,0-.15,0-.16-.14s0-.28,0-.42,0-.4,0-.61q0-.94,0-1.87c0-.59,0-1.19,0-1.78,0,0,0-.05,0-.08l.05,0Z"/></g></g></svg>