<svg xmlns="http://www.w3.org/2000/svg" viewBox="0 0 46.1 46.12"><defs><style>.cls-1{fill:#fff;}</style></defs><title>Recurso 17-vector</title><g id="Capa_2" data-name="Capa 2"><g id="Capa_1-2" data-name="Capa 1"><g id="bQFz8J.tif"><path class="cls-1" d="M0,9.47C0,9.3.08,9.13.11,9A4.44,4.44,0,0,1,1.72,6.12c1.31-1,2.63-2,4-2.93a2.37,2.37,0,0,1,2.8.36q2.62,2.57,5.18,5.19A2.55,2.55,0,0,1,14,11.85c-.57.94-1.13,1.87-1.67,2.83a2.74,2.74,0,0,0-.07,2.62,23.24,23.24,0,0,0,3.46,5.4,48.85,48.85,0,0,0,10.07,9.46,34.18,34.18,0,0,0,3.55,1.9,1.72,1.72,0,0,0,1.53,0c.56-.25,1.12-.5,1.66-.8a19.45,19.45,0,0,0,1.79-1.12,2.6,2.6,0,0,1,3.16.3c1.71,1.7,3.43,3.4,5.12,5.13a2.4,2.4,0,0,1,.26,3C42,41.8,41.1,43,40.23,44.13A4.72,4.72,0,0,1,36.85,46a.94.94,0,0,0-.21.07H34.93c-1-.22-2-.39-3-.69a30,30,0,0,1-8-4.07A70,70,0,0,1,14,33,67.57,67.57,0,0,1,3.49,20.21,24.31,24.31,0,0,1,.24,12.5c-.09-.44-.16-.88-.24-1.32Z"/><path class="cls-1" d="M23.48,0A22.64,22.64,0,0,1,38.37,5.6a22.14,22.14,0,0,1,6.43,8.81,17.38,17.38,0,0,1,.92,10.15,1.44,1.44,0,0,1-2.82.08,1.36,1.36,0,0,1,0-.58,14.42,14.42,0,0,0-1.68-10.5A20.31,20.31,0,0,0,27.1,3.21,15.68,15.68,0,0,0,21.82,3a1.43,1.43,0,0,1-1.64-1.19A1.41,1.41,0,0,1,21.37.2C22.18.09,23,0,23.48,0Z"/><path class="cls-1" d="M23.91,8.64A14.08,14.08,0,0,1,37,19a9.94,9.94,0,0,1,.14,4.19,1.45,1.45,0,1,1-2.83-.54,7.6,7.6,0,0,0-1.13-5.47,11,11,0,0,0-9.42-5.6,6.32,6.32,0,0,0-.76.06,1.46,1.46,0,0,1-1.59-1.27,1.43,1.43,0,0,1,1.21-1.58C23.08,8.7,23.5,8.68,23.91,8.64Z"/></g></g></g></svg>