<svg xmlns="http://www.w3.org/2000/svg" viewBox="0 0 12.78 17.21"><defs><style>.cls-1{fill:#fff;}</style></defs><title>Recurso 15-vector</title><g id="Capa_2" data-name="Capa 2"><g id="Capa_1-2" data-name="Capa 1"><path class="cls-1" d="M0,3.21s0-.1,0-.15A3.2,3.2,0,0,1,.36,1.83a2.9,2.9,0,0,1,1-1.09A4.41,4.41,0,0,1,2.94.12,4.71,4.71,0,0,1,3.66,0h.07l.15,5-.1.05a1.53,1.53,0,0,0-.6.52A1.39,1.39,0,0,0,3,6.21a2,2,0,0,0,.1.84l0,.11c.63,1.26,1.28,2.52,2,3.76.28.52.57,1,.88,1.53a2.53,2.53,0,0,0,.3.4,1.16,1.16,0,0,0,1,.37A1.93,1.93,0,0,0,8,13l0,0,4,3.11-.05,0a7.37,7.37,0,0,1-1.05.54,11,11,0,0,1-1.65.54H8.12l-.3-.06a5,5,0,0,1-1.33-.55A8.54,8.54,0,0,1,4.92,15.4a15.53,15.53,0,0,1-1.56-1.73c-.45-.57-.86-1.16-1.27-1.76-.16-.23-.31-.47-.45-.71a8.67,8.67,0,0,1-.7-1.59A15,15,0,0,1,.46,7.83C.37,7.4.3,7,.24,6.52s-.08-.64-.11-1-.05-.65-.08-1,0-.45,0-.68c0-.07,0-.15,0-.22Z"/><path class="cls-1" d="M12.78,14.68l-.07.23-.28.87v0h0l-4-3.2,0,0,1-.53a.25.25,0,0,1,.16,0,1.17,1.17,0,0,1,.54.22l.68.51,1.7,1.33a.81.81,0,0,1,.26.35,1.25,1.25,0,0,1,0,.12Z"/><path class="cls-1" d="M4.39,0l.07,0a1.91,1.91,0,0,1,.87.43l.11.12a.42.42,0,0,1,.1.27c0,.77,0,1.54,0,2.32,0,.32,0,.64,0,1a.14.14,0,0,1,0,.11l-.3.34a1.26,1.26,0,0,1-.4.26,1.06,1.06,0,0,1-.36.11h0c-.11,0-.15,0-.16-.14s0-.28,0-.42,0-.4,0-.61q0-.94,0-1.87c0-.59,0-1.19,0-1.78,0,0,0-.05,0-.08l.05,0Z"/></g></g></svg>