<svg xmlns="http://www.w3.org/2000/svg" viewBox="0 0 34.33 36.32"><defs><style>.cls-1{fill:none;stroke:#6f6f6e;stroke-miterlimit:10;stroke-width:0.87px;}.cls-2{fill:#6f6f6e;}.cls-3{fill:red;}</style></defs><title>Recurso 42-vector</title><g id="Capa_2" data-name="Capa 2"><g id="Capa_1-2" data-name="Capa 1"><rect class="cls-1" x="0.43" y="0.43" width="33.47" height="35.46"/><rect class="cls-1" x="0.43" y="0.43" width="33.47" height="35.46"/><path class="cls-2" d="M17,8.19h.47l.05,0a3.8,3.8,0,0,1,1.12.27,4.06,4.06,0,0,1,1.81,1.45,3.84,3.84,0,0,1,.72,2.24q0,3.87,0,7.74a3.76,3.76,0,0,1-.22,1.26,4.06,4.06,0,0,1-1.51,2,3.87,3.87,0,0,1-2,.72,3.81,3.81,0,0,1-1.94-.36,4.06,4.06,0,0,1-1.64-1.4,3.84,3.84,0,0,1-.7-2.21q0-3.87,0-7.74a3.66,3.66,0,0,1,.16-1.07,4.06,4.06,0,0,1,2-2.43,3.76,3.76,0,0,1,1.45-.46Z"/><path class="cls-2" d="M11,20a.69.69,0,0,1,.1-.23.53.53,0,0,1,1,.29c0,.18,0,.37,0,.55a5,5,0,0,0,.7,2.16,4.89,4.89,0,0,0,3.14,2.27,5.24,5.24,0,0,0,1.66.12,5,5,0,0,0,2.61-.95,4.87,4.87,0,0,0,1.73-2.3,5.19,5.19,0,0,0,.32-1.8.53.53,0,0,1,.22-.46.5.5,0,0,1,.55,0,.5.5,0,0,1,.29.46,5.21,5.21,0,0,1-.12,1.2A6.22,6.22,0,0,1,21,24.91a6.08,6.08,0,0,1-2.44,1.21,5.56,5.56,0,0,1-.94.15s0,0,0,0q0,.75,0,1.51v0l.37,0a9.14,9.14,0,0,1,1.89.28,2.65,2.65,0,0,1,.75.33,1.09,1.09,0,0,1,.26.23A.53.53,0,0,1,21,29c0,.08,0,.16,0,.23H13.36c0-.08,0-.16,0-.24a.52.52,0,0,1,.11-.34,1.07,1.07,0,0,1,.27-.24,2.81,2.81,0,0,1,.85-.35,9.48,9.48,0,0,1,1.79-.25l.37,0V26.26h0A5.81,5.81,0,0,1,15.38,26a6.18,6.18,0,0,1-2.17-1.21A6.28,6.28,0,0,1,11.32,22,5.72,5.72,0,0,1,11,20.67l0-.27Z"/><circle class="cls-3" cx="27.11" cy="5.64" r="2.55"/></g></g></svg>