<svg xmlns="http://www.w3.org/2000/svg" viewBox="0 0 13.67 23.39"><defs><style>.cls-1{fill:#383838;}</style></defs><title>Recurso 19-vector</title><g id="Capa_2" data-name="Capa 2"><g id="Capa_1-2" data-name="Capa 1"><path class="cls-1" d="M6.64,0h.52l.06,0a4.21,4.21,0,0,1,1.24.3,4.5,4.5,0,0,1,2,1.61,4.25,4.25,0,0,1,.8,2.49q0,4.29,0,8.59A4.17,4.17,0,0,1,11,14.4a4.5,4.5,0,0,1-1.68,2.21,4.3,4.3,0,0,1-2.21.8A4.23,4.23,0,0,1,5,17a4.5,4.5,0,0,1-1.82-1.56A4.26,4.26,0,0,1,2.4,13q0-4.29,0-8.59a4.06,4.06,0,0,1,.17-1.19A4.5,4.5,0,0,1,4.75.54,4.17,4.17,0,0,1,6.36,0Z"/><path class="cls-1" d="M0,13.13a.77.77,0,0,1,.11-.26.59.59,0,0,1,1.07.33c0,.2,0,.41,0,.61A5.49,5.49,0,0,0,2,16.21a5.42,5.42,0,0,0,3.49,2.52,5.81,5.81,0,0,0,1.84.13,5.59,5.59,0,0,0,2.89-1.05,5.4,5.4,0,0,0,1.92-2.55,5.76,5.76,0,0,0,.35-2,.59.59,0,0,1,.25-.51.56.56,0,0,1,.61,0,.55.55,0,0,1,.32.51,5.78,5.78,0,0,1-.13,1.33,6.9,6.9,0,0,1-2.47,4,6.75,6.75,0,0,1-2.7,1.34,6.17,6.17,0,0,1-1,.16s0,0,0,0q0,.84,0,1.67s0,0,0,0l.41,0a10.14,10.14,0,0,1,2.1.31,2.94,2.94,0,0,1,.84.36,1.21,1.21,0,0,1,.29.26.59.59,0,0,1,.14.39c0,.09,0,.17,0,.26H2.61c0-.09,0-.18,0-.26a.58.58,0,0,1,.13-.37,1.18,1.18,0,0,1,.3-.27A3.11,3.11,0,0,1,4,22.1a10.52,10.52,0,0,1,2-.28l.42,0V20h0a6.45,6.45,0,0,1-1.51-.29,6.86,6.86,0,0,1-2.41-1.35,7,7,0,0,1-2.1-3.08A6.35,6.35,0,0,1,0,13.84l0-.3Z"/></g></g></svg>