<svg xmlns="http://www.w3.org/2000/svg" viewBox="0 0 26.28 27.83"><defs><style>.cls-1,.cls-3{fill:#fff;}.cls-1{opacity:0.05;}.cls-2{fill:none;stroke:#fff;stroke-miterlimit:10;stroke-width:0.17px;}.cls-4{fill:red;}</style></defs><title>Recurso 4-vector</title><g id="Capa_2" data-name="Capa 2"><g id="Capa_1-2" data-name="Capa 1"><rect class="cls-1" x="0.08" y="0.08" width="26.11" height="27.66"/><rect class="cls-2" x="0.08" y="0.08" width="26.11" height="27.66"/><path class="cls-3" d="M13,6.14h.4a3,3,0,0,1,.87.21A3.17,3.17,0,0,1,15.7,7.5a3,3,0,0,1,.56,1.75q0,3,0,6a2.93,2.93,0,0,1-.17,1,3.17,3.17,0,0,1-1.18,1.56,3,3,0,0,1-1.55.56,3,3,0,0,1-1.51-.28A3.17,3.17,0,0,1,10.56,17,3,3,0,0,1,10,15.29q0-3,0-6a2.85,2.85,0,0,1,.12-.84,3.17,3.17,0,0,1,1.53-1.89,2.94,2.94,0,0,1,1.13-.36Z"/><path class="cls-3" d="M8.33,15.37a.54.54,0,0,1,.08-.18.42.42,0,0,1,.75.23c0,.14,0,.29,0,.43a3.86,3.86,0,0,0,.55,1.68,3.81,3.81,0,0,0,2.45,1.77,4.09,4.09,0,0,0,1.3.09,3.93,3.93,0,0,0,2-.74,3.8,3.8,0,0,0,1.35-1.8,4.05,4.05,0,0,0,.25-1.4.42.42,0,0,1,.17-.36.39.39,0,0,1,.43,0,.39.39,0,0,1,.23.36,4.07,4.07,0,0,1-.09.94,4.85,4.85,0,0,1-1.74,2.82,4.75,4.75,0,0,1-1.9.94,4.34,4.34,0,0,1-.73.11s0,0,0,0q0,.59,0,1.18v0h.29a7.13,7.13,0,0,1,1.47.22,2.07,2.07,0,0,1,.59.25.85.85,0,0,1,.2.18.41.41,0,0,1,.1.28c0,.06,0,.12,0,.18H10.17c0-.06,0-.12,0-.19a.41.41,0,0,1,.09-.26.83.83,0,0,1,.21-.19,2.19,2.19,0,0,1,.66-.27,7.4,7.4,0,0,1,1.4-.2h.29V20.24h0a4.53,4.53,0,0,1-1.06-.2,4.82,4.82,0,0,1-1.7-.95,4.9,4.9,0,0,1-1.48-2.17,4.47,4.47,0,0,1-.22-1l0-.21Z"/><circle class="cls-4" cx="20.9" cy="4.15" r="1.99"/></g></g></svg>