<svg xmlns="http://www.w3.org/2000/svg" viewBox="0 0 9.61 16.45"><defs><style>.cls-1{fill:#fff;}</style></defs><title>Recurso 13-vector</title><g id="Capa_2" data-name="Capa 2"><g id="Capa_1-2" data-name="Capa 1"><path class="cls-1" d="M4.67,0h.4a3,3,0,0,1,.87.21A3.17,3.17,0,0,1,7.36,1.36a3,3,0,0,1,.56,1.75q0,3,0,6a2.93,2.93,0,0,1-.17,1,3.17,3.17,0,0,1-1.18,1.56A3,3,0,0,1,5,12.25,3,3,0,0,1,3.51,12a3.17,3.17,0,0,1-1.28-1.09,3,3,0,0,1-.54-1.72q0-3,0-6a2.85,2.85,0,0,1,.12-.84A3.17,3.17,0,0,1,3.34.38,2.94,2.94,0,0,1,4.47,0Z"/><path class="cls-1" d="M0,9.24a.54.54,0,0,1,.08-.18.42.42,0,0,1,.75.23c0,.14,0,.29,0,.43A3.86,3.86,0,0,0,1.4,11.4a3.81,3.81,0,0,0,2.45,1.77,4.09,4.09,0,0,0,1.3.09,3.93,3.93,0,0,0,2-.74,3.8,3.8,0,0,0,1.35-1.8,4.05,4.05,0,0,0,.25-1.4A.42.42,0,0,1,9,9a.39.39,0,0,1,.43,0,.39.39,0,0,1,.23.36,4.07,4.07,0,0,1-.09.94A4.85,4.85,0,0,1,7.78,13a4.75,4.75,0,0,1-1.9.94,4.34,4.34,0,0,1-.73.11s0,0,0,0q0,.59,0,1.18v0h.29a7.13,7.13,0,0,1,1.47.22,2.07,2.07,0,0,1,.59.25.85.85,0,0,1,.2.18.41.41,0,0,1,.1.28c0,.06,0,.12,0,.18H1.84c0-.06,0-.12,0-.19A.41.41,0,0,1,1.93,16a.83.83,0,0,1,.21-.19,2.19,2.19,0,0,1,.66-.27,7.4,7.4,0,0,1,1.4-.2h.29V14.1h0a4.53,4.53,0,0,1-1.06-.2,4.82,4.82,0,0,1-1.7-.95A4.9,4.9,0,0,1,.24,10.78a4.47,4.47,0,0,1-.22-1l0-.21Z"/></g></g></svg>