<svg xmlns="http://www.w3.org/2000/svg" viewBox="0 0 95.96 95.83"><defs><style>.cls-1{fill:#606060;}</style></defs><title>Recurso 31-vector</title><g id="Capa_2" data-name="Capa 2"><g id="Capa_1-2" data-name="Capa 1"><path class="cls-1" d="M57.31,74.58c-5.14.06-11.47-1.71-17.38-5a1.29,1.29,0,0,0-1.88.23c-8,8-16.16,15.91-24.14,24A8.39,8.39,0,0,1,1.74,92.54a8.14,8.14,0,0,1,.48-10.61c4.4-4.63,8.93-9.13,13.43-13.67q5.29-5.34,10.64-10.62a1,1,0,0,0,.21-1.37A37.86,37.86,0,0,1,22.3,45.74c-2.49-12.41-.07-23.69,8.45-33.2C39,3.37,49.41-.8,61.74.13A37,37,0,0,1,94.62,27.54c3.13,12.28.8,23.59-7.25,33.45C80.26,69.7,69.93,74.48,57.31,74.58ZM58.6,63.84a26.59,26.59,0,1,0-.76-53.17,26.59,26.59,0,0,0,.76,53.17Z"/><path class="cls-1" d="M62,17.1a11.37,11.37,0,0,1,6.41,2.23c4.41,3,8,6.77,9.91,11.94a6.21,6.21,0,0,1,.33,4.13,4.16,4.16,0,0,1-3.91,2.85,4,4,0,0,1-3.91-2.39c-.34-.77-.58-1.59-.9-2.37A12.8,12.8,0,0,0,62,25.87a14.48,14.48,0,0,1-2.41-1,3.69,3.69,0,0,1-2-3.59,4.21,4.21,0,0,1,2.46-3.83A7,7,0,0,1,62,17.1Z"/></g></g></svg>