<svg xmlns="http://www.w3.org/2000/svg" viewBox="0 0 26.28 27.83">
  <defs>
    <style>
      .cls-1,.cls-3{fill:#fff;}.cls-1{opacity:0.05;}.cls-2{fill:none;stroke:#fff;stroke-miterlimit:10;stroke-width:0.17px;}
    </style>
  </defs>
  <title>Recurso 2-vector</title>
  <g id="Capa_2" data-name="Capa 2">
    <g id="Capa_1-2" data-name="Capa 1">
      <rect class="cls-1" x="0.08" y="0.08" width="26.11" height="27.66"/>
      <rect class="cls-2" x="0.08" y="0.08" width="26.11" height="27.66"/>
      <path class="cls-3" d="M4.24,20.69l.34,0a7.46,7.46,0,0,0,2.62-.29,7.09,7.09,0,0,0,1.73-.77c.24-.15.46-.31.69-.48a3.71,3.71,0,0,1-3.41-2.55,3.92,3.92,0,0,0,.82.06,3.39,3.39,0,0,0,.81-.12,3.67,3.67,0,0,1-2.1-1.3,3.61,3.61,0,0,1-.81-2.34,3.68,3.68,0,0,0,1.65.46A3.68,3.68,0,0,1,5.46,8.51,10.46,10.46,0,0,0,13,12.34c0-.12,0-.23-.06-.33a3.52,3.52,0,0,1,0-1,3.66,3.66,0,0,1,3-3.12,3.6,3.6,0,0,1,2.59.5,3.34,3.34,0,0,1,.67.54.11.11,0,0,0,.12,0,7.35,7.35,0,0,0,1.94-.7l.32-.18a3.7,3.7,0,0,1-1.58,2h0l.41-.07.42-.09.41-.11.4-.14L22,9.56l0,.05a7.38,7.38,0,0,1-1.45,1.57l-.29.23a.08.08,0,0,0,0,.08c0,.25,0,.5,0,.75a9.33,9.33,0,0,1-.13,1.29,10.73,10.73,0,0,1-.53,2,11,11,0,0,1-.71,1.55,10.34,10.34,0,0,1-2.22,2.77,9.75,9.75,0,0,1-3.88,2.09,10.5,10.5,0,0,1-1.81.33,11.35,11.35,0,0,1-1.66,0,10.33,10.33,0,0,1-4.95-1.56l-.09-.05Z"/>
    </g>
  </g>
</svg>