<svg xmlns="http://www.w3.org/2000/svg" viewBox="0 0 34.33 36.32"><defs><style>.cls-1{fill:none;stroke:#6f6f6e;stroke-miterlimit:10;stroke-width:0.87px;}.cls-2{fill:#6f6f6e;}</style></defs><title>Recurso 37-vector</title><g id="Capa_2" data-name="Capa 2"><g id="Capa_1-2" data-name="Capa 1"><rect class="cls-1" x="0.43" y="0.43" width="33.47" height="35.46"/><rect class="cls-1" x="0.43" y="0.43" width="33.47" height="35.46"/><path class="cls-2" d="M5.76,26.85l.44,0a9.56,9.56,0,0,0,3.36-.37,9.09,9.09,0,0,0,2.21-1c.3-.19.6-.4.89-.61a4.75,4.75,0,0,1-4.37-3.27,5,5,0,0,0,1,.08,4.35,4.35,0,0,0,1-.16A4.7,4.7,0,0,1,7.69,19.9a4.63,4.63,0,0,1-1-3,4.72,4.72,0,0,0,2.11.58,4.72,4.72,0,0,1-1.45-6.25A13.4,13.4,0,0,0,17,16.14c0-.15-.05-.29-.07-.43a4.51,4.51,0,0,1,0-1.26,4.69,4.69,0,0,1,3.82-4,4.62,4.62,0,0,1,3.32.65,4.28,4.28,0,0,1,.85.69.14.14,0,0,0,.15,0,9.42,9.42,0,0,0,2.48-.89l.41-.22a4.74,4.74,0,0,1-2,2.57h0l.53-.08L27,13.1l.52-.14.52-.18.53-.21,0,.07a9.46,9.46,0,0,1-1.85,2L26.3,15a.11.11,0,0,0,0,.1c0,.32,0,.64,0,1a12,12,0,0,1-.16,1.66,13.75,13.75,0,0,1-.68,2.56,14.12,14.12,0,0,1-.92,2,13.25,13.25,0,0,1-2.85,3.55,12.5,12.5,0,0,1-5,2.68,13.45,13.45,0,0,1-2.32.42,14.55,14.55,0,0,1-2.13,0,13.24,13.24,0,0,1-6.34-2l-.12-.07Z"/></g></g></svg>