<svg xmlns="http://www.w3.org/2000/svg" viewBox="0 0 17.8 14.49"><defs><style>.cls-1{fill:#fff;}</style></defs><title>Recurso 11-vector</title><g id="Capa_2" data-name="Capa 2"><g id="Capa_1-2" data-name="Capa 1"><path class="cls-1" d="M0,12.86l.34,0a7.26,7.26,0,0,0,1.27,0A7.26,7.26,0,0,0,3,12.59a7.09,7.09,0,0,0,1.73-.77c.24-.15.46-.31.69-.48A3.71,3.71,0,0,1,2,8.79a3.92,3.92,0,0,0,.82.06,3.39,3.39,0,0,0,.81-.12,3.67,3.67,0,0,1-2.1-1.3A3.61,3.61,0,0,1,.7,5.1a3.68,3.68,0,0,0,1.65.46A3.64,3.64,0,0,1,.82,3.33,3.64,3.64,0,0,1,1.21.68,10.46,10.46,0,0,0,8.76,4.5c0-.12,0-.23-.06-.33a3.52,3.52,0,0,1,0-1,3.57,3.57,0,0,1,.79-1.83A3.66,3.66,0,0,1,14.28.56a3.34,3.34,0,0,1,.67.54.11.11,0,0,0,.12,0A7.35,7.35,0,0,0,17,.45l.32-.18a3.7,3.7,0,0,1-1.58,2h0l.41-.07.42-.09L17,2l.4-.14.41-.16,0,.05a7.38,7.38,0,0,1-1.45,1.57L16,3.58a.08.08,0,0,0,0,.08c0,.25,0,.5,0,.75a9.33,9.33,0,0,1-.13,1.29,10.73,10.73,0,0,1-.53,2,11,11,0,0,1-.71,1.55A10.34,10.34,0,0,1,12.39,12a9.75,9.75,0,0,1-3.88,2.09,10.5,10.5,0,0,1-1.81.33,11.35,11.35,0,0,1-1.66,0A10.33,10.33,0,0,1,.09,12.92L0,12.87Z"/></g></g></svg>