<svg xmlns="http://www.w3.org/2000/svg" viewBox="0 0 26.28 27.83">
  <defs>
    <style>
      .cls-1,.cls-3{fill:#fff;}.cls-1{opacity:0.05;}.cls-2{fill:none;stroke:#fff;stroke-miterlimit:10;stroke-width:0.17px;}
    </style>
  </defs>
  <title>Whatsapp</title>
  <g id="Capa_2" data-name="Capa 2">
    <g transform="matrix(0.7,0,0,0.7,3.4,3.5)" id="Capa_1-2" data-name="Capa 1">
      <path class="cls-3" d="M 2.2 27.2 l 1.7 -6.2 c -1 -1.8 -1.6 -3.8 -1.6 -5.9 c 0 -6.6 5.3 -11.9 11.9 -11.9 c 3.2 0 6.2 1.2 8.4 3.5 c 2.2 2.2 3.5 5.2 3.5 8.4 c 0 6.6 -5.3 11.9 -11.9 11.9 c -2 0 -4 -0.5 -5.7 -1.4 l -6.3 1.7 z m 6.6 -3.8 c 1.7 1 3.3 1.6 5.4 1.6 c 5.4 0 9.9 -4.4 9.9 -9.9 c 0 -5.5 -4.4 -9.9 -9.9 -9.9 c -5.5 0 -9.9 4.4 -9.9 9.9 c 0 2.2 0.7 3.9 1.7 5.6 l -1 3.6 l 3.7 -1 z m 11.4 -5.5 c -0.1 -0.1 -0.3 -0.2 -0.6 -0.3 c -0.3 -0.1 -1.8 -0.9 -2 -1 c -0.3 -0.1 -0.5 -0.1 -0.7 0.1 c -0.2 0.3 -0.8 1 -0.9 1.2 c -0.2 0.2 -0.3 0.2 -0.6 0.1 c -0.3 -0.1 -1.3 -0.5 -2.4 -1.5 c -0.9 -0.8 -1.5 -1.8 -1.7 -2.1 c -0.2 -0.3 0 -0.5 0.1 -0.6 c 0.1 -0.1 0.3 -0.3 0.4 -0.5 c 0.2 -0.2 0.2 -0.3 0.3 -0.5 c 0.1 -0.2 0.1 -0.4 0 -0.5 c -0.1 -0.1 -0.7 -1.6 -0.9 -2.2 c -0.2 -0.6 -0.5 -0.5 -0.7 -0.5 l -0.6 0 c -0.2 0 -0.5 0.1 -0.8 0.4 s -1 1 -1 2.5 s 1.1 2.9 1.2 3.1 c 0.1 0.2 2.1 3.2 5.1 4.5 c 0.7 0.3 1.3 0.5 1.7 0.6 c 0.7 0.2 1.4 0.2 1.9 0.1 c 0.6 -0.1 1.8 -0.7 2 -1.4 c 0.2 -0.7 0.2 -1.3 0.2 -1.4 z"/>
    </g>
  </g>
  <rect class="cls-1" x="0.08" y="0.08" width="26.11" height="27.66"/>
  <rect class="cls-2" x="0.08" y="0.08" width="26.11" height="27.66"/>
</svg>
