<svg xmlns="http://www.w3.org/2000/svg" viewBox="0 0 90.87 71.49"><defs><style>.cls-1{fill:red;}.cls-2{fill:#fff;}</style></defs><title>Recurso 18-vector</title><g id="Capa_2" data-name="Capa 2"><g id="Capa_1-2" data-name="Capa 1"><path class="cls-1" d="M45.42,71.49c-3.62-.13-7.24-.2-10.86-.4s-7.2-.5-10.8-.84c-2.87-.27-5.73-.66-8.59-1a24.83,24.83,0,0,1-3.63-.67,13.46,13.46,0,0,1-8.08-6.39,14.82,14.82,0,0,1-1.82-5.64c-.38-2.88-.8-5.76-1.09-8.65A121.56,121.56,0,0,1,0,35.29c0-3.66.16-7.31.47-11A97.09,97.09,0,0,1,1.95,13.23,13.74,13.74,0,0,1,12.69,2.58c2-.38,4-.6,6-.86s3.86-.46,5.8-.64c2.21-.21,4.41-.4,6.63-.54C34.06.35,37,.2,39.89.1c4.35-.15,8.7-.14,13,.07,3.63.17,7.26.38,10.87.7,3.94.35,7.87.84,11.79,1.31A18.24,18.24,0,0,1,79.91,3,13.6,13.6,0,0,1,89,13.57a89.16,89.16,0,0,1,1.39,10.37,136.12,136.12,0,0,1,.43,16.37c-.11,3.46-.32,6.91-.76,10.35-.32,2.52-.64,5-1.13,7.53A13.67,13.67,0,0,1,77.6,68.95c-3,.45-6,.82-9.07,1.16-2.48.28-5,.53-7.46.69-3.68.23-7.36.4-11,.55-1.53.06-3.07,0-4.61,0Z"/><path class="cls-2" d="M64.9,35.71,32.48,51.93V19.5Z"/></g></g></svg>