<svg xmlns="http://www.w3.org/2000/svg" viewBox="0 0 26.28 27.83"><defs><style>.cls-1,.cls-3{fill:#fff;}.cls-1{opacity:0.05;}.cls-2{fill:none;stroke:#fff;stroke-miterlimit:10;stroke-width:0.17px;}</style></defs><title>Recurso 3-vector</title><g id="Capa_2" data-name="Capa 2"><g id="Capa_1-2" data-name="Capa 1"><rect class="cls-1" x="0.08" y="0.08" width="26.11" height="27.66"/><rect class="cls-2" x="0.08" y="0.08" width="26.11" height="27.66"/><path class="cls-3" d="M13,22c-.75,0-1.5,0-2.25-.08s-1.49-.1-2.24-.17-1.19-.14-1.78-.21A5.14,5.14,0,0,1,6,21.39a2.79,2.79,0,0,1-1.68-1.32A3.07,3.07,0,0,1,4,18.9c-.08-.6-.17-1.19-.23-1.79a25.19,25.19,0,0,1-.11-2.6c0-.76,0-1.51.1-2.27A20.12,20.12,0,0,1,4,9.93,2.85,2.85,0,0,1,6.26,7.72c.41-.08.83-.13,1.25-.18l1.2-.13,1.37-.11,1.81-.09c.9,0,1.8,0,2.7,0s1.5.08,2.25.15,1.63.17,2.44.27a3.78,3.78,0,0,1,.89.18A2.82,2.82,0,0,1,22.07,10a18.48,18.48,0,0,1,.29,2.15,28.21,28.21,0,0,1,.09,3.39c0,.72-.07,1.43-.16,2.14-.07.52-.13,1-.23,1.56a2.83,2.83,0,0,1-2.34,2.23c-.62.09-1.25.17-1.88.24s-1,.11-1.55.14c-.76,0-1.53.08-2.29.11-.32,0-.64,0-1,0Zm0-13.48v0c-1,0-1.94,0-2.9.11-.54,0-1.09.08-1.63.14S7.27,8.94,6.65,9a1.51,1.51,0,0,0-1.3,1.25A23.36,23.36,0,0,0,5,13.61a26.94,26.94,0,0,0,.06,3,22.5,22.5,0,0,0,.29,2.27,1.5,1.5,0,0,0,1.23,1.22q.89.13,1.79.23c.63.07,1.26.13,1.89.17s1.5.08,2.24.09,1.56,0,2.35,0c.35,0,.69,0,1-.06l1.21-.1,1.2-.13,1.14-.15a1.52,1.52,0,0,0,1.33-1.25,23.59,23.59,0,0,0,.35-3.37,26.86,26.86,0,0,0-.06-3c-.06-.76-.15-1.52-.29-2.28A1.5,1.5,0,0,0,19.53,9c-.55-.09-1.1-.16-1.65-.21-.78-.08-1.57-.15-2.35-.2S13.88,8.55,13.05,8.51Z"/><path class="cls-3" d="M17.09,14.59l-6.72,3.36V11.23Z"/></g></g></svg>