<svg xmlns="http://www.w3.org/2000/svg" viewBox="0 0 18.83 14.81"><defs><style>.cls-1{fill:#fff;}</style></defs><title>Recurso 12-vector</title><g id="Capa_2" data-name="Capa 2"><g id="Capa_1-2" data-name="Capa 1"><path class="cls-1" d="M9.41,14.81c-.75,0-1.5,0-2.25-.08s-1.49-.1-2.24-.17-1.19-.14-1.78-.21a5.14,5.14,0,0,1-.75-.14A2.79,2.79,0,0,1,.72,12.88a3.07,3.07,0,0,1-.38-1.17c-.08-.6-.17-1.19-.23-1.79A25.19,25.19,0,0,1,0,7.31C0,6.56,0,5.8.1,5A20.12,20.12,0,0,1,.4,2.74,2.85,2.85,0,0,1,2.63.53C3,.46,3.46.41,3.88.36L5.08.22,6.45.11,8.27,0c.9,0,1.8,0,2.7,0s1.5.08,2.25.15,1.63.17,2.44.27a3.78,3.78,0,0,1,.89.18,2.82,2.82,0,0,1,1.88,2.18A18.48,18.48,0,0,1,18.72,5a28.21,28.21,0,0,1,.09,3.39c0,.72-.07,1.43-.16,2.14-.07.52-.13,1-.23,1.56a2.83,2.83,0,0,1-2.34,2.23c-.62.09-1.25.17-1.88.24s-1,.11-1.55.14c-.76,0-1.53.08-2.29.11-.32,0-.64,0-1,0Zm0-13.48v0c-1,0-1.94,0-2.9.11-.54,0-1.09.08-1.63.14S3.64,1.75,3,1.83a1.51,1.51,0,0,0-1.3,1.25,23.36,23.36,0,0,0-.34,3.35,26.94,26.94,0,0,0,.06,3,22.5,22.5,0,0,0,.29,2.27A1.5,1.5,0,0,0,2.94,13q.89.13,1.79.23c.63.07,1.26.13,1.89.17s1.5.08,2.24.09,1.56,0,2.35,0c.35,0,.69,0,1-.06l1.21-.1,1.2-.13L15.79,13a1.52,1.52,0,0,0,1.33-1.25,23.59,23.59,0,0,0,.35-3.37,26.86,26.86,0,0,0-.06-3c-.06-.76-.15-1.52-.29-2.28a1.5,1.5,0,0,0-1.23-1.23c-.55-.09-1.1-.16-1.65-.21-.78-.08-1.57-.15-2.35-.2S10.25,1.36,9.42,1.33Z"/><path class="cls-1" d="M13.45,7.4,6.73,10.76V4Z"/></g></g></svg>