<svg xmlns="http://www.w3.org/2000/svg" viewBox="0 0 26.77 21.06"><defs><style>.cls-1{fill:#383838;}</style></defs><title>Recurso 24-vector</title><g id="Capa_2" data-name="Capa 2"><g id="Capa_1-2" data-name="Capa 1"><path class="cls-1" d="M13.38,21.06c-1.07,0-2.13-.06-3.2-.12S8.06,20.79,7,20.69c-.85-.08-1.69-.19-2.53-.3a7.31,7.31,0,0,1-1.07-.2A4,4,0,0,1,1,18.31a4.37,4.37,0,0,1-.54-1.66C.37,15.8.25,15,.16,14.1A35.81,35.81,0,0,1,0,10.4C0,9.32,0,8.24.14,7.17A28.6,28.6,0,0,1,.57,3.9,4,4,0,0,1,3.74.76C4.33.65,4.92.58,5.51.51L7.22.32c.65-.06,1.3-.12,2-.16C10,.1,10.89.06,11.75,0,13,0,14.31,0,15.59,0c1.07.05,2.14.11,3.2.21s2.32.25,3.47.39A5.37,5.37,0,0,1,23.54.9,4,4,0,0,1,26.21,4a26.27,26.27,0,0,1,.41,3.06,40.1,40.1,0,0,1,.13,4.82c0,1-.09,2-.22,3-.1.74-.19,1.49-.33,2.22a4,4,0,0,1-3.33,3.17c-.89.13-1.78.24-2.67.34-.73.08-1.46.16-2.2.2-1.08.07-2.17.12-3.25.16-.45,0-.9,0-1.36,0Zm0-19.17v0c-1.38,0-2.75,0-4.13.15-.77.06-1.54.12-2.31.2s-1.78.22-2.67.34A2.14,2.14,0,0,0,2.43,4.38a33.21,33.21,0,0,0-.49,4.76A38.3,38.3,0,0,0,2,13.45a32,32,0,0,0,.41,3.23,2.13,2.13,0,0,0,1.76,1.74q1.27.19,2.54.33c.89.1,1.79.18,2.68.24,1.06.07,2.13.12,3.19.13s2.22,0,3.33,0c.49,0,1,0,1.48-.08l1.71-.14,1.71-.18,1.62-.22a2.16,2.16,0,0,0,1.89-1.77,33.54,33.54,0,0,0,.49-4.79,38.19,38.19,0,0,0-.09-4.27c-.08-1.09-.22-2.17-.41-3.24a2.13,2.13,0,0,0-1.75-1.75c-.78-.12-1.56-.23-2.34-.3C19.14,2.21,18,2.1,16.91,2S14.57,1.94,13.39,1.89Z"/><path class="cls-1" d="M19.12,10.52,9.57,15.3V5.74Z"/></g></g></svg>