<svg xmlns="http://www.w3.org/2000/svg" viewBox="0 0 34.33 36.32"><defs><style>.cls-1{fill:none;stroke:#6f6f6e;stroke-miterlimit:10;stroke-width:0.87px;}.cls-2{fill:#6f6f6e;}</style></defs><title>Recurso 38-vector</title><g id="Capa_2" data-name="Capa 2"><g id="Capa_1-2" data-name="Capa 1"><rect class="cls-1" x="0.43" y="0.43" width="33.47" height="35.46"/><rect class="cls-1" x="0.43" y="0.43" width="33.47" height="35.46"/><path class="cls-2" d="M17,28.52c-1,0-1.92-.05-2.88-.11s-1.91-.13-2.87-.22c-.76-.07-1.52-.17-2.28-.27a6.59,6.59,0,0,1-1-.18A3.57,3.57,0,0,1,5.9,26a3.94,3.94,0,0,1-.48-1.5c-.1-.77-.21-1.53-.29-2.3A32.29,32.29,0,0,1,5,18.91c0-1,0-1.94.12-2.91a25.79,25.79,0,0,1,.39-3,3.65,3.65,0,0,1,2.85-2.83c.53-.1,1.07-.16,1.6-.23l1.54-.17c.59-.06,1.17-.11,1.76-.14.77,0,1.55-.09,2.32-.12,1.15,0,2.31,0,3.46,0,1,0,1.93.1,2.89.19s2.09.22,3.13.35a4.85,4.85,0,0,1,1.15.23,3.61,3.61,0,0,1,2.4,2.8A23.68,23.68,0,0,1,29,15.89a36.15,36.15,0,0,1,.12,4.35c0,.92-.09,1.84-.2,2.75-.09.67-.17,1.34-.3,2a3.63,3.63,0,0,1-3,2.86c-.8.12-1.6.22-2.41.31s-1.32.14-2,.18c-1,.06-2,.11-2.93.14-.41,0-.82,0-1.22,0Zm0-17.28v0c-1.24,0-2.48,0-3.72.14-.7.05-1.39.11-2.09.18s-1.61.2-2.41.3a1.93,1.93,0,0,0-1.67,1.6,29.94,29.94,0,0,0-.44,4.29,34.53,34.53,0,0,0,.08,3.88,28.84,28.84,0,0,0,.37,2.91,1.92,1.92,0,0,0,1.58,1.57q1.14.17,2.29.29c.8.09,1.61.17,2.42.22s1.92.11,2.88.12,2,0,3,0c.44,0,.89,0,1.33-.07l1.55-.13,1.54-.16,1.46-.2a2,2,0,0,0,1.7-1.6,30.24,30.24,0,0,0,.44-4.31,34.43,34.43,0,0,0-.08-3.85c-.08-1-.19-2-.37-2.92a1.92,1.92,0,0,0-1.57-1.58c-.7-.11-1.4-.2-2.11-.27-1-.1-2-.2-3-.26S18.12,11.28,17.06,11.24Z"/><path class="cls-2" d="M22.22,19l-8.61,4.31V14.71Z"/></g></g></svg>